<?xml version="1.0" encoding="UTF-8"?>
<svg id="Calque_1" data-name="Calque 1" xmlns="http://www.w3.org/2000/svg" viewBox="0 0 553 595.3">
  <defs>
    <style>
      .cls-1 {
        fill: #fff;
      }

      .cls-2 {
        fill: #66acd7;
      }

      .cls-3 {
        fill: #db9b7c;
      }

      .cls-4 {
        fill: #92c358;
      }

      .cls-5 {
        fill: #efbe9a;
      }

      .cls-6 {
        fill: #363b51;
      }

      .cls-7 {
        fill: #76b42f;
      }

      .cls-8 {
        fill: #c18e59;
      }

      .cls-9 {
        fill: #976947;
      }

      .cls-10 {
        fill: #674025;
      }

      .cls-11 {
        fill: #efd11e;
      }
    </style>
  </defs>
  <path class="cls-7" d="M228.2,357.2l-86.9,26.8c-25.1,7.7-42,30.8-42,56.8v154.5H496.2v-154.5c0-26.2-17-49.2-42-56.9l-86.9-26.7"/>
  <path class="cls-4" d="M424.3,384l-86.9-26.8h-109.2l-86.9,26.8c-25.1,7.7-42,30.8-42,56.8v154.5H466.4v-154.5c-.1-26.1-17.1-49.1-42.1-56.8Z"/>
  <path class="cls-7" d="M219.3,359.9l28.8,76.6,49.6-49.6-74.9-28-3.5,1Z"/>
  <path class="cls-7" d="M372.5,358.9l-74.9,28,49.6,49.6,28.8-76.6-3.5-1Z"/>
  <path class="cls-7" d="M446.5,515.9h69.4v39.7h-69.4v-39.7h0Z"/>
  <path class="cls-2" d="M79.4,515.9h69.4v39.7H79.4v-39.7Z"/>
  <path class="cls-5" d="M446.5,555.6h49.6v39.7h-49.6v-39.7Z"/>
  <path class="cls-5" d="M99.2,555.6h49.6v39.7h-49.6v-39.7Z"/>
  <path class="cls-8" d="M148.8,496.1H446.4v99.2H148.8v-99.2Z"/>
  <path class="cls-9" d="M406.8,367.1l-39.7-9.9v178.6h39.7v-168.7Z"/>
  <path class="cls-9" d="M188.5,367.1l39.7-9.9v178.6h-39.7v-168.7Z"/>
  <path class="cls-11" d="M168.7,109.1V19.8C168.7,8.9,177.6,0,188.5,0h218.3C417.7,0,426.6,8.9,426.6,19.8V109.1"/>
  <path class="cls-10" d="M168.7,69.5H426.7v39.7H168.7v-39.7h0Z"/>
  <path class="cls-11" d="M70.2,148.8h456c14.9,0,26.8-8.9,26.8-19.8s-12-19.8-26.8-19.8H70.2c-14.9,0-26.8,8.9-26.8,19.8,0,10.9,12,19.8,26.8,19.8Z"/>
  <path class="cls-3" d="M188.5,248h-19.8c-21.9,0-39.7-17.7-39.7-39.7s17.7-39.7,39.7-39.7h19.8"/>
  <path class="cls-5" d="M406.8,248h19.8c22,0,39.7-17.7,39.7-39.7s-17.7-39.7-39.7-39.7h-19.8"/>
  <path class="cls-3" d="M168.7,148.8v99.2c0,71.2,57.8,129,129,129s129-57.8,129-129v-99.2"/>
  <path class="cls-5" d="M282.8,376.1c64.2-7.4,114.1-61.9,114.1-128.1v-99.2H168.7v99.2c0,66.3,49.8,120.7,114.1,128.1Z"/>
  <path class="cls-6" d="M240.6,239.2c-4.8,0-8.7-4-8.7-8.7v-2.3c0-4.8,4-8.7,8.7-8.7s8.7,4,8.7,8.7v2.3c.1,4.8-3.9,8.7-8.7,8.7Z"/>
  <path class="cls-6" d="M354.6,239.2c-4.8,0-8.7-4-8.7-8.7v-2.3c0-4.8,4-8.7,8.7-8.7s8.7,4,8.7,8.7v2.3c.1,4.8-3.9,8.7-8.7,8.7Z"/>
  <path class="cls-6" d="M298.4,320.1c-14.2,0-27.4-2.9-37.4-8.3-4.3-2.2-5.8-7.6-3.6-11.7,2.2-4.3,7.6-5.8,11.7-3.6,7.4,4,18,6.2,29.2,6.2s21.9-2.2,29.2-6.2c4.3-2.3,9.5-.7,11.7,3.6,2.2,4.3,.7,9.5-3.6,11.7-9.6,5.4-23,8.3-37.2,8.3Z"/>
  <g>
    <path class="cls-1" d="M129.44,368.25c9.5,4.61,16.78,11.93,22.31,20.95,3.67,5.98,6.18,6.68,12.46,3.52,25.48-12.83,54.99,3.7,57.14,32.13,.26,3.45-.2,7.03-.82,10.46-1.23,6.77-.54,8.51,5.52,11.52,25.43,12.64,31.06,44.23,11.43,64.78-2.86,3-3.37,6.03-2.53,9.9,3.37,15.59-1.25,28.67-13.25,38.99-3.02,2.59-6.78,4.44-10.42,6.17-3.75,1.78-5.4,4.35-5.39,8.5,.03,28.89-26.92,47.48-53.91,37.16-4.03-1.54-7.05-.73-10.17,2.11-21.51,19.56-52.12,21.14-74.75,3.03-6.24-5-11.03-6.07-18.77-3.72-24.43,7.4-48.74-11.39-49.06-37.31-.07-5.47-2.15-8.34-7.01-10.47-17.23-7.53-26.41-25.92-22.2-44.19,.99-4.29,.15-7.46-2.95-10.69-18.97-19.73-13.18-51.79,11.41-63.97,6.74-3.34,7.18-4.58,5.87-12.2-2.71-15.68,2.09-28.83,14.69-38.48,12.73-9.75,26.79-10.74,41.27-3.91,7.02,3.31,9.13,2.84,13.2-3.67,5.51-8.82,12.8-15.72,21.93-20.52,0,0,25.37-13.99,54.02-.07Zm-89.25,152.99c.17,1.72,.37,3.34,.5,4.96,1.31,15.7,7.03,29.57,17.39,41.47,17.09,19.63,43.24,26.14,67,15.88,19.76-8.54,31.54-24.31,37.06-44.82,1.52-5.66,2.04-11.6,3.05-17.64,1.57-.2,3.3-.41,5.03-.65,11.62-1.62,21.64-6.23,29.21-15.51,7.44-9.12,3.86-18.44-7.76-20.86-10.04-2.09-19.98-4.68-30.59-7.21,1.32-1.49,2.02-2.27,2.72-3.07,5.06-5.75,7.8-12.41,7.73-20.12-.04-3.8-2.43-6.37-5.94-6.66-3.41-.28-6.01,1.66-6.84,5.25-.39,1.7-.43,3.49-.86,5.18-3.26,12.79-17.98,17.47-28.18,8.98-4.9-4.07-8.72-3.73-11.83,1.07-7.98,12.32-22.72,12.24-30.69-.16-2.83-4.41-6.82-5.08-10.83-1.82-.43,.35-.83,.72-1.25,1.07-10.04,8.36-25.21,3.32-28.1-9.37-.39-1.7-.41-3.49-.8-5.2-.76-3.35-3.4-5.26-6.7-5.03-3.26,.23-5.75,2.58-5.93,5.93-.11,2.06,.05,4.18,.41,6.22,1.19,6.81,4.67,12.42,9.88,17.4-1.39,.45-2.37,.84-3.39,1.09-9.58,2.36-19.19,4.61-28.75,7.05-8.86,2.27-11.93,11.64-6.39,18.92,6.1,8.01,14.12,13.06,23.8,15.51,3.59,.91,7.28,1.4,11.05,2.1Z"/>
    <path class="cls-5" d="M40.2,521.23c-3.78-.7-7.47-1.19-11.05-2.1-9.67-2.45-17.69-7.51-23.8-15.51-5.55-7.28-2.48-16.65,6.39-18.92,9.56-2.44,19.17-4.69,28.75-7.05,1.02-.25,2-.64,3.39-1.09-5.21-4.98-8.69-10.59-9.88-17.4-.35-2.04-.51-4.15-.41-6.22,.18-3.35,2.67-5.7,5.93-5.93,3.3-.23,5.94,1.68,6.7,5.03,.39,1.7,.41,3.49,.8,5.2,2.89,12.69,18.06,17.73,28.1,9.37,.42-.35,.83-.73,1.25-1.07,4.01-3.26,8-2.59,10.83,1.82,7.97,12.4,22.72,12.48,30.69,.16,3.11-4.8,6.93-5.14,11.83-1.07,10.19,8.49,24.92,3.81,28.18-8.98,.43-1.69,.46-3.48,.86-5.18,.83-3.59,3.44-5.54,6.84-5.25,3.5,.29,5.9,2.86,5.94,6.66,.08,7.7-2.67,14.36-7.73,20.12-.7,.79-1.4,1.58-2.72,3.07,10.62,2.52,20.55,5.11,30.59,7.21,11.62,2.42,15.2,11.74,7.76,20.86-7.56,9.27-17.59,13.88-29.21,15.51-1.73,.24-3.46,.45-5.03,.65-1.02,6.05-1.53,11.98-3.05,17.64-5.51,20.51-17.3,36.28-37.06,44.82-23.76,10.26-49.91,3.75-67-15.88-10.36-11.9-16.08-25.76-17.39-41.47-.14-1.63-.33-3.25-.5-4.96Zm54.86,52.69c1-4.98,.85-9.17-4.02-11.85-1.51-.83-2.8-2.13-4.04-3.37-2.74-2.75-3.01-6.79-.78-9.54,2.26-2.77,5.79-3.35,9.15-1.27,1.85,1.15,3.59,2.53,5.22,3.99,1.4,1.25,2.45,1.39,3.93,.08,1.88-1.66,3.9-3.24,6.06-4.5,2.85-1.66,6.25-.85,8.32,1.62,2.1,2.49,2.23,6.28,.01,8.76-1.52,1.7-3.21,3.43-5.17,4.54-4.81,2.73-4.49,6.87-3.82,11.29,5.73-.13,14.49-4,20.6-9.03,22.4-18.43,27.32-53.86,10.71-77.77-.87-1.25-2.61-2.09-4.12-2.65-3.16-1.18-6.41-2.17-9.69-2.98-1.04-.26-2.62-.15-3.37,.48-13.78,11.56-29.35,11.55-42.95-.01-.75-.64-2.33-.77-3.37-.52-3.17,.79-6.21,2.16-9.4,2.78-2.39,.47-3.87,1.55-5.12,3.54-5.97,9.54-9.03,19.88-9.13,31.14-.18,18.52,6.18,34.14,20.58,46.08,5.89,4.89,12.65,8.1,20.38,9.21Zm92.77-75.68c-.17-.26-.34-.53-.52-.79-9.22-2.33-18.44-4.67-27.8-7.03,1.45,5.22,2.74,10.16,4.28,15.02,.24,.75,1.78,1.7,2.53,1.57,4.06-.74,8.25-1.36,12.04-2.89,3.4-1.37,6.34-3.87,9.48-5.87Zm-142.39-7.54c-9.12,2.25-18.07,4.45-27.5,6.77,6.09,6.28,13.19,8.96,21.18,9.53,.71,.05,1.95-.93,2.18-1.67,1.48-4.79,2.76-9.65,4.14-14.63Z"/>
    <path class="cls-1" d="M95.05,573.93c-7.73-1.1-14.49-4.32-20.38-9.21-14.4-11.95-20.76-27.56-20.58-46.08,.11-11.26,3.17-21.6,9.13-31.14,1.24-1.99,2.73-3.08,5.12-3.54,3.19-.62,6.23-1.99,9.4-2.78,1.04-.26,2.62-.12,3.37,.52,13.6,11.57,29.17,11.57,42.95,.01,.75-.63,2.33-.74,3.37-.48,3.28,.82,6.53,1.8,9.69,2.98,1.51,.56,3.25,1.4,4.12,2.65,16.61,23.92,11.68,59.34-10.71,77.77-6.11,5.03-14.87,8.9-20.6,9.03-.67-4.43-.99-8.56,3.82-11.29,1.96-1.11,3.65-2.84,5.17-4.54,2.22-2.48,2.08-6.27-.01-8.76-2.08-2.46-5.47-3.27-8.32-1.62-2.17,1.26-4.18,2.84-6.06,4.5-1.48,1.31-2.53,1.18-3.93-.08-1.63-1.46-3.37-2.84-5.22-3.99-3.36-2.08-6.89-1.51-9.15,1.27-2.24,2.75-1.96,6.79,.78,9.54,1.23,1.24,2.53,2.54,4.04,3.37,4.87,2.68,5.02,6.87,4.02,11.85Zm-3.46-54.35c.07-3.61-3.19-6.99-6.84-7.09-3.52-.09-7,3.28-7.08,6.87-.08,3.55,3.28,7.01,6.87,7.08,3.6,.07,6.98-3.22,7.05-6.87Zm35.78-.23c-.1-3.57-3.63-6.96-7.12-6.84-3.65,.12-6.93,3.53-6.84,7.1,.1,3.62,3.52,6.93,7.09,6.85,3.56-.08,6.96-3.6,6.86-7.1Z"/>
    <path class="cls-1" d="M187.82,498.25c-3.14,2-6.08,4.5-9.48,5.87-3.79,1.53-7.97,2.14-12.04,2.89-.75,.14-2.29-.82-2.53-1.57-1.54-4.86-2.83-9.8-4.28-15.02,9.36,2.37,18.58,4.7,27.8,7.03,.17,.26,.34,.53,.52,.79Z"/>
    <path class="cls-1" d="M45.43,490.71c-1.38,4.98-2.66,9.84-4.14,14.63-.23,.74-1.47,1.72-2.18,1.67-8-.56-15.1-3.24-21.18-9.53,9.43-2.32,18.39-4.53,27.5-6.77Z"/>
    <path class="cls-5" d="M91.59,519.58c-.07,3.64-3.45,6.93-7.05,6.87-3.58-.07-6.95-3.53-6.87-7.08,.08-3.59,3.56-6.97,7.08-6.87,3.64,.1,6.91,3.48,6.84,7.09Z"/>
    <path class="cls-5" d="M127.37,519.34c.1,3.5-3.31,7.02-6.86,7.1-3.57,.08-7-3.23-7.09-6.85-.09-3.57,3.19-6.98,6.84-7.1,3.49-.11,7.02,3.28,7.12,6.84Z"/>
  </g>
  <g>
    <path class="cls-10" d="M523.56,287.33c11.02,10.34,16.77,22.85,15.12,38.2-1.11,10.36-5.13,19.53-11.73,27.6-3.82,4.68-7.61,9.39-11.21,14.24-3.17,4.29-4.26,9.19-4.25,14.59,.02,11.35-.5,22.69-.67,34.04-.23,15.56-.28,31.13-.53,46.69-.34,21.4-.75,42.8-1.19,64.2-.45,21.72-.91,43.45-1.51,65.17-.38,13.93-1.03,27.86-1.53,41.79-.6,16.73-1.1,33.47-1.79,50.19-.48,11.66-1.2,23.3-1.8,34.96-.52,10.04-1.08,20.07-1.52,30.11-1.01,23.43-2.06,46.85-2.89,70.29-.82,23.22-1.5,46.46-2.05,69.69-.41,17.16-.53,34.32-.74,51.48-.19,15.67-.26,31.33-.48,47-.17,11.99-.52,23.98-.73,35.98-.15,8.86-.22,17.73-.28,26.59-.1,14.69-.24,29.39-.2,44.08,.04,14.15,.24,28.31,.46,42.46,.07,4.4-1.35,6.22-5.79,6.22-2,0-4-.62-5.99-1.05-1.79-.38-2.25-1.63-2.24-3.37,0-7.35-.13-14.7-.16-22.05-.05-14.37-.13-28.74-.09-43.11,.04-17.4,.09-34.8,.32-52.2,.29-21.72,.8-43.44,1.13-65.16,.27-17.29,.37-34.59,.64-51.88,.22-14.36,.56-28.72,.88-43.09,.36-15.56,.65-31.12,1.18-46.67,.49-14.47,1.27-28.93,1.92-43.39,.87-19.54,1.69-39.08,2.62-58.61,.68-14.24,1.52-28.48,2.26-42.72,.48-9.28,1.06-18.55,1.36-27.84,.65-20.4,1.17-40.81,1.7-61.22,.59-22.8,1.25-45.6,1.66-68.4,.33-18.59,.28-37.18,.52-55.76,.24-17.94,.67-35.87,.96-53.81,.11-6.91,.11-13.83,.07-20.75-.05-8.21,1.66-15.9,6.65-22.58,3.61-4.84,7.22-9.7,11.1-14.32,5.51-6.55,9.26-13.77,9.84-22.43,.42-6.24-.97-11.98-4.59-17.17-3.17-4.54-6.49-8.76-11.58-11.49-7.71-4.13-15.66-4.58-23.89-2.5-5.94,1.5-10.89,4.66-14.66,9.55-.72,.93-1.19,2.06-1.88,3.02-1.84,2.57-1.71,5.26-.57,8.01,1.27,3.1,2.52,6.2,3.89,9.26,2.71,6.07,3.57,12.33,2.88,18.97-.87,8.4-5.05,14.57-11.9,19.09-3.72,2.46-7.83,4.07-12.33,4.58-4.63,.52-8.82-4.16-7.59-8.68,.65-2.39,1.97-4.2,4.52-5.08,2.83-.99,5.72-2.03,8.28-3.56,4.01-2.39,5.39-6.32,5-10.85-.44-5.12-1.89-10.03-4.32-14.51-2.92-5.39-3.39-11.09-2.92-16.99,.33-4.17,2.72-7.46,4.97-10.75,6.89-10.11,16.82-14.88,28.67-16.83,12.65-2.09,23.62,1.79,34.07,8.24,1.09,.67,1.96,1.69,2.93,2.54Zm-23.98,211.46c.94-1.01,1-2.07,.08-3.2,0,1.06,0,2.12,0,3.18-.22,1.33-.44,2.66,.02,3.92,.25-.04,.51-.08,.76-.12-.3-1.26-.59-2.52-.87-3.78Zm-6.58,204.98c1.06-1.33,.62-2.8,.7-4.22-.26,0-.53,0-.79,0,.06,1.41,.13,2.81,.19,4.22-.63,1.68-.43,3.31-.15,4.93,.27-.02,.54-.05,.81-.07-.26-1.62-.51-3.23-.77-4.85Zm1.8,57.81c.82-.85,1.12-1.76,.09-2.8,0,.93,0,1.86,0,2.8-.41,1.58-1,3.17-.02,4.75-.38-1.57,1.47-3.19-.08-4.75Zm1.41-42.91c-.02,1.39-.05,2.79-.07,4.18,.84-1.48,2.08-3.03-.05-4.19,1.99-2.62,2.16-3.78,.68-5.9-.2,2.1-.39,4-.56,5.91Zm5.08-103.57c-.28-.02-.56-.03-.84-.05-.19,6.65-.38,13.31-.57,19.96l.78,.03c.96-6.61,.55-13.28,.63-19.93Zm-10.41,252.66c1.36-3.12,1.18-5.44,.04-7.17-.01,2.21-.02,4.69-.04,7.17Zm12.18-309.83c-.28,0-.57,0-.85,0,0,2.14,.01,4.27,.02,6.41,.29,0,.58,0,.87,0-.01-2.14-.03-4.28-.04-6.41Zm-12.14,295.18c.34,0,.67,0,1.01-.01-.09-1.92-.18-3.83-.28-5.75-.21,0-.42,0-.63,0-.03,1.92-.07,3.84-.1,5.75Zm2.36-137c-1.28,2.17-1.33,3.43-.2,5.97,.08-2.46,.14-4.21,.2-5.97Zm-.85,117.23c-.36,0-.72,0-1.07,0l.24,3.83c.28,0,.57-.02,.85-.03,0-1.27-.01-2.54-.02-3.81Zm.39-107.13q-1.15,1.89-.27,3.71l.27-3.71Zm9.42-171.88q1.22-1.67,.32-3.39c-.13,1.4-.22,2.39-.32,3.39Zm-2.41-22.93c-.21,0-.43,.01-.64,.02-.04,1.37-.19,2.76,.65,4.02,0-1.35,0-2.69-.01-4.04Zm-8.49,226.77l-.71-.03c-.04,1.35-.08,2.71-.13,4.06,.25,0,.5,.02,.75,.03,.03-1.35,.06-2.71,.09-4.06Zm12.11-252.22c1.16-1.42,1.31-2.18,.05-3.51-.02,1.3-.03,2.06-.05,3.51Zm-13.71,278.63c.22,.02,.45,.04,.67,.06,.01-.93,.02-1.86,.04-2.78-.18,0-.36,0-.54-.01l-.17,2.74Zm3.12,25.17c.26,0,.52,0,.79,0-.12-1.01-.24-2.02-.36-3.03l-.49,.04c.02,1,.05,2,.07,3Zm6.49-288.1c.25-.03,.5-.06,.74-.09-.07-1-.14-2-.22-3.01-.21,.02-.43,.04-.64,.06,.04,1.01,.07,2.02,.11,3.04Zm-4.57,142.86c.23,.02,.46,.04,.69,.05,.09-.39,.28-.79,.23-1.15-.06-.39-.35-.74-.53-1.11-.13,.05-.26,.09-.39,.14,0,.69,0,1.38,0,2.07Zm2.63,62.9c-.37,.02-.75,.04-1.12,.06-.91,.98-.16,1.6,1.14,2.17l-.02-2.23Zm5.49-200.86c.18,0,.37,0,.55,0,.07-.87,.14-1.75,.21-2.62-.24,0-.49,.02-.73,.03,0,.86-.02,1.73-.03,2.59Zm-9.72,276.9c.31-.03,.62-.05,.94-.08-.08-.89-.16-1.78-.24-2.67-.16,.02-.32,.04-.49,.06-.07,.9-.14,1.79-.21,2.69Zm5.56-216.27c-.36,.02-.71,.04-1.07,.05,.13,.77,.25,1.55,.42,2.31,.01,.06,.32,.06,.5,.09,.05-.83,.1-1.64,.15-2.46Zm1.36-80.6c-.23,.04-.45,.07-.68,.11,.09,.69,.19,1.38,.28,2.07,.16-.02,.31-.05,.47-.07-.02-.7-.05-1.4-.07-2.11Zm-.1,19.77l-.57-.08c-.06,.39-.2,.78-.17,1.16,.03,.38,.22,.75,.35,1.13,.12-.04,.23-.07,.35-.11,.01-.7,.03-1.41,.04-2.11Zm-10,252.43c.21,.02,.42,.04,.63,.06,0-.76-.02-1.52-.02-2.28-.16,0-.32-.01-.48-.02-.04,.75-.08,1.49-.13,2.24Zm4,2.63c-.15,0-.3,0-.46,0,0,.74,0,1.47,0,2.21,.16,0,.32,0,.48,0-.01-.74-.02-1.47-.03-2.21Zm-3.03,76.35c.23,0,.45,0,.68,0-.08-.6-.15-1.19-.23-1.79-.17,.02-.35,.04-.52,.05,.02,.58,.04,1.16,.07,1.73Zm.65,15.5c-.15,0-.31,0-.46,0-.11,.29-.33,.59-.31,.86,.03,.28,.29,.55,.78,1.39,0-1.24-.01-1.75-.01-2.27Zm.42-33.24c-.21-.04-.42-.08-.63-.12,0,.47,0,.93-.01,1.4l.43,.04c.07-.44,.14-.88,.21-1.32Zm-3.34-25.38c.17,.03,.34,.06,.51,.09,.02-.61,.04-1.22,.06-1.82-.15,0-.29,0-.44,0-.05,.58-.09,1.15-.14,1.73Zm7.33-72c.16-.04,.31-.08,.47-.12-.07-.46-.15-.91-.22-1.37-.24,.12-.69,.28-.68,.34,.09,.39,.27,.76,.43,1.14Zm7.06-196.16c-.2-.03-.41-.07-.61-.1,.02,.58,.03,1.16,.05,1.74,.13,0,.26,.02,.39,.02,.06-.55,.11-1.11,.17-1.66Zm-5.8,71.87c.17,0,.35,.02,.52,.03,.04-.59,.07-1.18,.11-1.77l-.53-.03c-.03,.59-.06,1.18-.1,1.77Zm.77-4.4c-.62,.22-.95,.27-.96,.35-.03,.33,.03,.66,.06,1,.23-.35,.46-.69,.9-1.35Zm-.08,86.78c.3-.02,.6-.03,.89-.05-.08-.61-.16-1.22-.23-1.83-.23,.01-.46,.02-.69,.04,0,.61,.02,1.22,.03,1.84Zm-.51-103.2l.95-.04c-.1-.46-.2-.92-.3-1.37-.28,.03-.55,.06-.83,.09,.06,.44,.12,.88,.18,1.32Zm-11.28,291.36l.81-.05c-.02-.61-.03-1.22-.05-1.83-.14,0-.28,0-.41,.01-.12,.62-.23,1.24-.35,1.86Zm.8-16.42c-.21,.03-.41,.07-.62,.1,.07,.42,.13,.85,.2,1.27,.15-.01,.3-.02,.46-.04-.01-.44-.02-.89-.04-1.33Zm16.35-330.55c-.23,.02-.45,.03-.68,.05l.22,1.69c.17-.02,.34-.04,.51-.06-.02-.56-.04-1.12-.05-1.68Zm-9.29,147.89c.21-.03,.43-.06,.64-.09-.09-.45-.18-.9-.27-1.36-.13,.02-.27,.05-.4,.07,0,.46,.02,.92,.03,1.38Zm3.05-60.98c-.16-.05-.31-.1-.47-.15-.16,.32-.42,.62-.46,.95-.03,.29,.18,.61,.28,.92,.15-.02,.29-.05,.44-.07,.07-.55,.14-1.1,.21-1.64Zm.62-3.73c-.53,.29-.83,.4-.82,.46,.04,.24,.18,.47,.28,.71,.13-.29,.27-.57,.54-1.17Zm-2.73,126.75l.43,.31c.17-.1,.46-.18,.48-.31,.07-.35,.03-.71,.03-1.07l-.94,1.07Zm-2.5-17.22c-.16-.04-.32-.08-.48-.12-.05,.34-.11,.67-.14,1.01,0,.02,.17,.06,.27,.1,.12-.33,.23-.66,.35-.99Zm10.24-165.25c.04-.18,.07-.36,.11-.54-.23,.02-.47,.03-.69,.1-.04,.01,.03,.33,.04,.5,.18-.02,.36-.04,.54-.05Z"/>
    <path class="cls-10" d="M503.06,557.93c.01,2.14,.03,4.28,.04,6.41-.29,0-.58,0-.87,0,0-2.14-.01-4.27-.02-6.41,.28,0,.57,0,.85,0Z"/>
    <path class="cls-10" d="M502.24,554.33c.09-1,.19-1.99,.32-3.39q.9,1.72-.32,3.39Z"/>
    <path class="cls-10" d="M499.83,531.4c0,1.35,0,2.69,.01,4.04-.84-1.26-.69-2.64-.65-4.02,.21,0,.43-.01,.64-.02Z"/>
    <path class="cls-10" d="M503.44,505.95c.02-1.44,.03-2.2,.05-3.51,1.26,1.32,1.11,2.08-.05,3.51Z"/>
    <path class="cls-10" d="M499.56,498.79c.3,1.26,.59,2.52,.89,3.78-.25,.04-.51,.08-.76,.12-.46-1.26-.25-2.59-.02-3.92l-.1,.02Z"/>
    <path class="cls-10" d="M499.35,521.65c-.04-1.01-.07-2.02-.11-3.04,.21-.02,.43-.04,.64-.06,.07,1,.14,2,.22,3.01-.25,.03-.5,.06-.74,.09Z"/>
    <path class="cls-10" d="M502.89,526.55c0-.86,.02-1.73,.03-2.59,.24,0,.49-.02,.73-.03-.07,.87-.14,1.75-.21,2.62-.18,0-.37,0-.55,0Z"/>
    <path class="cls-10" d="M498.72,587.19c-.05,.82-.1,1.64-.15,2.46-.19-.03-.49-.03-.5-.09-.16-.77-.28-1.54-.42-2.31,.36-.02,.71-.04,1.07-.05Z"/>
    <path class="cls-10" d="M499.66,498.77c0-1.06,0-2.12,0-3.18,.92,1.12,.86,2.19-.09,3.2,0,0,.09-.02,.09-.02Z"/>
    <path class="cls-10" d="M500.08,506.59c.02,.7,.05,1.4,.07,2.11-.16,.02-.31,.05-.47,.07-.09-.69-.19-1.38-.28-2.07,.23-.04,.45-.07,.68-.11Z"/>
    <path class="cls-10" d="M499.98,526.35c-.01,.7-.03,1.41-.04,2.11-.12,.04-.23,.07-.35,.11-.12-.38-.32-.75-.35-1.13-.03-.38,.1-.77,.17-1.16l.57,.08Z"/>
    <path class="cls-10" d="M503.07,546.49c-.06,.55-.11,1.11-.17,1.66-.13,0-.26-.02-.39-.02-.02-.58-.03-1.16-.05-1.74,.2,.03,.41,.07,.61,.1Z"/>
    <path class="cls-10" d="M503.31,541.92c.02,.56,.04,1.12,.05,1.68-.17,.02-.34,.04-.51,.06l-.22-1.69c.23-.02,.45-.03,.68-.05Z"/>
    <path class="cls-10" d="M502.7,569.39c-.18,.02-.36,.04-.54,.05-.02-.17-.08-.49-.04-.5,.22-.07,.46-.07,.69-.1-.04,.18-.07,.36-.11,.54Z"/>
  </g>
</svg>