<?xml version="1.0" encoding="utf-8"?>
<!-- Generator: Adobe Illustrator 23.0.1, SVG Export Plug-In . SVG Version: 6.00 Build 0)  -->
<svg version="1.1" id="Layer_1" xmlns="http://www.w3.org/2000/svg" xmlns:xlink="http://www.w3.org/1999/xlink" x="0px" y="0px"
	 viewBox="0 0 512 525.7" style="enable-background:new 0 0 512 525.7;" xml:space="preserve">
<style type="text/css">
	.st0{fill:#DEE0EC;}
	.st1{fill:#66ACD7;}
	.st2{fill:#EFBE9A;}
	.st3{opacity:0.2;enable-background:new    ;}
	.st4{fill:#FFFFFF;}
	.st5{fill:#E91E15;}
	.st6{fill:#2E43B2;}
	.st7{fill:#DB9B7C;}
	.st8{opacity:0.3;fill:#EFBE9A;enable-background:new    ;}
	.st9{fill:#363B51;}
	.st10{fill:#948F8F;}
</style>
<path class="st0" d="M-271.5,413.8h138"/>
<path class="st0" d="M192.2,287.1l-86.9,26.8c-25.1,7.7-42,30.8-42,56.8v154.5h396.9V370.6c0-26.2-17-49.2-42-56.9l-86.9-26.7"/>
<path d="M316.3,525.2h143.8V370.6c0-26.2-18.9-49.2-46.6-56.9l-93.9-31.1"/>
<path d="M196.2,287.1l-89.6,26.8c-25.8,7.7-43.3,30.8-43.3,56.8v154.5h133.3"/>
<path class="st1" d="M336.5,288.8l-74.9,28l49.6,49.6l28.8-76.6L336.5,288.8z"/>
<path class="st1" d="M410.5,445.8h69.4v39.7h-69.4V445.8z"/>
<path class="st1" d="M43.4,445.8h69.4v39.7H43.4V445.8z"/>
<path class="st2" d="M410.5,485.5h49.6v39.7h-49.6V485.5z"/>
<path class="st2" d="M63.2,485.5h49.6v39.7H63.2V485.5z"/>
<path class="st1" d="M183.3,289.8l28.8,76.6l49.6-49.6l-74.9-28L183.3,289.8z"/>
<path class="st3" d="M388.3,314.8l-86.9-26.8H192.2l-86.9,26.8c-25.1,7.7-42,30.8-42,56.8v154.5h367.1V371.6
	C430.3,345.6,413.3,322.5,388.3,314.8z"/>
<g id="XMLID_1_">
	<g>
		<polygon class="st4" points="410.5,507.8 410.5,525.2 402.2,525.2 121.7,309.1 143.4,302.3 		"/>
		<polygon class="st5" points="410.5,485.5 410.5,507.8 143.4,302.3 163.4,295.9 		"/>
		<polygon class="st6" points="402.2,525.2 370.8,525.2 98.2,316.5 121.7,309.1 		"/>
	</g>
</g>
<path class="st7" d="M152.5,177.9h-19.8c-21.9,0-39.7-17.7-39.7-39.7c0-22,17.7-39.7,39.7-39.7h19.8"/>
<path class="st2" d="M370.8,177.9h19.8c22,0,39.7-17.7,39.7-39.7c0-22-17.7-39.7-39.7-39.7h-19.8"/>
<path class="st7" d="M262,0.1c-131.5-3-129.3,78.6-129.3,78.6v99.2c0,71.2,57.8,129,129,129s129-57.8,129-129V78.7
	C382.7-5.7,262,0.1,262,0.1z"/>
<path class="st8" d="M261.2,0.1c-131.5-3-129.3,78.6-129.3,78.6v99.2c0,71.2,57.8,129,129,129"/>
<path class="st9" d="M201.3,170.3c-4.8,0-8.7-4-8.7-8.7v-2.3c0-4.8,4-8.7,8.7-8.7c4.8,0,8.7,4,8.7,8.7v2.3
	C210,166.3,206.1,170.3,201.3,170.3z"/>
<path class="st9" d="M315.3,170.3c-4.8,0-8.7-4-8.7-8.7v-2.3c0-4.8,4-8.7,8.7-8.7c4.8,0,8.7,4,8.7,8.7v2.3
	C324,166.3,320.1,170.3,315.3,170.3z"/>
<path class="st9" d="M259.1,251.2c-14.2,0-27.4-2.9-37.4-8.3c-4.3-2.2-5.8-7.6-3.6-11.7c2.2-4.3,7.6-5.8,11.7-3.6
	c7.4,4,18,6.2,29.2,6.2c11.2,0,21.9-2.2,29.2-6.2c4.3-2.3,9.5-0.7,11.7,3.6c2.2,4.3,0.7,9.5-3.6,11.7
	C286.7,248.3,273.3,251.2,259.1,251.2z"/>
<path class="st10" d="M183.3,12.8c0,0-36.2,169.6-50.6,166l0-104.7C132.7,74.1,135,31.5,183.3,12.8z"/>
<path class="st10" d="M339.7,12.8c0,0,36.2,169.6,50.6,166l0-104.7C390.3,74.1,387.9,31.5,339.7,12.8z"/>
</svg>
