<?xml version="1.0" encoding="utf-8"?>
<!-- Generator: Adobe Illustrator 23.0.1, SVG Export Plug-In . SVG Version: 6.00 Build 0)  -->
<svg version="1.1" id="Capa_1" xmlns="http://www.w3.org/2000/svg" xmlns:xlink="http://www.w3.org/1999/xlink" x="0px" y="0px"
	 viewBox="0 0 493.4 550" style="enable-background:new 0 0 493.4 550;" xml:space="preserve">
<style type="text/css">
	.st0{fill:#484655;}
	.st1{fill:#1E1D27;}
	.st2{clip-path:url(#SVGID_2_);}
	.st3{fill:#FA9E3E;}
	.st4{opacity:0.29;fill:#FFFFFF;}
	.st5{fill:#EFBE9A;}
	.st6{fill:#DB9B7C;}
	.st7{fill:#363B51;}
	.st8{fill:#5C596B;}
</style>
<g>
	<path class="st0" d="M247,550h185.7c4.9,0,0-104.1,0-109l-4.4-34c-5-43.5-28.1-48.7-51.8-56c0,0,41.8,43,86.8,7
		c25.8-22.8,36.6-43.2,26.1-76.1l-33.2-105C433.6,105.1,382.2,45.4,315,13.2c-8.9-4.2-16-7.1-21.9-8.7C281.7,1.5,264.3,0,247,0
		l-0.6,0c-17.3,0-34.7,1.5-46.1,4.6c-5.9,1.6-13,4.4-21.9,8.7C111.2,45.4,59.8,105.1,37.1,176.8L4,281.9
		c-10.5,32.9,0.3,53.3,26.1,76.1c45,36,86.8-7,86.8-7c-23.7,7.3-46.8,12.5-51.8,56l-4.4,34c0,4.9-4.9,109,0,109h185.7H247z"/>
	<path class="st1" d="M427.4,298.3l-181,187.8l-181-187.8c-4.6-4.7-5.9-12.2-3.3-18.5c0,0,0-0.1,0.1-0.1
		c5.9-14.8,17.3-42.7,30.4-69.1c5.1-10.2,10.4-20.1,15.8-29c8.9-14.7,17.9-26.6,26-31.7c49-31.2,175.2-31.2,224.3,0
		c8.1,5.2,17.1,17,26,31.7c5.4,8.9,10.7,18.8,15.8,29c13.2,26.3,24.5,54.3,30.4,69.1c0,0,0,0.1,0.1,0.1
		C433.3,286.1,431.9,293.6,427.4,298.3z"/>
	<g>
		<defs>
			<path id="SVGID_1_" d="M427.4,298.2L246.4,486l-181-187.8c-4.6-4.7-5.9-12.2-3.3-18.5c0,0,0-0.1,0.1-0.1
				c5.9-14.8,17.3-42.7,30.4-69.1c5.1-10.2,10.4-20.1,15.8-29c8.9-14.7,17.9-26.6,26-31.7c49-31.2,175.2-31.2,224.3,0
				c8.1,5.2,17.1,17,26,31.7c5.4,8.9,10.7,18.8,15.8,29c13.2,26.3,24.5,54.3,30.4,69.1c0,0,0,0.1,0.1,0.1
				C433.3,286.1,431.9,293.5,427.4,298.2z"/>
		</defs>
		<clipPath id="SVGID_2_">
			<use xlink:href="#SVGID_1_"  style="overflow:visible;"/>
		</clipPath>
		<g class="st2">
			<path class="st3" d="M174.3,333.4l-86.9,26.8c-25.1,7.7-42,30.8-42,56.8v154.5h396.9V417c0-26.2-17-49.2-42-56.9l-86.9-26.7"/>
			<path class="st4" d="M370.4,360.2l-86.9-26.8H174.3l-86.9,26.8c-25.1,7.7-42,30.8-42,56.8v154.5h367.1V417
				C412.4,390.9,395.4,367.9,370.4,360.2z"/>
			<path class="st5" d="M392.6,531.8h49.6v39.7h-49.6V531.8z"/>
			<path class="st5" d="M45.3,531.8h49.6v39.7H45.3V531.8z"/>
			<path class="st6" d="M134.6,224.2h-19.8c-21.9,0-39.7-17.7-39.7-39.7s17.7-39.7,39.7-39.7h19.8"/>
			<path class="st5" d="M352.9,224.2h19.8c22,0,39.7-17.7,39.7-39.7s-17.7-39.7-39.7-39.7h-19.8"/>
			<path class="st6" d="M114.8,125v99.2c0,71.2,57.8,129,129,129s129-57.8,129-129V125"/>
			<path class="st5" d="M228.9,352.3c64.2-7.4,114.1-61.9,114.1-128.1V125H114.8v99.2C114.8,290.5,164.6,344.9,228.9,352.3z"/>
			<path class="st7" d="M186.7,215.4c-4.8,0-8.7-4-8.7-8.7v-2.3c0-4.8,4-8.7,8.7-8.7c4.8,0,8.7,4,8.7,8.7v2.3
				C195.5,211.5,191.5,215.4,186.7,215.4z"/>
			<path class="st7" d="M300.7,215.4c-4.8,0-8.7-4-8.7-8.7v-2.3c0-4.8,4-8.7,8.7-8.7c4.8,0,8.7,4,8.7,8.7v2.3
				C309.5,211.5,305.5,215.4,300.7,215.4z"/>
			<path class="st7" d="M244.5,296.3c-14.2,0-27.4-2.9-37.4-8.3c-4.3-2.2-5.8-7.6-3.6-11.7c2.2-4.3,7.6-5.8,11.7-3.6
				c7.4,4,18,6.2,29.2,6.2s21.9-2.2,29.2-6.2c4.3-2.3,9.5-0.7,11.7,3.6c2.2,4.3,0.7,9.5-3.6,11.7
				C272.1,293.4,258.7,296.3,244.5,296.3z"/>
			<path class="st8" d="M113.7,237.2l259.1-0.1c0,0-6.7,110.7-128.7,151.8C244.1,388.9,125.3,358.5,113.7,237.2z"/>
		</g>
	</g>
</g>
</svg>
