<?xml version="1.0" encoding="utf-8"?>
<!-- Generator: Adobe Illustrator 16.0.0, SVG Export Plug-In . SVG Version: 6.00 Build 0)  -->
<!DOCTYPE svg PUBLIC "-//W3C//DTD SVG 1.1//EN" "http://www.w3.org/Graphics/SVG/1.1/DTD/svg11.dtd">
<svg version="1.1" id="Capa_1" xmlns="http://www.w3.org/2000/svg" xmlns:xlink="http://www.w3.org/1999/xlink" x="0px" y="0px"
	 width="436.486px" height="716.499px" viewBox="216.733 -121.218 436.486 716.499"
	 enable-background="new 216.733 -121.218 436.486 716.499" xml:space="preserve">
<g>
	<path fill="#59474E" d="M325.18,105.64c-2.096,4.368-3.757,16.256-4.735,21c0,0,14.801,70.227,9,83.559
		c-4.43,10.162-52.335-21.114-60.574-12.377c-0.044,0.044-0.044,0.114-0.062,0.175l-0.437-0.175
		c-34.947-8.737-43.684-61.159-43.684-61.159C260.422,150.992,313.385,115.775,325.18,105.64z"/>
	<path fill="#59474E" d="M645.793,136.663c0,0-8.737,52.422-43.685,61.159l-0.436,0.175c-0.019-0.061-0.019-0.131-0.063-0.175
		c-8.238-8.737-56.145,22.539-60.574,12.377c-5.801-13.332,9-83.559,9-83.559c-0.979-4.744-2.639-16.632-4.734-21
		C557.097,115.775,610.059,150.992,645.793,136.663z"/>
	<path fill="#66ACD7" d="M365.528,357.189l-86.896,26.799c-25.1,7.699-41.999,30.799-41.999,56.797v154.496H633.52V440.785
		c0-26.199-17-49.197-42-56.896l-86.896-26.699"/>
	<path fill="#8BD2F5" d="M561.622,383.988l-86.896-26.799H365.528l-86.896,26.799c-25.1,7.699-41.999,30.799-41.999,56.797v154.496
		h367.089V440.785C603.62,414.687,586.622,391.687,561.622,383.988z"/>
	<path fill="#66ACD7" d="M583.821,515.882h69.398v39.699h-69.398V515.882L583.821,515.882z"/>
	<path fill="#66ACD7" d="M216.733,515.882h69.398v39.699h-69.398V515.882z"/>
	<path fill="#EFBE9A" d="M583.821,555.582h49.598v39.699h-49.598V555.582z"/>
	<path fill="#EFBE9A" d="M236.533,555.582h49.599v39.699h-49.599V555.582z"/>
	<path fill="#FFFFFF" d="M286.131,496.083h297.59v99.197h-297.59V496.083z"/>
	<path fill="#FFFFFF" d="M544.122,367.087l-39.697-9.898v178.594h39.697V367.087z"/>
	<path fill="#FFFFFF" d="M325.83,367.087l39.698-9.898v178.594H325.83V367.087z"/>
	<path fill="#EFBE9A" d="M543.471,248.647h19.801c21.998,0,39.697-17.699,39.697-39.699c0-21.999-17.699-39.699-39.697-39.699
		h-19.801"/>
	<path fill="#DB9B7C" d="M305.379,149.45v99.197c0,71.199,57.798,128.998,128.996,128.998c71.197,0,128.996-57.799,128.996-128.998
		V149.45C552.512,40.245,434.276,43.655,434.276,43.655C304.319,45.655,305.379,149.45,305.379,149.45"/>
	<path fill="#DB9B7C" d="M325.18,248.647h-19.8c-21.899,0-39.698-17.699-39.698-39.699c0-21.999,17.698-39.699,39.698-39.699h19.8"
		/>
	<path fill="#EFBE9A" d="M434.276,43.655c-125.957,0-128.896,105.795-128.896,105.795v99.197
		c0,66.298,49.798,120.697,114.096,128.095c64.199-7.398,114.098-61.896,114.098-128.095V149.45
		C528.917,49.245,434.276,43.655,434.276,43.655z"/>
	<g>
		<circle fill="#FFFFFF" cx="388.872" cy="214.494" r="33.076"/>
		<circle fill="#2FA8CC" cx="388.872" cy="197.955" r="16.537"/>
		<circle fill="#2C2F38" cx="388.872" cy="192.443" r="5.513"/>
		<circle fill="#FFFFFF" cx="477.074" cy="214.494" r="33.076"/>
		<circle fill="#2FA8CC" cx="477.074" cy="231.031" r="16.538"/>
		<circle fill="#2C2F38" cx="477.074" cy="236.543" r="5.513"/>
	</g>
	<path fill="#F05754" d="M399.266,308.419l23.099,6.837l0,0l-5.698,19.249c-1.888,6.378-8.588,10.018-14.967,8.13l0,0
		c-6.379-1.889-10.019-8.589-8.131-14.967L399.266,308.419L399.266,308.419z"/>
	<rect x="448.445" y="311.473" fill="#FFFFFF" width="13.667" height="14.304"/>
	<path fill="#363B51" d="M435.075,320.745c-14.199,0-27.398-2.898-37.398-8.299c-4.299-2.201-5.799-7.602-3.6-11.701
		c2.199-4.3,7.6-5.8,11.699-3.599c7.4,3.999,18,6.2,29.199,6.2c11.201,0,21.902-2.201,29.201-6.2
		c4.301-2.301,9.5-0.701,11.699,3.599c2.199,4.302,0.699,9.5-3.602,11.701C462.674,317.844,449.276,320.745,435.075,320.745z"/>
	<path fill="#59474E" d="M519.666,177.728c4.256-28.859-1.057-58.32-15.113-83.876c0.523,8.039,1.833,67.45-67.626,86.146
		c11.244-16.592,19.195-35.192,23.416-54.781c2.682-14.189-6.64-27.872-20.838-30.562c-1.626-0.306-3.287-0.463-4.938-0.454h-0.35
		c-14.415-0.07-26.166,11.559-26.236,25.975c-0.009,1.687,0.148,3.382,0.463,5.042c4.167,19.597,12.091,38.198,23.329,54.781
		c-69.372-18.697-68.062-78.109-67.537-86.146c-14.058,25.556-19.37,55.017-15.114,83.876
		c-50.326-29.356-28.482-80.031-22.804-91.214c11.034-15.691,23.913-30.003,38.355-42.637c18.879-17.885,43.57-28.369,69.544-29.531
		c40.278,0,77.673,30.055,108.689,73.129c0.087,0.087,0.087,0.087,0.087,0.175C549.373,100.842,568.417,149.245,519.666,177.728z"/>
	<path fill-rule="evenodd" clip-rule="evenodd" fill="#8BD2F5" d="M628.492-98.159c1.418,2.584,1.087,4.912-0.732,7.249
		c-1.774,2.278-3.298,4.751-4.928,7.143c-1.37,2.01-3.344,2.969-5.554,2.039c-1.846-0.777-2.463,0.051-3.308,1.295
		c-6.926,10.188-13.885,20.355-20.833,30.528c-14.265,20.886-28.515,41.783-42.823,62.639c-1.128,1.644-1.6,3.129-1.178,5.164
		c6.308,30.418,12.644,60.832,18.714,91.298c1.69,8.49,2.537,17.146,3.632,24.75c-56.84-38.82-115.013-78.55-172.943-118.115
		c7.613-1.664,15.389-3.363,23.467-5.128c-1.09-5.712-2.278-11.639-3.341-17.587c-1.791-10.018-0.221-19.326,6.2-27.487
		c3.643-4.631,8.348-7.699,14.17-8.837c8.426-1.648,16.839-3.407,25.318-4.733c11.006-1.723,19.395,2.987,25.878,11.555
		c3.258,4.306,5.224,9.23,6.205,14.546c1.183,6.413,2.386,12.823,3.65,19.61c6.059-1.047,11.907-2.024,17.734-3.12
		c0.595-0.112,1.16-0.872,1.559-1.455c21.652-31.664,43.283-63.342,64.913-95.022c0.258-0.378,0.46-0.793,0.667-1.153
		c-3.029-3.738-3.063-4.924-0.329-8.944c1.208-1.775,2.548-3.474,3.602-5.335c1.461-2.583,3.521-3.968,6.496-3.959
		C605.983-113.532,617.237-105.846,628.492-98.159z M440.66,8.007c13.603-2.339,27.237-4.683,40.709-7
		c-1.289-7.391-2.329-14.575-3.9-21.64c-0.514-2.312-2.203-4.479-3.728-6.418c-1.79-2.277-4.302-2.986-7.269-2.391
		c-7.581,1.522-15.182,2.951-22.796,4.297c-2.879,0.509-4.918,2.079-5.728,4.699c-0.782,2.526-1.542,5.347-1.185,7.881
		C437.722-5.758,439.282,0.964,440.66,8.007z"/>
	<circle fill="#F0C419" cx="345.679" cy="506.18" r="29.945"/>
	<circle fill="#F0C419" cx="522.09" cy="506.18" r="29.945"/>
</g>
</svg>
