<?xml version="1.0" encoding="utf-8"?>
<!-- Generator: Adobe Illustrator 23.0.1, SVG Export Plug-In . SVG Version: 6.00 Build 0)  -->
<svg version="1.1" id="Calque_1" xmlns="http://www.w3.org/2000/svg" xmlns:xlink="http://www.w3.org/1999/xlink" x="0px" y="0px"
	 viewBox="0 0 374.4 581.5" style="enable-background:new 0 0 374.4 581.5;" xml:space="preserve">
<style type="text/css">
	.st0{fill:#6C2C91;}
	.st1{fill:#C26375;}
	.st2{fill:#D18A97;}
	.st3{fill:#361649;}
	.st4{fill:#F9C295;}
	.st5{fill:#E59F6A;}
	.st6{fill:#B1BFC4;}
	.st7{fill:#BFEA92;}
	.st8{fill:#363B51;}
	.st9{fill:#5AAAE7;}
	.st10{fill:#E8BF13;}
	.st11{fill:#FFD422;}
	.st12{fill:#A7D9F2;}
	.st13{fill:#FFFFFF;}
	.st14{fill:#ED539D;}
</style>
<path class="st0" d="M-214.2,287.5"/>
<path class="st1" d="M30.7,170.4c-2.6,21-3.8,42.9-3.8,65.5c0,164.7,71.9,298.2,160.6,298.2c88.7,0,160.6-133.5,160.6-298.2
	c0-22.4-1.4-44.4-3.8-65.5L30.7,170.4L30.7,170.4z"/>
<path class="st2" d="M344.1,170.4h-26.6c2.3,21,3.6,42.9,3.6,65.5c0,160.3-62.4,291.1-140.7,297.9c2.3,0.2,4.6,0.3,7,0.3
	c88.7,0,160.6-133.5,160.6-298.2C347.9,213.3,346.6,191.5,344.1,170.4z"/>
<path class="st0" d="M343.2,581.5H31.5c-2.7,0-4.9-2.2-4.9-4.9v-95.2c0-25.6,15.8-48.4,39.8-57.3l120.9-45.2l120.9,45.2
	c24,9,39.8,31.7,39.8,57.3v95.2C348.1,579.3,345.9,581.5,343.2,581.5z"/>
<g>
	<path class="st3" d="M308.4,424.1l-120.9-45.2l-14.3,5.3l106.7,39.9c24,9,39.8,31.7,39.8,57.3v95.2c0,2.7-2.2,4.9-4.9,4.9h28.5
		c2.7,0,4.9-2.2,4.9-4.9v-95.2C348.1,456,332.2,433.1,308.4,424.1z"/>
	<path class="st3" d="M94.8,581.5v-58.1c0-5-4.1-9-9-9c-5,0-9,4.1-9,9v58.1H94.8z"/>
	<path class="st3" d="M297.9,581.5v-58.1c0-5-4.1-9-9-9c-5,0-9,4.1-9,9v58.1H297.9z"/>
</g>
<path class="st4" d="M139.4,326.9v70.6c0,26.5,21.5,47.9,47.9,47.9c26.5,0,47.9-21.5,47.9-47.9v-70.6L139.4,326.9L139.4,326.9z"/>
<path class="st5" d="M139.4,376.9c18.1,10.9,38.7,17.2,60.7,17.2c12.2,0,24-2,35.1-5.5V327h-95.8L139.4,376.9L139.4,376.9z"/>
<path class="st4" d="M301.2,289.5c-21.5,46-64.4,77.4-113.8,77.4c-48.9,0-91.5-30.8-113.1-76.2c19.3-22.8,25.8-53,27.8-91.6h61.9
	C319.6,195.2,224.1,269.8,301.2,289.5z"/>
<path class="st6" d="M263.4,581.5c-9.2-47.3-44.2-111.7-76-136.1c-31.9,24.4-66.9,88.8-76,136.1H263.4z"/>
<path class="st7" d="M207,445.4c0,10.8-8.8,19.6-19.6,19.6s-19.6-8.8-19.6-19.6c0-10.8,8.8-19.7,19.6-19.7
	C198.3,425.7,207,434.5,207,445.4z"/>
<path class="st8" d="M129.6,248.8c-4.8,0-8.7-4-8.7-8.7v-2.3c0-4.8,4-8.7,8.7-8.7c4.8,0,8.7,4,8.7,8.7v2.3
	C138.3,244.8,134.3,248.8,129.6,248.8z"/>
<path class="st8" d="M237.2,248.9c-4.8,0-8.7-4-8.7-8.7v-2.3c0-4.8,4-8.7,8.7-8.7c4.8,0,8.7,4,8.7,8.7v2.3
	C246,244.9,242,248.9,237.2,248.9z"/>
<path class="st8" d="M187.3,309.5c-14.2,0-27.4-2.9-37.4-8.3c-4.3-2.2-5.8-7.6-3.6-11.7c2.2-4.3,7.6-5.8,11.7-3.6
	c7.4,4,18,6.2,29.2,6.2s21.9-2.2,29.2-6.2c4.3-2.3,9.5-0.7,11.7,3.6c2.2,4.3,0.7,9.5-3.6,11.7C214.9,306.6,201.5,309.5,187.3,309.5z
	"/>
<path class="st9" d="M265,466c0,26.7-13.7,50.3-34.4,64.1h-85c-20.8-13.7-34.4-37.3-34.4-64.1c0-9.1,1.6-17.8,4.5-25.8
	c10.6-29.8,38.9-51.1,72.4-51.1s61.8,21.3,72.4,51.1C263.5,448.2,265,456.9,265,466z"/>
<path class="st10" d="M245.8,542.9v12.8H130.5v-12.8c0-7.1,5.7-12.8,12.8-12.8H233C240,530,245.8,535.8,245.8,542.9z"/>
<path class="st11" d="M258.6,581.3H117.7v-12.8c0-7.1,5.7-12.8,12.8-12.8h115.3c7.1,0,12.8,5.7,12.8,12.8V581.3z"/>
<path class="st12" d="M233,453.1c0,9.8-2.4,19-6.8,27.1c-1.8-0.9-3.9-1.5-6.1-1.5c-7.1,0-12.8,5.7-12.8,12.8c0,2.8,0.9,5.5,2.6,7.6
	c-9.6,7.3-21.6,11.6-34.6,11.6c-31.8,0-57.6-25.8-57.6-57.6c0-31.8,25.8-57.6,57.6-57.6C207.1,395.5,233,421.3,233,453.1z"/>
<path class="st13" d="M233,491.6c0,7.1-5.7,12.8-12.8,12.8c-4.3,0-7.9-2-10.2-5.2c-1.6-2.1-2.6-4.8-2.6-7.6
	c0-7.1,5.7-12.8,12.8-12.8c2.2,0,4.2,0.5,6.1,1.5C230.3,482.5,233,486.7,233,491.6z"/>
<path class="st13" d="M156.1,421.2c0,7.1-5.7,12.8-12.8,12.8s-12.8-5.7-12.8-12.8s5.7-12.8,12.8-12.8S156.1,414,156.1,421.2z"/>
<path class="st0" d="M374.4,124.8L347,207.3c-1.1-0.2-18.2-4.5-19.4-4.5l-20.2-4.5l-120.1-26.8L67,198.3l-20.2,4.5
	c-1.1,0-17.9,4.3-19,4.5L0,124.8l31.2-62.3L78,46.8L140.3,0H234l62.3,46.8l46.8,15.7L374.4,124.8z"/>
<path class="st11" d="M89.1,35.7c-6-6-16.1-6-22.1,0c-6,6-6,16,0,22.1l78,78c3,3,7,4.5,11,4.5c4,0,7.9-1.5,11-4.5c6-6,6-16.1,0-22.1
	L89.1,35.7z"/>
<path class="st11" d="M307.4,35.7c-6-6-16-6-22.1,0l-78,78c-6,6-6,15.9,0,22.1c3,3,7,4.5,11,4.5s7.9-1.5,11-4.5l78-78
	C313.6,51.7,313.6,41.9,307.4,35.7z"/>
<path class="st14" d="M218.5,124.8c0-25.9-14-46.8-31.2-46.8c-17.2,0-31.2,21-31.2,46.8s14,46.8,31.2,46.8
	C204.5,171.6,218.5,150.5,218.5,124.8z"/>
</svg>
