<?xml version="1.0" encoding="utf-8"?>
<!-- Generator: Adobe Illustrator 23.0.1, SVG Export Plug-In . SVG Version: 6.00 Build 0)  -->
<svg version="1.1" id="Layer_1" xmlns="http://www.w3.org/2000/svg" xmlns:xlink="http://www.w3.org/1999/xlink" x="0px" y="0px"
	 viewBox="0 0 566 595.3" style="enable-background:new 0 0 566 595.3;" xml:space="preserve">
<style type="text/css">
	.st0{fill:#FFCD9B;}
	.st1{fill:#FFDEB7;}
	.st2{fill:#FF8C46;}
	.st3{fill:#FFA54B;}
	.st4{fill:#FFB76F;}
	.st5{fill:#464655;}
	.st6{fill:#263138;}
	.st7{fill:#6AD1A2;}
	.st8{fill:#FFFFFF;}
</style>
<g>
	<path class="st0" d="M234.2,563.9c0,17.3,21.8,31.4,48.8,31.4s48.8-14,48.8-31.4H234.2L234.2,563.9z"/>
	<path class="st1" d="M497.7,382.7H283H68.3c0,0-39,39-39,78.1c0,0,136.6-78.1,165.9,48.8c5.9,25.7,9.8,87.8,87.8,58.6
		c78.1,29.3,81.9-32.8,87.8-58.6c29.3-126.9,165.9-48.8,165.9-48.8C536.7,421.7,497.7,382.7,497.7,382.7z"/>
	<path class="st2" d="M332.5,185.4c0,0,146.4-185.4,195.2-185.4c29.3,0-19.5,234.2-48.8,312.3L332.5,185.4z"/>
	<path class="st3" d="M527.7,0c-97.6,68.3-136.6,234.2-136.6,234.2l-3.4-1l-55.2-47.8C332.5,185.4,478.9,0,527.7,0z"/>
	<path class="st2" d="M223.7,185.4C223.7,185.4,77.3,0,28.5,0C-0.7,0,48.1,234.2,77.3,312.3L223.7,185.4z"/>
	<g>
		<path class="st3" d="M28.5,0c97.6,68.3,136.6,234.2,136.6,234.2l3.4-1l55.2-47.8C223.7,185.4,77.3,0,28.5,0z"/>
		<path class="st3" d="M0,448.9c0,0,107.3-68.3,185.4-19.5c41.4,25.9,29.3,97.2,97.6,97.2s56.2-71.3,97.6-97.2
			c78.1-48.8,185.4,19.5,185.4,19.5c-48.8-175.7-172.6-292.8-283-292.8S48.8,273.2,0,448.9z"/>
	</g>
	<path class="st4" d="M283,156.1c-110.4,0-234.2,117.1-283,292.8c0,0,107.3-68.3,185.4-19.5c41.4,25.9,29.3,97.2,97.6,97.2"/>
	<path class="st5" d="M317.2,521.1c0,11.8-15.3,29.9-34.2,29.9c-18.9,0-34.2-18.1-34.2-29.9c0-11.8,15.3-21.3,34.2-21.3
		C301.9,499.7,317.2,509.3,317.2,521.1z"/>
</g>
<path class="st6" d="M330.5,409.3c0,0,46.3-8,69.5-41.2c0,0-22.1-24.3-49.7-3.8C331.8,378.1,330.5,409.3,330.5,409.3z"/>
<ellipse class="st7" cx="363.6" cy="376.5" rx="13.6" ry="13.8"/>
<ellipse class="st8" cx="360.2" cy="374.5" rx="5.1" ry="5.2"/>
<path class="st6" d="M235.5,409.3c0,0-46.3-8-69.5-41.2c0,0,22.1-24.3,49.7-3.8C234.2,378.1,235.5,409.3,235.5,409.3z"/>
<ellipse class="st7" cx="202.4" cy="376.5" rx="13.6" ry="13.8"/>
<ellipse class="st8" cx="198.9" cy="374.5" rx="5.1" ry="5.2"/>
</svg>
