<?xml version="1.0" encoding="utf-8"?>
<!-- Generator: Adobe Illustrator 23.0.1, SVG Export Plug-In . SVG Version: 6.00 Build 0)  -->
<svg version="1.1" id="Layer_1" xmlns="http://www.w3.org/2000/svg" xmlns:xlink="http://www.w3.org/1999/xlink" x="0px" y="0px"
	 viewBox="0 0 469.8 555.5" style="enable-background:new 0 0 469.8 555.5;" xml:space="preserve">
<style type="text/css">
	.st0{fill:#615D5F;}
	.st1{opacity:0.12;fill:#FFFFFF;enable-background:new    ;}
	.st2{fill:#383637;}
	.st3{stroke:#000000;stroke-width:0.9652;stroke-miterlimit:10;}
	.st4{fill:#FFFFFF;}
	.st5{fill:#3A3537;}
	.st6{fill:#B0AEAF;}
	.st7{fill:#0E0D0E;}
	.st8{opacity:0.8;fill:#2C2829;enable-background:new    ;}
</style>
<path class="st0" d="M234.9,483.8c95.9,5.3,134.9-14.2,134.9-14.2c145.4-62.8,89.4-253.5,89.4-253.5L402,21.8
	c-35.7,25.6-127.7,63.5-167.1,63.5l0,0c-39.4,0-131.4-37.9-167.1-63.5L10.6,216.1c0,0-56,190.7,89.4,253.5
	C100,469.5,139,489.1,234.9,483.8L234.9,483.8z"/>
<path class="st1" d="M234.9,85.4L234.9,85.4c-39.4,0-131.4-37.9-167.1-63.5L10.6,216.1c0,0-56,190.7,89.4,253.5
	c0,0,38.8,19.5,134.9,14.2l0,0L234.9,85.4L234.9,85.4z"/>
<path class="st2" d="M288.3,356.7c0,0,56.2-14.6,78-46.2c0,0-25.2-29-56.2-5.9C289.3,319.9,288.3,356.7,288.3,356.7z"/>
<ellipse class="st3" cx="325.3" cy="319.9" rx="15.2" ry="15.5"/>
<ellipse class="st4" cx="321.5" cy="317.6" rx="5.7" ry="5.8"/>
<path class="st2" d="M181.5,356.7c0,0-55.9-12-78-46.2c0,0,24.1-29,55-5.9C179.3,319.9,181.5,356.7,181.5,356.7z"/>
<ellipse class="st3" cx="144.4" cy="319.9" rx="15.2" ry="15.5"/>
<ellipse class="st4" cx="140.6" cy="317.6" rx="5.7" ry="5.8"/>
<g>
	<g>
		<g>
			<path class="st5" d="M44.8,15.1c8-4.1,39.5-30.8,62.9,4.8c19.6,29.9,33,86.6,30.9,111.6C135.4,170,65.5,227,18.1,235.9
				C-11,157,12.7,31.5,44.8,15.1z"/>
		</g>
	</g>
</g>
<g>
	<g>
		<g>
			<path class="st6" d="M62.2,29c10.7-6.7,23.6-1.6,35.7,12.1c14.3,21.7,24.1,62.9,22.4,81.2c-2.3,28.1-53.1,69.5-87.7,75.9
				C11.5,140.9,38.9,40.9,62.2,29z"/>
		</g>
	</g>
</g>
<g>
	<g>
		<g>
			<path class="st5" d="M426.4,10.6c-8-4.1-40.8-26.4-64.2,9.2c-19.6,29.9-33,86.6-30.9,111.6c3.3,38.6,73.1,95.6,120.6,104.4
				C480.8,157,465.2,33.1,426.4,10.6z"/>
		</g>
	</g>
</g>
<g>
	<g>
		<g>
			<path class="st6" d="M412.9,36.5c-5.8-2.9-24-21.2-41,4.8c-14.3,21.7-24.1,62.9-22.4,81.2c2.4,28.1,53.1,69.5,87.7,75.9
				C458.2,140.9,437.5,62.3,412.9,36.5z"/>
		</g>
	</g>
</g>
<path d="M234.6,495.5l-50.7,36.3c0,0,8.2,23.7,50.7,23.7c42.5,0,50.7-23.7,50.7-23.7L234.6,495.5z"/>
<path class="st5" d="M333.1,489.8c-6.1,2.9-12.2,7.1-14.3,12.9c-4.8,12.8-23.7,34.1-48.5,43.9c0,0,7.9-9.3,9.5-15.9
	c0,0-17.1,14.6-46,12.1c-29.1,2.6-46-12.1-46-12.1c1.6,6.6,9.5,15.9,9.5,15.9c-24.8-9.9-43.7-31-48.5-43.9
	c-2.2-5.9-8.6-10.2-14.8-13.2c-8.8-1.8-21.4-12.3-21.4-12.3c-13.1-15-36.9-50.6-6.1-85.9c0,0,19.3-16.2,40-12.8s38-4.5,45.7-17.9
	c6.4-11.3,21.5-23.4,35.1-25.3h15.5c13.6,2.1,28.7,14.2,35.1,25.3c7.7,13.5,24.9,21.3,45.7,17.9c20.7-3.4,40,12.8,40,12.8
	c30.4,34.9,6.6,69.9-7.1,85.2C356.5,476.5,344.9,486.8,333.1,489.8z"/>
<path class="st7" d="M233.6,454.6c-27,0-48.1,5.8-58.4,19.1c0,0,31.3,47.1,58.4,47.1s58.4-47.1,58.4-47.1
	C281.7,460.4,260.7,454.6,233.6,454.6z"/>
<path class="st8" d="M233.6,464.6c24.4,0,44.6,2.9,58.2,9.3c0.1-0.1,0.1-0.2,0.1-0.2c-10.2-13.3-31.4-19.1-58.4-19.1
	s-48.1,5.8-58.4,19.1c0,0,0,0.1,0.1,0.2C189,467.5,209.3,464.6,233.6,464.6z"/>
<path d="M194.6,496.2c0,0,12.1,3.5,16.4,0c0,0-3.5-11.2,4.2-11.2c0,0,10.5,1,5.6,12.8c0,0-7.7,4.8-21.1,4.1L194.6,496.2z"/>
<path d="M274.1,496.2c0,0-12.1,3.5-16.4,0c0,0,3.5-11.2-4.2-11.2c0,0-10.5,1-5.6,12.8c0,0,7.7,4.8,21.1,4.1L274.1,496.2z"/>
</svg>
