<?xml version="1.0" encoding="utf-8"?>
<!-- Generator: Adobe Illustrator 23.0.1, SVG Export Plug-In . SVG Version: 6.00 Build 0)  -->
<svg version="1.1" id="Capa_1" xmlns="http://www.w3.org/2000/svg" xmlns:xlink="http://www.w3.org/1999/xlink" x="0px" y="0px"
	 viewBox="0 0 493.4 550" style="enable-background:new 0 0 493.4 550;" xml:space="preserve">
<style type="text/css">
	.st0{fill:#3F1210;}
	.st1{fill:#1E0000;}
	.st2{clip-path:url(#SVGID_2_);fill:#6E4225;}
	.st3{clip-path:url(#SVGID_2_);fill:#975D39;}
	.st4{clip-path:url(#SVGID_2_);fill:#1E385C;}
	.st5{clip-path:url(#SVGID_2_);}
	.st6{fill:#00102E;}
	.st7{fill:#361649;}
	.st8{clip-path:url(#SVGID_2_);fill:#F9C295;}
	.st9{clip-path:url(#SVGID_2_);fill:#E59F6A;}
	.st10{clip-path:url(#SVGID_2_);fill:#363B51;}
</style>
<g>
	<path class="st0" d="M247,550h185.7c4.9,0,0-104.1,0-109l-4.4-34c-5-43.5-28.1-48.7-51.8-56c0,0,41.8,43,86.8,7
		c25.8-22.8,36.6-43.2,26.1-76.1l-33.2-105c-22.6-71.8-74-131.5-141.2-163.7c-8.9-4.2-16-7.1-21.9-8.7C281.7,1.5,264.3,0,247,0h-0.6
		c-17.3,0-34.7,1.5-46.1,4.6c-5.9,1.6-13,4.4-21.9,8.7C111.2,45.4,59.8,105.1,37.1,176.8L4,281.9c-10.5,32.9,0.3,53.3,26.1,76.1
		c45,36,86.8-7,86.8-7c-23.7,7.3-46.8,12.5-51.8,56l-4.4,34c0,4.9-4.9,109,0,109h185.7H247z"/>
	<path class="st1" d="M428.9,295.5l-181,187.8l-181-187.8c-4.6-4.7-5.9-12.2-3.3-18.5c0,0,0-0.1,0.1-0.1
		c5.9-14.8,17.3-42.7,30.4-69.1c5.1-10.2,10.4-20.1,15.8-29c8.9-14.7,17.9-26.6,26-31.7c49-31.2,175.2-31.2,224.3,0
		c8.1,5.2,17.1,17,26,31.7c5.4,8.9,10.7,18.8,15.8,29c13.2,26.3,24.5,54.3,30.4,69.1c0,0,0,0.1,0.1,0.1
		C434.8,283.3,433.4,290.8,428.9,295.5z"/>
	<g>
		<defs>
			<path id="SVGID_1_" d="M427.6,295.5l-181,187.8l-181-187.8c-4.6-4.7-5.9-12.2-3.3-18.5c0,0,0-0.1,0.1-0.1
				c5.9-14.8,17.3-42.7,30.4-69.1c5.1-10.2,10.4-20.1,15.8-29c8.9-14.7,17.9-26.6,26-31.7c49-31.2,175.2-31.2,224.3,0
				c8.1,5.2,17.1,17,26,31.7c5.4,8.9,10.7,18.8,15.8,29c13.2,26.3,24.5,54.3,30.4,69.1c0,0,0,0.1,0.1,0.1
				C433.5,283.4,432.1,290.8,427.6,295.5z"/>
		</defs>
		<clipPath id="SVGID_2_">
			<use xlink:href="#SVGID_1_"  style="overflow:visible;"/>
		</clipPath>
		<path class="st2" d="M65.8,121.5c-3,24.4,27.5,32.3,27.5,58.5c0,191.3,51.6,364,154.7,364s163.3-156.7,163.3-348
			c0-26,21.7-50,18.9-74.6L65.8,121.5L65.8,121.5z"/>
		<path class="st3" d="M408.9,121.5H378c2.7,24.4,12.3,53.3,12.3,79.5c0,186.2-80.6,334.8-171.5,342.7c2.7,0.2,5.3,0.3,8.1,0.3
			c103.1,0,186.6-155.1,186.6-346.5C413.3,171.3,411.8,146,408.9,121.5z"/>
		<path class="st4" d="M403.8,549.5H92.1c-2.7,0-4.9-2.2-4.9-4.9v-95.2c0-25.6,15.8-48.4,39.8-57.3l120.9-45.2l120.9,45.2
			c24,9,39.8,31.7,39.8,57.3v95.2C408.7,547.3,406.5,549.5,403.8,549.5z"/>
		<g class="st5">
			<path class="st6" d="M369,392.1l-120.9-45.2l-14.3,5.3l106.7,39.9c24,9,39.8,31.7,39.8,57.3v95.2c0,2.7-2.2,4.9-4.9,4.9h28.5
				c2.7,0,4.9-2.2,4.9-4.9v-95.2C408.7,424,392.8,401.1,369,392.1z"/>
			<path class="st7" d="M155.4,549.5v-58.1c0-5-4.1-9-9-9c-5,0-9,4.1-9,9v58.1H155.4z"/>
			<path class="st7" d="M358.5,549.5v-58.1c0-5-4.1-9-9-9c-5,0-9,4.1-9,9v58.1H358.5z"/>
		</g>
		<path class="st8" d="M200,294.9v70.6c0,26.5,21.5,47.9,47.9,47.9c26.5,0,47.9-21.5,47.9-47.9v-70.6H200L200,294.9z"/>
		<path class="st9" d="M200,344.9c18.1,10.9,38.7,17.2,60.7,17.2c12.2,0,24-2,35.1-5.5V295H200L200,344.9L200,344.9z"/>
		<path class="st8" d="M380.1,259.8c-25,53.4-74.8,89.9-132.2,89.9c-56.8,0-106.3-35.8-131.4-88.5c22.4-26.5,30-61.6,32.3-106.4
			h71.9C401.5,150.3,290.5,236.9,380.1,259.8z"/>
		<path class="st10" d="M188,222.4c-4.8,0-8.7-4-8.7-8.7v-2.3c0-4.8,4-8.7,8.7-8.7c4.8,0,8.7,4,8.7,8.7v2.3
			C196.8,218.5,192.8,222.4,188,222.4z"/>
		<path class="st10" d="M302,222.4c-4.8,0-8.7-4-8.7-8.7v-2.3c0-4.8,4-8.7,8.7-8.7c4.8,0,8.7,4,8.7,8.7v2.3
			C310.8,218.5,306.8,222.4,302,222.4z"/>
		<path class="st10" d="M245.8,303.3c-14.2,0-27.4-2.9-37.4-8.3c-4.3-2.2-5.8-7.6-3.6-11.7c2.2-4.3,7.6-5.8,11.7-3.6
			c7.4,4,18,6.2,29.2,6.2s21.9-2.2,29.2-6.2c4.3-2.3,9.5-0.7,11.7,3.6c2.2,4.3,0.7,9.5-3.6,11.7C273.4,300.4,260,303.3,245.8,303.3z
			"/>
	</g>
</g>
</svg>
