<?xml version="1.0" encoding="utf-8"?>
<!-- Generator: Adobe Illustrator 16.0.0, SVG Export Plug-In . SVG Version: 6.00 Build 0)  -->
<!DOCTYPE svg PUBLIC "-//W3C//DTD SVG 1.1//EN" "http://www.w3.org/Graphics/SVG/1.1/DTD/svg11.dtd">
<svg version="1.1" id="Calque_1" xmlns="http://www.w3.org/2000/svg" xmlns:xlink="http://www.w3.org/1999/xlink" x="0px" y="0px"
	 width="396.889px" height="546.524px" viewBox="1 89.864 396.889 546.524" enable-background="new 1 89.864 396.889 546.524"
	 xml:space="preserve">
<g>
	<path fill="#00837B" d="M129.896,398.297l-86.897,26.799C17.9,432.795,1,455.895,1,481.893v154.496h396.889V481.893
		c0-26.199-17-49.197-42-56.896l-86.896-26.698"/>
	<path fill="#4ABEA5" d="M325.99,425.096l-86.896-26.799H129.896l-86.897,26.799C17.9,432.795,1,455.895,1,481.893v154.496h367.089
		V481.893C367.988,455.795,350.99,432.795,325.99,425.096z"/>
	<circle fill="#F5EC3B" cx="290.926" cy="517.441" r="43.333"/>
	<path fill="#EFBE9A" d="M307.24,294.868h19.801c21.998,0,39.697-17.699,39.697-39.699c0-21.999-17.699-39.699-39.697-39.699H307.24
		"/>
	<path fill="#DB9B7C" d="M69.148,195.671v99.197c0,71.198,57.798,128.997,128.996,128.997c71.198,0,128.997-57.799,128.997-128.997
		v-99.197C316.281,86.466,198.044,89.876,198.044,89.876C68.088,91.876,69.148,195.671,69.148,195.671"/>
	<path fill="#DB9B7C" d="M88.948,294.868H69.149c-21.899,0-39.699-17.699-39.699-39.699c0-21.999,17.699-39.699,39.699-39.699
		h19.799"/>
	<path fill="#EFBE9A" d="M198.044,89.876c-125.956,0-128.896,105.795-128.896,105.795v99.197
		c0,66.298,49.798,120.696,114.095,128.095c64.199-7.398,114.098-61.896,114.098-128.095v-99.197
		C292.684,95.466,198.044,89.876,198.044,89.876z"/>
	<path fill="#F5EC3B" d="M141.046,286.068c-4.8,0-8.7-4-8.7-8.7v-2.3c0-4.8,4-8.7,8.7-8.7c4.801,0,8.7,4,8.7,8.7v2.3
		C149.846,282.168,145.846,286.068,141.046,286.068z"/>
	<path fill="#F5EC3B" d="M255.043,286.068c-4.801,0-8.699-4-8.699-8.7v-2.3c0-4.8,4-8.7,8.699-8.7c4.799,0,8.699,4,8.699,8.7v2.3
		C263.842,282.168,259.842,286.068,255.043,286.068z"/>
	<path fill="#363B51" d="M198.646,342.316c14.199,0,27.398,2.898,37.398,8.299c4.299,2.202,5.799,7.602,3.6,11.701
		c-2.2,4.3-7.6,5.8-11.7,3.6c-7.399-4-18-6.201-29.199-6.201c-11.2,0-21.901,2.201-29.2,6.201c-4.301,2.3-9.5,0.7-11.699-3.6
		c-2.2-4.302-0.7-9.499,3.601-11.701C171.046,345.216,184.444,342.316,198.646,342.316z"/>
	<g>
		<path fill="none" stroke="#72C6A5" stroke-width="5" stroke-miterlimit="10" d="M172.168,185.519c0,0,23.235-32.461,49.842,0
			C222.01,185.519,198.421,217.624,172.168,185.519z"/>
		
			<line fill="none" stroke="#72C6A5" stroke-width="5" stroke-miterlimit="10" x1="163.121" y1="168.621" x2="172.877" y2="173.654"/>
		
			<line fill="none" stroke="#72C6A5" stroke-width="5" stroke-miterlimit="10" x1="177.489" y1="156.605" x2="182.101" y2="167.248"/>
		
			<line fill="none" stroke="#72C6A5" stroke-width="5" stroke-miterlimit="10" x1="197.577" y1="152.158" x2="197.577" y2="163.701"/>
		
			<line fill="none" stroke="#72C6A5" stroke-width="5" stroke-miterlimit="10" x1="217.397" y1="156.605" x2="212.432" y2="167.248"/>
		
			<line fill="none" stroke="#72C6A5" stroke-width="5" stroke-miterlimit="10" x1="231.766" y1="168.621" x2="222.01" y2="173.862"/>
		<circle fill="none" stroke="#72C6A5" stroke-width="5" stroke-miterlimit="10" cx="197.089" cy="185.439" r="10.022"/>
	</g>
	<g>
		<path fill="none" stroke="#72C6A5" stroke-width="5" stroke-miterlimit="10" d="M265.649,526.889c0,0,23.236-32.461,49.843,0
			C315.492,526.889,291.902,558.994,265.649,526.889z"/>
		
			<line fill="none" stroke="#72C6A5" stroke-width="5" stroke-miterlimit="10" x1="256.602" y1="509.991" x2="266.358" y2="515.024"/>
		
			<line fill="none" stroke="#72C6A5" stroke-width="5" stroke-miterlimit="10" x1="270.969" y1="497.976" x2="275.583" y2="508.618"/>
		
			<line fill="none" stroke="#72C6A5" stroke-width="5" stroke-miterlimit="10" x1="291.059" y1="493.528" x2="291.059" y2="505.071"/>
		
			<line fill="none" stroke="#72C6A5" stroke-width="5" stroke-miterlimit="10" x1="310.879" y1="497.976" x2="305.914" y2="508.618"/>
		
			<line fill="none" stroke="#72C6A5" stroke-width="5" stroke-miterlimit="10" x1="325.248" y1="509.991" x2="315.492" y2="515.232"/>
		<circle fill="none" stroke="#72C6A5" stroke-width="5" stroke-miterlimit="10" cx="290.571" cy="526.809" r="10.022"/>
	</g>
	<path fill="#363B51" d="M168.156,264.01c-1.071,4.476-5.568,7.236-10.044,6.165l-43.493-10.41
		c-4.476-1.071-7.236-5.568-6.165-10.044l0,0c1.071-4.476,5.568-7.236,10.044-6.165l43.493,10.41
		C166.468,255.037,169.227,259.533,168.156,264.01L168.156,264.01z"/>
	<path fill="#363B51" d="M226.455,264.01c1.071,4.476,5.568,7.236,10.044,6.165l43.493-10.41c4.476-1.071,7.235-5.568,6.165-10.044
		l0,0c-1.072-4.476-5.568-7.236-10.045-6.165l-43.492,10.41C228.143,255.037,225.384,259.533,226.455,264.01L226.455,264.01z"/>
</g>
</svg>
