<?xml version="1.0" encoding="utf-8"?>
<!-- Generator: Adobe Illustrator 23.0.1, SVG Export Plug-In . SVG Version: 6.00 Build 0)  -->
<svg version="1.1" id="Capa_1" xmlns="http://www.w3.org/2000/svg" xmlns:xlink="http://www.w3.org/1999/xlink" x="0px" y="0px"
	 viewBox="0 0 511.5 580.3" style="enable-background:new 0 0 511.5 580.3;" xml:space="preserve">
<style type="text/css">
	.st0{fill:#58595B;}
	.st1{opacity:0.34;fill:#58595B;enable-background:new    ;}
	.st2{fill:#FFD7A3;}
	.st3{fill:#FDC88E;}
	.st4{fill:#E29E21;}
	.st5{fill:#FFE1B2;}
	.st6{fill:#623F33;}
	.st7{fill:#E4B07B;}
	.st8{fill:#212023;}
	.st9{fill:#9D6E48;}
</style>
<g>
	<path class="st0" d="M148.8,342.2L61.9,369c-25.1,7.7-42,30.8-42,56.8v154.5h396.9V425.8c0-26.2-17-49.2-42-56.9l-86.9-26.7"/>
	<path class="st0" d="M344.9,369L258,342.2H148.8L61.9,369c-25.1,7.7-42,30.8-42,56.8v154.5H387V425.8
		C386.9,399.7,369.9,376.7,344.9,369z"/>
	<path class="st0" d="M139.9,344.9l28.8,76.6l49.6-49.6l-74.9-28L139.9,344.9z"/>
	<path class="st0" d="M293.1,343.9l-74.9,28l49.6,49.6l28.8-76.6L293.1,343.9z"/>
	<path class="st0" d="M367.1,500.9h69.4v39.7h-69.4V500.9L367.1,500.9z"/>
	<path class="st0" d="M0,500.9h69.4v39.7H0V500.9z"/>
	<path class="st0" d="M367.1,540.6h49.6v39.7h-49.6V540.6z"/>
	<path class="st0" d="M19.8,540.6h49.6v39.7H19.8V540.6L19.8,540.6z"/>
	<path class="st0" d="M69.4,481.1H367v99.2H69.4V481.1L69.4,481.1z"/>
	<path class="st0" d="M327.4,352.1l-39.7-9.9v178.6h39.7V352.1z"/>
	<path class="st0" d="M109.1,352.1l39.7-9.9v178.6h-39.7C109.1,520.8,109.1,352.1,109.1,352.1z"/>
	<path class="st0" d="M109.1,233H89.3c-21.9,0-39.7-17.7-39.7-39.7s17.7-39.7,39.7-39.7h19.8"/>
	<path class="st0" d="M327.4,233h19.8c22,0,39.7-17.7,39.7-39.7s-17.7-39.7-39.7-39.7h-19.8"/>
	<path class="st0" d="M89.3,133.8V233c0,71.2,57.8,129,129,129s129-57.8,129-129v-99.2"/>
	<path class="st0" d="M203.4,361.1c64.2-7.4,114.1-61.9,114.1-128.1v-99.2H89.3V233C89.3,299.3,139.1,353.7,203.4,361.1z"/>
	<path class="st0" d="M161.2,224.2c-4.8,0-8.7-4-8.7-8.7v-2.3c0-4.8,4-8.7,8.7-8.7c4.8,0,8.7,4,8.7,8.7v2.3
		C170,220.3,166,224.2,161.2,224.2z"/>
	<path class="st0" d="M275.2,224.2c-4.8,0-8.7-4-8.7-8.7v-2.3c0-4.8,4-8.7,8.7-8.7c4.8,0,8.7,4,8.7,8.7v2.3
		C284,220.3,280,224.2,275.2,224.2z"/>
	<path class="st0" d="M347,221.3c-6.1,39-29.5,72.4-62.1,91.8v-12.6c0-33.3-27-60.3-60.3-60.3h-12.7c-33.3,0-60.3,27-60.3,60.3v12.6
		c-32.6-19.5-56-52.8-62.1-91.8h-1.6v77.5c0,72,58.4,130.3,130.3,130.3s130.3-58.4,130.3-130.3v-77.5L347,221.3L347,221.3z
		 M249.2,320.1c0,10.3-8.3,18.6-18.6,18.6h-24.9c-10.3,0-18.6-8.3-18.6-18.6v-4.4c0-17.1,13.9-31,31-31l0,0c17.1,0,31,13.9,31,31
		L249.2,320.1L249.2,320.1z"/>
	<g>
		<path class="st0" d="M281.4,461.5V480c0,2.7,2.2,4.9,4.9,4.9h51.2c2.7,0,4.9-2.2,4.9-4.9v-18.4c0-2.7-2.2-4.9-4.9-4.9h-51.2
			C283.6,456.6,281.4,458.8,281.4,461.5z"/>
		<path class="st0" d="M92.6,461.5V480c0,2.7,2.2,4.9,4.9,4.9h51.2c2.7,0,4.9-2.2,4.9-4.9v-18.4c0-2.7-2.2-4.9-4.9-4.9H97.6
			C94.8,456.6,92.6,458.8,92.6,461.5z"/>
	</g>
	<g>
		<path class="st0" d="M219.6,516.5c-0.6,0-1.1-0.1-1.7-0.2c-0.6-0.1-1.1-0.3-1.6-0.5s-1-0.5-1.5-0.8s-0.9-0.7-1.3-1.1
			c-0.4-0.4-0.8-0.8-1.1-1.3s-0.6-1-0.8-1.5s-0.4-1.1-0.5-1.6c-0.1-0.6-0.2-1.1-0.2-1.7s0.1-1.1,0.2-1.7c0.1-0.6,0.3-1.1,0.5-1.6
			s0.5-1,0.8-1.5s0.7-0.9,1.1-1.3c0.4-0.4,0.8-0.8,1.3-1.1c0.5-0.3,1-0.6,1.5-0.8c0.5-0.2,1.1-0.4,1.6-0.5c1.1-0.2,2.3-0.2,3.4,0
			c0.5,0.1,1.1,0.3,1.6,0.5s1,0.5,1.5,0.8s0.9,0.7,1.3,1.1c0.4,0.4,0.8,0.9,1.1,1.3c0.3,0.5,0.6,1,0.8,1.5s0.4,1.1,0.5,1.6
			c0.1,0.6,0.2,1.1,0.2,1.7s-0.1,1.1-0.2,1.7c-0.1,0.6-0.3,1.1-0.5,1.6s-0.5,1-0.8,1.5s-0.7,0.9-1.1,1.3c-0.4,0.4-0.9,0.8-1.3,1.1
			c-0.5,0.3-1,0.6-1.5,0.8s-1.1,0.4-1.6,0.5C220.7,516.4,220.1,516.5,219.6,516.5z"/>
		<path class="st0" d="M219.6,560.3c-0.6,0-1.1-0.1-1.7-0.2c-0.5-0.1-1.1-0.3-1.6-0.5s-1-0.5-1.5-0.8s-0.9-0.7-1.3-1.1
			c-0.4-0.4-0.8-0.9-1.1-1.3c-0.3-0.5-0.6-1-0.8-1.5s-0.4-1.1-0.5-1.6c-0.1-0.6-0.2-1.1-0.2-1.7c0-0.6,0.1-1.2,0.2-1.7
			c0.1-0.6,0.3-1.1,0.5-1.6s0.5-1,0.8-1.5s0.7-0.9,1.1-1.3c0.4-0.4,0.8-0.8,1.3-1.1s1-0.6,1.5-0.8s1.1-0.4,1.6-0.5
			c1.1-0.2,2.3-0.2,3.4,0c0.5,0.1,1.1,0.3,1.6,0.5s1,0.5,1.5,0.8s0.9,0.7,1.3,1.1c0.4,0.4,0.8,0.8,1.1,1.3s0.6,1,0.8,1.5
			s0.4,1.1,0.5,1.6c0.1,0.6,0.2,1.1,0.2,1.7c0,0.6-0.1,1.1-0.2,1.7c-0.1,0.6-0.3,1.1-0.5,1.6s-0.5,1-0.8,1.5s-0.7,0.9-1.1,1.3
			c-0.4,0.4-0.9,0.8-1.3,1.1c-0.5,0.3-1,0.6-1.5,0.8s-1.1,0.4-1.6,0.5C220.7,560.3,220.1,560.3,219.6,560.3z"/>
	</g>
	<path class="st0" d="M202.9,96.7h191.7c13,0,23.5,11.8,23.5,26.3v30.8h-398V123c0-14.5,10.5-26.3,23.5-26.3h85.7H202.9z"/>
	<path class="st0" d="M82.8,96.7V26.3C82.8,11.8,93.4,0,106.4,0H330c13,0,23.5,11.8,23.5,26.3v70.4H82.8L82.8,96.7L82.8,96.7z"/>
	<rect x="82.8" y="50" class="st1" width="270.4" height="27.7"/>
</g>
<g>
	<path class="st2" d="M450.2,537.5l-1.3-4.4c-0.7-2.1-2.7-3.5-4.9-3.2l-4.6-34.2c-1.5-11.3-8.5-21-18.5-26l-14.7-7.4
		c-2.3-1.1-4.8-0.1-5.8,2l-29.5-10.8c-5.6-1.9-9.4-7-9.4-13v-22l29.5-12.3c15.3-6.4,25.2-21.3,25.2-37.9v-6.8
		c11.3,0,20.5-9.1,20.5-20.5c0-11.3-9.1-20.5-20.5-20.5v-13.6c0-18.9-15.3-47.8-34.2-47.8H259c-18.9,0-34.2,28.9-34.2,47.8v13.7
		c-11.3,0-20.5,9.1-20.5,20.5c0,11.3,9.1,20.5,20.5,20.5v6.8c0,16.5,9.9,31.5,25.2,37.9l29.5,12.3v22c0,5.9-3.8,11.1-9.4,13
		l-28.8,10.5c-1.1-2-3.6-2.9-5.7-1.9l-13.4,6.7c-11.5,5.7-18.4,15.5-19.8,26.7l-4.6,34c-2.1-0.3-4.3,1-4.9,3.2l-1.3,4.4
		c-0.7,2.3,0.7,4.9,3,5.6l9.7,2.8v20.6c0,7.6,6.2,13.7,13.7,13.7h27.7h150.4h27c7.6,0,13.7-6.2,13.7-13.7v-20.5l10.4-3
		C449.5,542.3,450.8,539.9,450.2,537.5z"/>
	<path class="st3" d="M361.5,417.9h-82v22.6c0,4.9-2.6,9.2-6.6,11.7C330,462.1,361.5,417.9,361.5,417.9z"/>
	<g>
		<g>
			<path class="st4" d="M444.9,536.6l-5.5-41c-1.5-11.3-8.5-21-18.5-26l-14.7-7.4c-2.4-1.2-5.4,0.3-6.2,2.9
				c-9.5,34.8-41.3,60.4-79.2,60.4s-69.7-25.6-79.2-60.4c-0.8-2.7-3.6-4.1-6.2-2.9l-13.4,6.7c-11.5,5.7-18.4,15.5-19.8,26.7
				l-5.6,41.8c18.1,6.3,48.9,15.5,48.9,15.5v27.3h150.4v-27.3L444.9,536.6z"/>
		</g>
	</g>
	<path class="st5" d="M416.2,320.5v-13.7c0-18.9-15.3-47.8-34.2-47.8H259c-18.9,0-34.2,28.9-34.2,47.8v13.7
		c-11.3,0-20.5,9.1-20.5,20.5c0,11.3,9.1,20.5,20.5,20.5v6.8c0,16.5,9.9,31.5,25.2,37.9l44.1,18.4c8.4,3.5,17.3,5.2,26.2,5.2l0,0
		c9.1,0,18-1.8,26.2-5.2l44.2-18.4c15.3-6.4,25.2-21.3,25.2-37.9v-6.8c11.3,0,20.5-9.1,20.5-20.5
		C436.7,329.6,427.4,320.5,416.2,320.5z"/>
	<g>
		<path class="st6" d="M272.6,347.9L272.6,347.9c-3.8,0-6.8-3.1-6.8-6.8v-6.8c0-3.8,3.1-6.8,6.8-6.8l0,0c3.8,0,6.8,3.1,6.8,6.8v6.8
			C279.5,344.8,276.5,347.9,272.6,347.9z"/>
	</g>
	<g>
		<path class="st6" d="M368.3,347.9L368.3,347.9c-3.8,0-6.8-3.1-6.8-6.8v-6.8c0-3.8,3.1-6.8,6.8-6.8l0,0c3.8,0,6.8,3.1,6.8,6.8v6.8
			C375.2,344.8,372.1,347.9,368.3,347.9z"/>
	</g>
	<g>
		<g>
			<path class="st7" d="M320.5,395.9c-12.2,0-23.6-3-31.2-8.2c-3.1-2.1-3.9-6.4-1.8-9.5s6.4-3.9,9.5-1.8c5.4,3.7,14.2,5.8,23.4,5.8
				c9.2,0,18.1-2.3,23.4-5.8c3.1-2.1,7.4-1.3,9.5,1.8c2.1,3.1,1.3,7.4-1.8,9.5C344.1,392.9,332.7,395.9,320.5,395.9z"/>
		</g>
	</g>
	<g>
		<g>
			<g>
				<path class="st8" d="M303.6,539.5c3,5.9,4.4,12.2,3.7,17.2c-0.3,2.1-2.1,3.5-4.2,3.2s-3.5-2.1-3.2-4.2c0.4-3.6-0.7-8.4-3-12.9
					c-2.3-4.5-5.6-8.3-8.6-10c-1.8-1-2.5-3.2-1.5-5s3.2-2.5,5-1.5C296.3,528.8,300.6,533.6,303.6,539.5z"/>
			</g>
		</g>
	</g>
	<g>
		<g>
			<g>
				<path class="st8" d="M220.2,508.1c-6-2.9-11-7-13.5-11.3c-1-1.7-0.4-4.1,1.3-5.1c1.7-1,4.1-0.4,5.1,1.3c1.8,3,5.7,6.2,10.3,8.4
					c4.6,2.2,9.5,3.1,13,2.6c2-0.3,3.9,1,4.3,3.1c0.3,2-1,3.9-3.1,4.3C232.6,512.1,226.2,510.9,220.2,508.1z"/>
			</g>
		</g>
	</g>
	<g>
		<g>
			<g>
				<path class="st8" d="M418.7,481.7c6.4,2.1,11.7,5.6,14.8,9.5c1.3,1.7,1,4-0.7,5.2c-1.7,1.3-4,1-5.2-0.7c-2.2-2.8-6.4-5.4-11.2-7
					c-4.8-1.6-9.7-1.9-13.1-1c-2,0.6-4.1-0.5-4.6-2.5c-0.6-2,0.5-4.1,2.5-4.6C405.9,479.2,412.4,479.6,418.7,481.7z"/>
			</g>
		</g>
	</g>
	<path class="st2" d="M314.6,258.2c-1.2,37-89.7,62.4-89.7,62.4c-11.3,0-20.5,9.1-20.5,20.5c0,11.3,9.1,20.5,20.5,20.5v6.8
		c0,16.5,9.9,31.5,25.2,37.9l44.1,18.4c2.1,0.9,4.4,1.7,6.6,2.3c-19.6-14.3-32.5-26.8-40.1-35c-5.6-5.9-8.5-13.8-8.5-21.8v-38.1
		c19.6-6.8,74.5-29.2,75.1-66.1c0-2.8,0-5.4-0.1-7.7L314.6,258.2L314.6,258.2z"/>
	<path class="st9" d="M340.9,171.1c0.5,35.8,0-43.5,0-43.5c37.2,0,41,49.6,41,49.6c9.5-21.8,30.5-22.6,30.5-22.6
		c-13.1,17.4-3.5,47-3.5,47c33.9-11.3,57.4,9.6,57.4,9.6c-23.5-3.5-29.9,15.7-29.9,15.7c5.8-0.9,22.9,5.2,22.9,5.2
		c0,20-22.9,26.2-22.9,26.2c25,18.4,75.1,13,75.1,13c-8.7,33.1-56.6,30.5-56.6,30.5c10.4,21.8,33.9,25.8,33.9,25.8
		c-30.5,4.1-59.4-1.8-59.4-1.8h0.2c0,0-109.3-19.4-109.3-66.7c0,47.3-109.3,66.7-109.3,66.7s-28.9,5.9-59.4,1.8
		c0,0,23.5-4.1,33.9-25.8c0,0-47.9,2.6-56.6-30.5c0,0,50.1,5.5,75.1-13c0,0-22.9-6.2-22.9-26.2c0,0,17.1-6.1,22.9-5.2
		c0,0-6.4-19.1-29.9-15.7c0,0,23.5-20.9,57.4-9.6c0,0,9.6-29.6-3.5-47c0,0,21.1,0.9,30.5,22.6c0,0,3.7-49.6,41-49.6
		c0,0-22.5,15.7,0,43.5c0,0,21.1-30.9,5.5-60C305.4,111,340.2,126.7,340.9,171.1z"/>
	<path class="st8" d="M273.9,563.8c-4.1,1-6.9,2.2-9.6-1.1c-3-3.7-1.4-10.5,0.2-14.2c3.6-8.5,9.2-13.2,18.2-7.7
		c5,3,10.4,15.9,3.4,20c-6.3,3.7-3.1-3.3-4.5-5.7c-2.3-3.8-6-3-9.9-2.8c-0.3,1-0.3,3,0,3.9c1.7-0.1,3.4,1,5.1,0.8
		C277.4,559.2,276.1,563.3,273.9,563.8z"/>
	<path class="st8" d="M232.2,471.2c4.1-1,6.9-2.2,9.6,1.1c3,3.7,1.4,10.5-0.2,14.2c-3.6,8.5-9.2,13.2-18.2,7.7
		c-5-3-10.4-15.9-3.4-20c6.3-3.7,3.1,3.3,4.5,5.7c2.3,3.8,6,3,9.9,2.8c0.3-1,0.3-3,0-3.9c-1.7,0.1-3.4-1-5.1-0.8
		C228.8,475.9,230.1,471.8,232.2,471.2z"/>
	<path class="st8" d="M343.9,550.6c2.6-1.9,4.3-3.6,7.1-2c3.2,1.7,4.1,7,4,10.2c-0.1,7.1-2.7,12.1-10.7,10.9
		c-4.4-0.7-12.1-8.4-8.3-13.2c3.4-4.4,3.2,1.5,5,2.8c2.7,2.1,5.1,0.3,7.9-0.9c-0.1-0.8-0.7-2.2-1.1-2.8c-1.2,0.5-2.7,0.3-3.8,1
		C342.9,555,342.5,551.7,343.9,550.6z"/>
	<path class="st8" d="M428.1,501.9c2.5,1,4.4,1.5,4.6,4.2c0.2,3-3.2,6-5.4,7.4c-5,3-9.8,3.5-12.4-2.8c-1.5-3.4,0.5-12.3,5.7-11.7
		c4.6,0.4,0.3,2.9,0.2,4.7c-0.3,2.9,2,3.8,4.2,5.2c0.5-0.4,1.2-1.5,1.5-2.1c-1-0.6-1.4-1.7-2.3-2.3
		C424.6,503,426.8,501.4,428.1,501.9z"/>
	<path class="st8" d="M388.9,530.9c1.7,4.5,3.5,7.7,0.1,11.2c-3.7,3.9-11.9,3.1-16.4,1.8c-10.3-3-16.5-8.8-11.6-19.8
		c2.8-6.1,16.9-14.3,22.5-6.8c5.1,6.7-3.4,4.1-6,6.1c-4.1,3.1-2.6,7.3-1.8,11.9c1.1,0.2,3.5-0.1,4.5-0.6c-0.3-2,0.6-4,0.2-6
		C383.1,527.7,387.9,528.6,388.9,530.9z"/>
	
		<ellipse transform="matrix(0.7739 -0.6333 0.6333 0.7739 -282.3367 279.4083)" class="st8" cx="250.1" cy="535.1" rx="5" ry="8.7"/>
	
		<ellipse transform="matrix(0.4871 -0.8733 0.8733 0.4871 -351.1577 449.2149)" class="st8" cx="206.9" cy="523.6" rx="8.7" ry="5"/>
	
		<ellipse transform="matrix(0.7739 -0.6334 0.6334 0.7739 -240.2741 374.9184)" class="st8" cx="404.9" cy="523.9" rx="7" ry="12.4"/>
	
		<ellipse transform="matrix(5.030512e-02 -0.9987 0.9987 5.030512e-02 -237.146 835.7685)" class="st8" cx="320.9" cy="542.6" rx="8.7" ry="5"/>
	
		<ellipse transform="matrix(5.030512e-02 -0.9987 0.9987 5.030512e-02 -289.4327 835.1988)" class="st8" cx="294.4" cy="569.8" rx="5" ry="8.7"/>
	
		<ellipse transform="matrix(0.7739 -0.6333 0.6333 0.7739 -269.7707 359.3101)" class="st8" cx="368.3" cy="557.5" rx="5" ry="8.7"/>
	<ellipse transform="matrix(0.9899 -0.1419 0.1419 0.9899 -67.2751 60.9681)" class="st8" cx="393.9" cy="502.2" rx="8.7" ry="5"/>
	<circle class="st8" cx="265.8" cy="521" r="6.7"/>
	<circle class="st8" cx="320.2" cy="566.6" r="6.7"/>
	<circle class="st8" cx="223.5" cy="523.9" r="6.7"/>
	<circle class="st8" cx="350.6" cy="534.3" r="4.7"/>
	<circle class="st8" cx="250.2" cy="497.2" r="4.7"/>
	<circle class="st8" cx="254.9" cy="573.3" r="4.7"/>
	<circle class="st8" cx="431.5" cy="527.8" r="6.5"/>
	<ellipse class="st8" cx="379.1" cy="573.3" rx="7.4" ry="4.7"/>
	<circle class="st8" cx="407.1" cy="470.2" r="4.7"/>
</g>
</svg>
