<?xml version="1.0" encoding="utf-8"?>
<!-- Generator: Adobe Illustrator 16.0.0, SVG Export Plug-In . SVG Version: 6.00 Build 0)  -->
<!DOCTYPE svg PUBLIC "-//W3C//DTD SVG 1.1//EN" "http://www.w3.org/Graphics/SVG/1.1/DTD/svg11.dtd">
<svg version="1.1" id="Calque_1" xmlns="http://www.w3.org/2000/svg" xmlns:xlink="http://www.w3.org/1999/xlink" x="0px" y="0px"
	 width="466.807px" height="581.392px" viewBox="61.083 5.766 466.807 581.392"
	 enable-background="new 61.083 5.766 466.807 581.392" xml:space="preserve">
<g>
	<path fill="#231F20" d="M294.929,548.529l-148.896-1.071c-67.939,8.582-58.061-36.582-59.061-57.582s9.361-24-17-58
		s13-43,26.463-63.912s5.537-29.088-4.463-55.998s-3-32.09,40-72.098s47.993-88.992,47.993-88.992h114.263h0.516h114.263
		c0,0,4.993,48.983,47.993,88.992s50,45.188,40,72.098s-17.926,35.086-4.463,55.998s52.824,29.912,26.463,63.912s-16,37-17,58
		s8.879,66.164-59.061,57.582l-148.896,1.071H294.929z"/>
	<path fill="#93326F" d="M224.646,349.065l-86.897,26.799c-25.099,7.699-41.999,30.799-41.999,56.797v154.496h396.888V432.661
		c0-26.199-17-49.197-42-56.896l-86.896-26.699"/>
	<path fill="#CE4C9B" d="M420.74,375.864l-86.896-26.799H224.646l-86.897,26.799c-25.099,7.699-41.999,30.799-41.999,56.797v154.496
		H462.84V432.661C462.738,406.563,445.74,383.563,420.74,375.864z"/>
	<path fill="#EFBE9A" d="M442.939,547.458h49.598v39.699h-49.598V547.458z"/>
	<path fill="#EFBE9A" d="M95.651,547.458h49.598v39.699H95.651V547.458z"/>
	<polyline fill="#E7E514" points="294.265,473.21 168.212,366.47 196.469,357.631 294.265,357.631 	"/>
	<polyline fill="#E7E514" points="293.717,473.21 419.77,366.47 391.513,357.631 293.717,357.631 	"/>
	
		<ellipse fill="none" stroke="#E7E514" stroke-width="12" stroke-miterlimit="10" cx="162.673" cy="282.007" rx="22.341" ry="50.939"/>
	
		<ellipse fill="none" stroke="#A5A713" stroke-width="12" stroke-miterlimit="10" cx="427.673" cy="282.007" rx="22.341" ry="50.939"/>
	<polygon fill="#EFBE9A" points="187.082,360.65 294.744,449.876 401.447,360.65 325,336.876 261,336.876 	"/>
	<polyline fill="#DB9B7C" points="393.342,367.964 346,352.376 356.5,344.876 401.447,360.65 	"/>
	<path fill="#EFBE9A" d="M403.24,239.868h19.801c21.998,0,39.697-17.699,39.697-39.699c0-21.999-17.699-39.699-39.697-39.699H403.24
		"/>
	<path fill="#DB9B7C" d="M165.148,140.671v99.197c0,71.198,57.798,128.997,128.996,128.997s128.997-57.799,128.997-128.997v-99.197
		C412.281,31.466,294.044,34.876,294.044,34.876C164.088,36.876,165.148,140.671,165.148,140.671"/>
	<path fill="#DB9B7C" d="M184.948,239.868h-19.799c-21.899,0-39.699-17.699-39.699-39.699c0-21.999,17.699-39.699,39.699-39.699
		h19.799"/>
	<path fill="#EFBE9A" d="M294.044,34.876c-125.956,0-128.896,105.795-128.896,105.795v99.197
		c0,66.299,49.798,120.696,114.095,128.096c64.2-7.4,114.098-61.898,114.098-128.096v-99.197
		C388.684,40.466,294.044,34.876,294.044,34.876z"/>
	<path fill="#363B51" d="M237.046,231.068c-4.8,0-8.7-4-8.7-8.7v-2.3c0-4.8,4-8.7,8.7-8.7c4.8,0,8.7,4,8.7,8.7v2.3
		C245.846,227.168,241.846,231.068,237.046,231.068z"/>
	<path fill="#363B51" d="M351.043,231.068c-4.801,0-8.699-4-8.699-8.7v-2.3c0-4.8,4-8.7,8.699-8.7c4.799,0,8.699,4,8.699,8.7v2.3
		C359.842,227.168,355.842,231.068,351.043,231.068z"/>
	<path fill="#363B51" d="M294.843,311.966c-14.199,0-27.398-2.9-37.398-8.299c-4.3-2.201-5.8-7.602-3.6-11.701
		c2.2-4.3,7.6-5.8,11.7-3.6c7.4,4,18,6.201,29.199,6.201c11.2,0,21.901-2.201,29.2-6.201c4.301-2.3,9.5-0.7,11.699,3.6
		c2.201,4.301,0.701,9.5-3.6,11.701C322.443,309.065,309.045,311.966,294.843,311.966z"/>
	<g>
		<polygon fill="#E7E514" points="256.839,162.159 248.839,162.159 248.839,131.011 256.839,129.608 		"/>
	</g>
	<circle fill="#E7E514" cx="252.839" cy="169.67" r="9.042"/>
	<g>
		<polygon fill="#E7E514" points="221.506,173.159 213.506,173.159 213.506,143.191 221.506,139.396 		"/>
	</g>
	<circle fill="#E7E514" cx="217.506" cy="180.67" r="9.042"/>
	<g>
		<path fill="#E7E514" d="M186.006,163.76v34.557h-8v-24.946C178.006,173.372,181.843,167.898,186.006,163.76z"/>
	</g>
	<circle fill="#E7E514" cx="182.006" cy="205.828" r="9.042"/>
	<g>
		<path fill="#AFB015" d="M405.006,165.125v34.557h8v-24.946C413.006,174.737,409.17,169.263,405.006,165.125z"/>
	</g>
	<circle fill="#AFB015" cx="409.007" cy="207.193" r="9.042"/>
	<g>
		<polygon fill="#E7E514" points="335.84,163.127 343.84,163.127 343.84,131.979 335.84,130.576 		"/>
	</g>
	<circle fill="#E7E514" cx="339.84" cy="170.638" r="9.042"/>
	<g>
		<polygon fill="#E7E514" points="371.174,174.127 379.174,174.127 379.174,145.723 371.174,141.576 		"/>
	</g>
	<circle fill="#E7E514" cx="375.173" cy="181.638" r="9.042"/>
	<g>
		<rect x="290.711" y="127.576" fill="#E7E514" width="8" height="31.583"/>
	</g>
	<circle fill="#E7E514" cx="294.71" cy="166.67" r="9.042"/>
	<path fill="#EF3E52" d="M294.845,127.599c112.956-3.205,128.895,73.821,128.895,73.821V81.804c0,0-5.34-78-129.595-76h-0.201
		c-124.256-2-129.596,76-129.596,76V201.42c0,0,15.939-77.026,128.896-73.821H294.845z"/>
	<path fill="#972130" d="M312.04,6.094c0,0,82.64,46.601,81.302,149.508c0,0,22.908,16.994,30.398,45.817V81.804
		C423.74,81.804,421.08,17.313,312.04,6.094z"/>
	<path fill="#EF3E52" d="M165.148,196.786c0,0-38.136,112.693,12.858,210.392C178.006,407.178,200.296,313.696,165.148,196.786z"/>
</g>
</svg>
