<?xml version="1.0" encoding="utf-8"?>
<!-- Generator: Adobe Illustrator 23.0.1, SVG Export Plug-In . SVG Version: 6.00 Build 0)  -->
<svg version="1.1" id="Capa_1" xmlns="http://www.w3.org/2000/svg" xmlns:xlink="http://www.w3.org/1999/xlink" x="0px" y="0px"
	 viewBox="0 0 149.6 149.6" style="enable-background:new 0 0 149.6 149.6;" xml:space="preserve">
<style type="text/css">
	.st0{fill:#ED2024;}
	.st1{fill:#A9ABAE;}
	.st2{fill:#C3C6C7;}
	.st3{fill:#E2E3E4;}
	.st4{fill:#B8B8B8;}
	.st5{fill:#787D82;}
	.st6{fill:#525759;}
	.st7{fill:#7E8083;}
	.st8{fill:#263138;}
	.st9{opacity:0.8;fill:#3C454A;enable-background:new    ;}
	.st10{opacity:0.12;fill:#D8D9DA;enable-background:new    ;}
	.st11{fill:#FFFFFF;}
</style>
<path class="st0" d="M57.9,138.4l3.6,10.7l3-5.2C64.5,143.9,62.2,141.6,57.9,138.4z"/>
<path class="st0" d="M91.5,138.4l-3.6,10.7l-3-5.2C84.9,143.9,87.2,141.6,91.5,138.4z"/>
<g>
	<path class="st1" d="M120.5,109.6c0,0,16,11,15.4,39c0,0-16.7-30.4-50.8-24.4C85.2,124.1,92.5,104.2,120.5,109.6z"/>
	<path class="st1" d="M29.1,109.6c0,0-16,11-15.4,39c0,0,16.7-30.4,50.8-24.4C64.4,124.1,57.1,104.2,29.1,109.6z"/>
</g>
<g>
	<path class="st2" d="M127.4,98.5c0,0,18.4,11,17.7,39c0,0-19.2-30.4-58.4-24.4C86.7,113.1,95.2,93.2,127.4,98.5z"/>
	<path class="st2" d="M22.2,98.5c0,0-18.4,11-17.7,39c0,0,19.2-30.4,58.4-24.4C62.8,113.1,54.4,93.2,22.2,98.5z"/>
</g>
<path class="st3" d="M133.6,86.4c9.9,2.5,14.3,9.8,14.3,9.8C146.5,69.8,125,58.4,125,58.4l-12.8-43.5c-8,5.7-28.6,14.2-37.4,14.2
	s-29.4-8.5-37.4-14.2L24.6,58.4c0,0-21.4,11.5-22.9,37.8c0,0,4.4-7.2,14.3-9.8c0,0-18.9,10.8-15.6,29.9c9-11.5,34.7-18.7,46.9-12.7
	c12.2,5.9,10.9,17,12.4,25.7c0.8,4.9,1.8,10.3,5.2,13c2.5,2,7.1,2,10,2s7.4,0,10-2c3.3-2.7,4.3-8.1,5.2-13
	c1.5-8.7,0.2-19.7,12.4-25.7c12.2-5.9,37.8,1.3,46.9,12.7C152.6,97.2,133.6,86.4,133.6,86.4z"/>
<g>
	<g>
		<g>
			<path class="st4" d="M31.9,1.2c1.8-0.9,9.2,5.3,14.5,13.3c4.4,6.7,7.4,19.4,6.9,25c-0.7,8.7-16.4,21.4-27,23.4
				C19.7,45.1,24.7,4.8,31.9,1.2z"/>
		</g>
	</g>
	<g>
		<g>
			<path class="st5" d="M33.6,9.6c1.3-0.7,6.7,3.9,10.5,9.6c3.2,4.9,5.4,14.1,5,18.2c-0.5,6.3-11.9,15.6-19.6,17
				C24.8,41.5,28.4,12.2,33.6,9.6z"/>
		</g>
	</g>
</g>
<g>
	<g>
		<g>
			<path class="st4" d="M120.9,29.8l3.7-10.6c-1.5-11.4-3.6-16.4-6.9-18.1c-1.8-0.9-9.2,5.3-14.5,13.3c-4.4,6.7-7.4,19.4-6.9,25
				c0.7,8.7,16.4,21.4,27,23.4c2.5-6.7,3.3-16.6,3-26.6L120.9,29.8z"/>
		</g>
	</g>
	<g>
		<g>
			<path class="st5" d="M116,9.6c-1.3-0.7-6.7,3.9-10.5,9.6c-3.2,4.9-5.4,14.1-5,18.2c0.5,6.3,11.9,15.6,19.6,17
				C124.8,41.5,121.2,12.2,116,9.6z"/>
		</g>
	</g>
</g>
<path class="st4" d="M101,89.2v9.9H74.8l0,0H48.5v-9.9c-8.2-4.6-22.1-1.1-22.1,4.9c0,6.1,18.4,15.9,28.7,40
	c5.1,12,16.6,12.6,19.5,12.6l0,0h0.1h0.1l0,0c2.9,0,14.4-0.6,19.5-12.6c10.3-24,28.7-33.9,28.7-40C123.1,88,109.2,84.6,101,89.2z"/>
<path class="st6" d="M74.8,134l-10.3,8.1c0,0,1.7,5.3,10.3,5.3s10.3-5.3,10.3-5.3L74.8,134z"/>
<path class="st3" d="M47.3,97.4c12.2,6.8,10.9,19.5,12.4,29.5c0.8,5.7,1.8,11.9,5.2,15c2.5,2.4,7.1,2.3,10,2.3s7.4,0,10-2.3
	c3.3-3.1,4.3-9.3,5.2-15c1.5-10,0.2-22.7,12.4-29.5C114.5,90.6,35.1,90.6,47.3,97.4z"/>
<g>
	<path class="st7" d="M111.2,104.5c0,0,1.8-20.5-5-28.4c-6.8-8-16.9-3.6-17.8,2.5s0.5,18.7,5,21.1
		C97.8,102.1,111.2,104.5,111.2,104.5z"/>
	<path class="st7" d="M38.4,104.5c0,0-1.8-20.5,5-28.4c6.8-8,16.9-3.6,17.8,2.5c0.9,6.1-0.5,18.7-5,21.1
		C51.8,102.1,38.4,104.5,38.4,104.5z"/>
</g>
<path class="st8" d="M74.8,131.9c-4.5,0-7.9,1-9.6,3.1c0,0,5.1,7.8,9.6,7.8s9.6-7.8,9.6-7.8C82.7,132.8,79.2,131.9,74.8,131.9z"/>
<path class="st9" d="M74.8,133.5c4,0,7.4,0.5,9.6,1.5l0,0c-1.7-2.2-5.2-3.1-9.6-3.1s-7.9,1-9.6,3.1l0,0
	C67.4,134,70.8,133.5,74.8,133.5z"/>
<path class="st10" d="M74.8,29.1c-5.6,0-16.1-3.5-25-7.5c-1-2.7-2.2-5.2-3.5-7.2c-5.2-8-12.7-14.2-14.5-13.3
	c-6.5,3.3-11.2,37.2-7.1,56.5l-0.2,0.7c0,0-21.4,11.5-22.9,37.8c0,0,4.4-7.2,14.3-9.8c0,0-18.9,10.8-15.6,29.9
	c3-3.8,7.8-7.1,13.4-9.7c-4.7,6.2-9.6,16.2-9.3,30.9c0,0,4.7-7.4,14.1-14.1c-2.9,6.1-5.1,14.3-4.9,25.1c0,0,11.9-21.7,36.1-24.8
	c1.9,3.1,3.8,6.6,5.4,10.4c2.9,6.8,7.9,9.9,12.1,11.4c1.6,1.1,3.9,2,7.5,2C74.8,147.4,74.8,29.1,74.8,29.1z"/>
<path class="st8" d="M86.7,89.8c0,0,11.6-2,17.5-10.3c0,0-5.6-6.1-12.5-1C87.1,82,86.7,89.8,86.7,89.8z"/>
<g>
	<ellipse class="st0" cx="95.1" cy="81.6" rx="3.4" ry="3.5"/>
	<ellipse class="st11" cx="94.2" cy="81.1" rx="1.3" ry="1.3"/>
</g>
<path class="st8" d="M62.8,89.8c0,0-11.6-2-17.5-10.3c0,0,5.6-6.1,12.5-1C62.5,82,62.8,89.8,62.8,89.8z"/>
<g>
	<ellipse class="st0" cx="54.5" cy="81.6" rx="3.4" ry="3.5"/>
	<ellipse class="st11" cx="53.7" cy="81.1" rx="1.3" ry="1.3"/>
</g>
<g>
	<path class="st0" d="M60,98.8c1.6,0.6,3.2,1.3,4.7,1.9c1.5,0.7,3.1,1.4,4.6,2.2c3,1.5,6.1,3.1,8.7,5.4c2.5,2.3,5.1,4.5,7.3,7.1
		c1.1,1.3,2.2,2.7,2.9,4.2c0.8,1.5,1.3,3.2,1.2,5c-0.1-1.7-0.7-3.3-1.6-4.7c-0.9-1.4-1.9-2.7-3.1-4c-2.3-2.4-4.9-4.6-7.4-6.9
		c-2.5-2.2-5.5-3.8-8.4-5.4c-1.5-0.8-3-1.6-4.5-2.4L60,98.8z"/>
</g>
</svg>
