<?xml version="1.0" encoding="utf-8"?>
<!-- Generator: Adobe Illustrator 16.0.0, SVG Export Plug-In . SVG Version: 6.00 Build 0)  -->
<!DOCTYPE svg PUBLIC "-//W3C//DTD SVG 1.1//EN" "http://www.w3.org/Graphics/SVG/1.1/DTD/svg11.dtd">
<svg version="1.1" id="Calque_1" xmlns="http://www.w3.org/2000/svg" xmlns:xlink="http://www.w3.org/1999/xlink" x="0px" y="0px"
	 width="436.486px" height="618.91px" viewBox="-15.941 -46.035 436.486 618.91"
	 enable-background="new -15.941 -46.035 436.486 618.91" xml:space="preserve">
<g>
	<path fill="#EF3E52" d="M311.479,159.707c0,0,67.813-97.751,45.824-205.742C357.304-46.035,310.032,37.637,311.479,159.707z"/>
	<path fill="#F36F5C" d="M308.963,170.906c0,0,96.439-69.666,111.582-178.827C420.545-7.921,348.157,55.291,308.963,170.906z"/>
	<path fill="#231F20" d="M331.078,117.166c0,0,18.148,6.948,20.377,21.333c2.229,14.385-15.622,28.214,0,52.107
		c15.623,23.893,38.289,44.559,15.623,59.226c-22.666,14.668-40,26.639-28.666,42.652c11.333,16.016-3.092,78.152-54.154,69.348
		c-51.063-8.803-82.297,0.85-82.297,0.85h0.991c0,0-31.235-9.653-82.297-0.85S55.167,308.499,66.5,292.484s-6-27.985-28.667-42.652
		s0-35.333,15.623-59.226s-2.229-37.722,0-52.107s20.377-21.333,20.377-21.333H331.078z"/>
	<path fill="#A02534" d="M132.854,334.783l-86.896,26.799c-25.1,7.699-42,30.799-42,56.797v154.496h396.888V418.379
		c0-26.199-17-49.197-42-56.896l-86.896-26.699"/>
	<path fill="#EF3E52" d="M188.5,572.875h182.547V418.379c-0.102-26.098-17.1-49.098-42.1-56.797l-86.896-26.799H188.5V572.875z"/>
	<path fill="#F79667" d="M188.5,334.783h-55.646l-86.896,26.799c-25.1,7.699-42,30.799-42,56.797v154.496H188.5V334.783z"/>
	<path fill="#F79667" d="M351.146,493.477h69.398v39.699h-69.398V493.477L351.146,493.477z"/>
	<path fill="#EF3E52" d="M-15.941,493.477h69.397v39.699h-69.397V493.477z"/>
	<path fill="#EFBE9A" d="M351.146,533.176h49.598v39.699h-49.598V533.176z"/>
	<path fill="#EFBE9A" d="M3.858,533.176h49.598v39.699H3.858V533.176z"/>
	<path fill="#F36F5C" d="M286.947,322.917l93.465,31.333c0,0,11.332,28.248-14,45.582c0,0-8,33.633-46.667,27.816
		c0,0-16.142,29.518-61.737,15.518c0,0-20.841,18.666-55.552-0.667c-34.711,19.333-55.552,0.667-55.552,0.667
		c-45.596,14-61.737-15.518-61.737-15.518C46.5,433.465,38.5,399.832,38.5,399.832c-25.333-17.334-14-45.582-14-45.582
		l93.464-31.333H286.947z"/>
	<path fill="#EF3E52" d="M259.25,340.088l81.583,26.629c0,0,20.944,10.449,25.579,33.115c0,0,24.579-13.83,14-45.582L257.9,312.498
		L259.25,340.088z"/>
	<path fill="#DB9B7C" d="M93.154,225.585H73.355c-21.899,0-39.699-17.699-39.699-39.699c0-21.999,17.699-39.699,39.699-39.699
		h19.799"/>
	<path fill="#EFBE9A" d="M311.447,225.585h19.801c21.998,0,39.697-17.699,39.697-39.699c0-21.999-17.699-39.699-39.697-39.699
		h-19.801"/>
	<g>
		<path fill="#DB9B7C" d="M73.256,126.056v99.197c0,71.198,57.797,128.997,128.995,128.997s128.997-57.799,128.997-128.997v-99.197
			C320.389,16.851,202.151,20.261,202.151,20.261C72.195,22.261,73.256,126.056,73.256,126.056"/>
		<path fill="#EFBE9A" d="M202.151,20.261c-125.956,0-128.896,105.795-128.896,105.795v99.197
			c0,66.297,49.797,120.696,114.095,128.094c64.199-7.398,114.098-61.896,114.098-128.094v-99.197
			C296.792,25.851,202.151,20.261,202.151,20.261z"/>
	</g>
	<path fill="#363B51" d="M145.253,216.786c-4.8,0-8.7-4-8.7-8.7v-2.3c0-4.8,4-8.7,8.7-8.7c4.8,0,8.7,4,8.7,8.7v2.3
		C154.053,212.886,150.053,216.786,145.253,216.786z"/>
	<path fill="#363B51" d="M259.25,216.786c-4.801,0-8.699-4-8.699-8.7v-2.3c0-4.8,4-8.7,8.699-8.7c4.799,0,8.699,4,8.699,8.7v2.3
		C268.049,212.886,264.049,216.786,259.25,216.786z"/>
	<path fill="#363B51" d="M203.051,297.684c-14.199,0-27.398-2.9-37.398-8.299c-4.3-2.201-5.8-7.602-3.6-11.701
		c2.199-4.3,7.6-5.8,11.699-3.6c7.4,4,18,6.201,29.199,6.201s21.9-2.201,29.199-6.201c4.301-2.3,9.5-0.7,11.699,3.6
		c2.201,4.301,0.701,9.5-3.6,11.701C230.65,294.783,217.252,297.684,203.051,297.684z"/>
	<g>
		<path fill="#EF3E52" d="M73.406,245.385v-99.197h257.993v99.197c-9.762,5.747-19.801,9.604-29.764,12.036
			c0,0-72.779,13.905-96.779-31.095L73.406,245.385z"/>
		<path fill="#F36F5C" d="M301.598,245.385v-99.197H73.406v99.197c0,0,76.642,34.06,128.996,0c0,0,48.624,24.392,99.233,12.036
			L301.598,245.385z"/>
		<path fill="#444C75" d="M164.404,215.923c-4.835,0-8.75-3.915-8.75-8.75c0-4.829-3.921-8.75-8.75-8.75s-8.75,3.921-8.75,8.75
			c0,4.835-3.915,8.75-8.75,8.75s-8.75-3.915-8.75-8.75c0-14.474,11.776-26.25,26.25-26.25s26.25,11.776,26.25,26.25
			C173.154,212.009,169.239,215.923,164.404,215.923z"/>
		<path fill="#213056" d="M275.4,216.472c-4.834,0-8.75-3.915-8.75-8.75c0-4.829-3.922-8.75-8.75-8.75s-8.75,3.921-8.75,8.75
			c0,4.835-3.915,8.75-8.75,8.75s-8.75-3.915-8.75-8.75c0-14.474,11.776-26.25,26.25-26.25c14.475,0,26.25,11.776,26.25,26.25
			C284.15,212.558,280.236,216.472,275.4,216.472z"/>
	</g>
	<path fill="#231F20" d="M201.154,263.008C266.152,317.93,310.951,256,310.951,256c-65.322,25.5-109.097-2.834-109.097-2.834h0.397
		c0,0-43.775,28.334-109.097,2.834c0,0,44.798,61.93,109.796,7.008H201.154z"/>
	<path fill="#EF3E52" d="M73.833,117.166c0,0,8.667-100.499,134-96.916c0,0,105.173-0.417,122.253,96.916H73.833z"/>
	<path fill="#F36F5C" d="M73.833,117.166c0,0,6.236-96.349,129.118-96.841c0,0,92.771,16.175,97.826,96.841H73.833z"/>
</g>
</svg>
