<?xml version="1.0" encoding="utf-8"?>
<!-- Generator: Adobe Illustrator 23.0.1, SVG Export Plug-In . SVG Version: 6.00 Build 0)  -->
<svg version="1.1" id="Calque_1" xmlns="http://www.w3.org/2000/svg" xmlns:xlink="http://www.w3.org/1999/xlink" x="0px" y="0px"
	 viewBox="0 0 512 512" style="enable-background:new 0 0 512 512;" xml:space="preserve">
<style type="text/css">
	.st0{fill:#F9DC6A;}
	.st1{fill:#E5AC51;}
	.st2{fill:#6E7093;}
	.st3{fill:#4E5173;}
	.st4{fill:#F9C295;}
	.st5{fill:#E59F6A;}
	.st6{fill:#B78358;}
	.st7{fill:#935D38;}
	.st8{fill:#FFCD34;}
	.st9{fill:#B1BFC4;}
	.st10{fill:#BFEA92;}
	.st11{fill:#363B51;}
	.st12{fill:#CC814A;}
	.st13{fill:#B5672D;}
	.st14{fill:#B5FCFF;}
	.st15{fill:#71F6FC;}
	.st16{fill:#49D011;}
	.st17{fill:#287309;}
	.st18{fill:#58E7ED;}
	.st19{fill:#F50000;}
	.st20{fill:#A60000;}
</style>
<path class="st0" d="M121.5,158.4c-2.2,18.1-3.3,36.9-3.3,56.3c0,141.7,61.8,256.5,138.1,256.5s138.1-114.8,138.1-256.5
	c0-19.3-1.2-38.2-3.3-56.3H121.5z"/>
<path class="st1" d="M391,158.4h-22.9c2,18.1,3.1,36.9,3.1,56.3c0,137.9-53.7,250.4-121,256.2c2,0.2,4,0.3,6,0.3
	c76.3,0,138.1-114.8,138.1-256.5C394.3,195.3,393.2,176.5,391,158.4z"/>
<path class="st2" d="M276.7,0l55.8,77.3l58-45.6c13.3-10.4,5.9-31.7-11-31.7H276.7z"/>
<path class="st2" d="M390.3,512H122.2c-2.3,0-4.2-1.9-4.2-4.2v-81.9c0-22,13.6-41.6,34.2-49.3l104-38.9l104,38.9
	c20.6,7.7,34.2,27.3,34.2,49.3v81.9C394.5,510.1,392.6,512,390.3,512z"/>
<g>
	<path class="st3" d="M360.3,376.6l-104-38.9l-12.3,4.6l91.8,34.3c20.6,7.7,34.2,27.3,34.2,49.3v81.9c0,2.3-1.9,4.2-4.2,4.2h24.5
		c2.3,0,4.2-1.9,4.2-4.2v-81.9C394.5,404,380.8,384.3,360.3,376.6z"/>
	<path class="st3" d="M176.6,512v-50c0-4.3-3.5-7.7-7.7-7.7c-4.3,0-7.7,3.5-7.7,7.7v50H176.6z"/>
	<path class="st3" d="M351.3,512v-50c0-4.3-3.5-7.7-7.7-7.7c-4.3,0-7.7,3.5-7.7,7.7v50H351.3z"/>
</g>
<path class="st4" d="M215,293v60.7c0,22.8,18.5,41.2,41.2,41.2c22.8,0,41.2-18.5,41.2-41.2V293H215z"/>
<path class="st5" d="M215,336c15.6,9.4,33.3,14.8,52.2,14.8c10.5,0,20.6-1.7,30.2-4.7v-53H215V336z"/>
<path class="st4" d="M354.1,260.8c-18.5,39.6-55.4,66.6-97.9,66.6c-42.1,0-78.7-26.5-97.3-65.5c16.6-19.6,22.2-45.6,23.9-78.8H236
	C246.3,215.2,287.8,243.9,354.1,260.8z"/>
<path class="st2" d="M446.9,172.9l-63.5-41.1L319.4,13.7C314.8,5.2,306,0,296.4,0h-80.4c-9.6,0-18.4,5.2-22.9,13.7l-64.1,118.1
	l-63.5,41.1c-4.6,3-2.5,10.2,3,10.2h375.4C449.5,183.1,451.6,175.9,446.9,172.9z"/>
<path class="st3" d="M446.9,172.9l-63.5-41.1L319.4,13.7C314.8,5.2,306,0,296.4,0h-26.8c8.5,0,16.3,5.2,20.3,13.7l56.7,118.1
	l56.2,41.1c4.1,3,2.2,10.2-2.7,10.2h43.7C449.5,183.1,451.6,175.9,446.9,172.9z"/>
<path class="st6" d="M144.4,103.5l-15.3,28.3h254.4l-15.3-28.3H144.4z"/>
<path class="st7" d="M368.1,103.5h-35l13.6,28.3h36.8L368.1,103.5z"/>
<path class="st8" d="M271.4,144.9h-30.2c-9.7,0-17.6-7.9-17.6-17.6v-19.4c0-9.7,7.9-17.6,17.6-17.6h30.2c9.7,0,17.6,7.9,17.6,17.6
	v19.4C288.9,137,281.1,144.9,271.4,144.9z"/>
<path class="st9" d="M321.6,512c-7.9-40.7-38-96.1-65.4-117.1c-27.4,21-57.5,76.4-65.4,117.1H321.6z"/>
<path class="st10" d="M273.1,394.9c0,9.3-7.6,16.9-16.9,16.9c-9.3,0-16.9-7.6-16.9-16.9c0-9.3,7.6-16.9,16.9-16.9
	C265.6,378,273.1,385.5,273.1,394.9z"/>
<path class="st11" d="M206.5,225.8c-4.1,0-7.5-3.4-7.5-7.5v-2c0-4.1,3.4-7.5,7.5-7.5c4.1,0,7.5,3.4,7.5,7.5v2
	C214,222.4,210.6,225.8,206.5,225.8z"/>
<path class="st11" d="M256.2,278c-12.2,0-23.6-2.5-32.2-7.1c-3.7-1.9-5-6.5-3.1-10.1c1.9-3.7,6.5-5,10.1-3.1
	c6.4,3.4,15.5,5.3,25.1,5.3s18.8-1.9,25.1-5.3c3.7-2,8.2-0.6,10.1,3.1s0.6,8.2-3.1,10.1C279.9,275.5,268.4,278,256.2,278z"/>
<path class="st12" d="M113.1,386.9h-22l-1.9-20.8c-0.1-1.1,0.6-2,1.6-2h22.6c1,0,1.7,1,1.6,2L113.1,386.9z"/>
<path class="st13" d="M113.5,364.1h-8.9c1,0,1.7,1,1.6,2l-1.9,20.8h8.9l1.9-20.8C115.2,365.1,114.4,364.1,113.5,364.1z"/>
<path class="st14" d="M148.7,465.6c0,25.5-20.6,46.2-46.1,46.4c-25.7,0.2-46.9-20.8-46.9-46.4c0-16.5,8.6-31,21.6-39.2
	c7.1-4.5,11.5-12.4,11.5-20.8v-9.7h26.8v9.7c0,8.5,4.4,16.3,11.5,20.9C140.1,434.6,148.7,449.1,148.7,465.6z"/>
<path class="st15" d="M127.1,426.4c-7.2-4.6-11.5-12.4-11.5-20.9v-9.7h-8.9v9.7c0,8.5,4.4,16.3,11.5,20.9
	c13,8.2,21.5,22.7,21.5,39.2c0,24.1-18.4,43.9-42,46.2c1.6,0.2,3.2,0.2,4.9,0.2c25.5-0.2,46.1-20.9,46.1-46.4
	C148.7,449.1,140.1,434.6,127.1,426.4z"/>
<path class="st16" d="M135.5,468.9c-14.2-5.7-20.3,0.1-28.4,4.7c-14.1,8.1-22.8,6.6-31.3,0.9c-5.4-3.6-11.3-8.8-20-6.3
	c1.4,24.4,21.6,43.7,46.4,43.7c22.6,0,41.4-16.1,45.6-37.4C143.5,473.1,139.7,470.6,135.5,468.9L135.5,468.9z"/>
<path class="st17" d="M147.8,474.6L147.8,474.6c-2.9-1.1-5.6-2.5-8.3-3.9c-2.4,21.7-19.9,39-41.7,41.1c1.6,0.2,3.2,0.2,4.9,0.2
	C125,511.8,143.6,495.8,147.8,474.6z"/>
<path class="st15" d="M115.9,395.8H88.5c-3.3,0-6-2.7-6-6c0-3.3,2.7-6,6-6h27.4c3.3,0,6,2.7,6,6
	C121.8,393.1,119.1,395.8,115.9,395.8z"/>
<path class="st18" d="M115.9,383.9h-8.9c3.3,0,6,2.7,6,6c0,3.3-2.7,6-6,6h8.9c3.3,0,6-2.7,6-6S119.1,383.9,115.9,383.9z"/>
<g>
	<circle class="st16" cx="89.6" cy="455.5" r="7.1"/>
	<circle class="st16" cx="107.5" cy="434.5" r="5.8"/>
</g>
<path class="st12" d="M415.8,389.3h-22l-1.9-20.8c-0.1-1.1,0.6-2,1.6-2h22.6c1,0,1.7,1,1.6,2L415.8,389.3z"/>
<path class="st13" d="M416.1,366.4h-8.9c1,0,1.7,1,1.6,2l-1.9,20.8h8.9l1.9-20.8C417.8,367.4,417,366.4,416.1,366.4z"/>
<path class="st14" d="M451.3,467.9c0,25.5-20.6,46.2-46.1,46.4c-25.7,0.2-46.9-20.8-46.9-46.4c0-16.5,8.6-31,21.6-39.2
	c7.1-4.5,11.5-12.4,11.5-20.8v-9.7h26.8v9.7c0,8.5,4.4,16.3,11.5,20.9C442.7,436.9,451.3,451.4,451.3,467.9z"/>
<path class="st15" d="M429.7,428.7c-7.2-4.6-11.5-12.4-11.5-20.9v-9.7h-8.9v9.7c0,8.5,4.4,16.3,11.5,20.9
	c13,8.2,21.5,22.7,21.5,39.2c0,24.1-18.4,43.9-42,46.2c1.6,0.2,3.2,0.2,4.9,0.2c25.5-0.2,46.1-20.9,46.1-46.4
	C451.3,451.4,442.7,436.9,429.7,428.7z"/>
<path class="st19" d="M438.1,471.2c-14.2-5.7-20.3,0.1-28.4,4.7c-14.1,8.1-22.8,6.6-31.3,0.9c-5.4-3.6-11.3-8.8-20-6.3
	c1.4,24.4,21.6,43.7,46.4,43.7c22.6,0,41.4-16.1,45.6-37.4C446.1,475.4,442.3,472.9,438.1,471.2L438.1,471.2z"/>
<path class="st20" d="M450.4,476.9L450.4,476.9c-2.9-1.1-5.6-2.5-8.3-3.9c-2.4,21.7-19.9,39-41.7,41.1c1.6,0.2,3.2,0.2,4.9,0.2
	C427.6,514.1,446.2,498.1,450.4,476.9z"/>
<path class="st15" d="M418.5,398.1h-27.4c-3.3,0-6-2.7-6-6c0-3.3,2.7-6,6-6h27.4c3.3,0,6,2.7,6,6
	C424.4,395.4,421.7,398.1,418.5,398.1z"/>
<path class="st18" d="M418.5,386.2h-8.9c3.3,0,6,2.7,6,6s-2.7,6-6,6h8.9c3.3,0,6-2.7,6-6C424.4,388.9,421.7,386.2,418.5,386.2z"/>
<g>
	<circle class="st19" cx="392.2" cy="457.8" r="7.1"/>
	<circle class="st19" cx="410.1" cy="436.8" r="5.8"/>
</g>
</svg>
