<?xml version="1.0" encoding="utf-8"?>
<!-- Generator: Adobe Illustrator 23.0.1, SVG Export Plug-In . SVG Version: 6.00 Build 0)  -->
<svg version="1.1" id="Layer_1" xmlns="http://www.w3.org/2000/svg" xmlns:xlink="http://www.w3.org/1999/xlink" x="0px" y="0px"
	 viewBox="0 0 511 511" style="enable-background:new 0 0 511 511;" xml:space="preserve">
<style type="text/css">
	.st0{fill:#395D6E;}
	.st1{fill:#262222;}
	.st2{fill:#F5EEF3;}
	.st3{fill:#FFCCA9;}
	.st4{fill:#FFA076;}
	.st5{fill:#B5B3B3;}
	.st6{fill:#53504F;}
	.st7{fill:#7F7C7C;}
	.st8{fill:#403E3E;}
	.st9{fill:#231F20;}
</style>
<path class="st0" d="M252.2,424.8c-53.7,0-103.6,13.6-150.6,39.5c-3.6,2-8.2,0.7-10.2-3c-2-3.6-0.7-8.2,3-10.2
	c49.2-27.1,101.6-41.3,157.8-41.3l-4.8,3.2l4.8,5.7l-3.2,1.7L252.2,424.8z"/>
<path class="st0" d="M260.1,421.9l3.2-1.5l-4.2-7l4.5-3.5c54.7,0.7,105.1,15,153,41.3c3.6,2,4.9,6.5,3,10.2
	c-1.4,2.5-3.9,3.9-6.6,3.9c-1.2,0-2.5-0.3-3.6-0.9c-45.9-25.2-94.1-38.9-146.5-39.5L260.1,421.9z"/>
<path d="M474.3,238.7c-43.5-51.8-95.7-14.8-128.5,9l0.8,63c6.6,7.5,13.6,14.4,21.7,18.8s17.4,6,26.2,2.8c6.9-2.5,13.3-8.3,17.3-16.1
	c2,2.5,4.2,4.7,6.6,6.6c8.3,6.8,18.8,9.8,28.6,6.2c5.9-2.2,11.5-7,15.4-13.4c20.1,24.3,42.1,40.4,45.7,35.6
	C513.6,343.6,515.7,288,474.3,238.7z"/>
<path class="st1" d="M374.5,306.5c5.2-1.3,10.2-3.6,14.4-6.8c3.8-2.9,9-3.2,13.2-0.8c0.1,0.1,0.2,0.1,0.3,0.2
	c9.7,5.4,22,7.7,33.5,4.8c6.9-1.7,13.4-5.5,18-10.5c23.5,19.1,49.3,31.7,53.4,27.9c0.9-0.8,1.7-2.3,2.3-4.4
	c2.5,17.8,0.7,30.9-1.8,34.2c-3.5,4.8-25.6-11.2-45.7-35.6c-3.9,6.4-9.5,11.2-15.4,13.4c-9.8,3.6-20.4,0.7-28.6-6.2
	c-2.4-1.9-4.5-4.2-6.6-6.6c-4,7.8-10.4,13.6-17.3,16.1c-8.8,3.2-18.1,1.5-26.2-2.8s-15.2-11.3-21.7-18.8l-0.1-5.6
	C355.3,307.9,365.2,308.8,374.5,306.5z"/>
<path d="M36.7,238.7c43.5-51.8,95.7-14.8,128.6,9l-0.8,63c-6.6,7.5-13.6,14.4-21.7,18.8c-8.1,4.4-17.4,6-26.2,2.8
	c-6.9-2.5-13.3-8.3-17.3-16.1c-2,2.5-4.2,4.7-6.6,6.6c-8.3,6.8-18.8,9.8-28.6,6.2c-5.9-2.2-11.5-7-15.4-13.4
	C28.6,339.9,6.5,356,3,351.1C-2.6,343.6-4.7,288,36.7,238.7z"/>
<path class="st1" d="M136.5,306.5c-5.2-1.3-10.2-3.6-14.4-6.8c-3.8-2.9-9-3.2-13.2-0.8c-0.1,0.1-0.2,0.1-0.4,0.2
	c-9.7,5.4-22,7.7-33.5,4.8c-6.9-1.7-13.4-5.5-18-10.5C33.4,312.4,7.7,325,3.5,321.2c-0.9-0.8-1.7-2.3-2.3-4.4
	c-2.5,17.8-0.7,30.9,1.8,34.2c3.5,4.8,25.6-11.2,45.7-35.6c3.9,6.4,9.5,11.2,15.4,13.4c9.8,3.6,20.4,0.7,28.6-6.2
	c2.4-1.9,4.5-4.2,6.6-6.6c4,7.8,10.4,13.6,17.3,16.1c8.8,3.2,18.1,1.5,26.2-2.8c8.1-4.4,15.2-11.3,21.7-18.8l0.1-5.6
	C155.7,307.9,145.8,308.8,136.5,306.5z"/>
<path class="st2" d="M344.6,321.9c0-33.4-39.9-60.5-89.1-60.5c-49.2,0-89.1,27.1-89.1,60.5c0,33.4,39.9,60.5,89.1,60.5
	C304.7,382.4,344.6,355.3,344.6,321.9z"/>
<path class="st3" d="M360.6,420c1.2,3.5,1.7,7.2,1.3,11c-1.5,16.4-18.1,28.3-37,26.5c-18.9-1.7-33-16.5-31.5-32.9
	c1.4-14.9,15.2-26.1,31.9-26.7c8.7-36.4-9-67-23-81c-7.8-7.8-7.9-20.5-0.1-28.4s20.5-7.9,28.4-0.1c16,15.9,28.3,38.3,33.8,61.4
	C369.9,373.4,368.6,397.3,360.6,420z M150.4,420c-1.2,3.5-1.7,7.2-1.3,11c1.5,16.4,18.1,28.3,37,26.5c18.9-1.7,33-16.5,31.5-32.9
	c-1.4-14.9-15.2-26.1-31.9-26.7c-8.7-36.4,9-67,23-81c7.8-7.8,7.9-20.5,0.1-28.4c-7.8-7.8-20.5-7.9-28.4-0.1
	c-16,15.9-28.3,38.3-33.8,61.4C141.1,373.4,142.4,397.3,150.4,420z"/>
<path d="M358.4,272c-2.6,0-5.2-1.4-6.6-3.9c-2-3.6-0.7-8.2,3-10.2c8.2-4.5,17.4-7,26.7-7.3c4.1-0.1,7.6,3.1,7.7,7.3
	c0.1,4.1-3.1,7.6-7.3,7.7c-7,0.2-13.8,2.1-19.9,5.4C360.8,271.7,359.6,272,358.4,272z"/>
<path d="M152.6,272c-1.2,0-2.5-0.3-3.6-0.9c-6.1-3.3-13-5.2-19.9-5.4c-4.1-0.1-7.4-3.6-7.3-7.7c0.1-4.1,3.5-7.4,7.7-7.3
	c9.3,0.3,18.6,2.8,26.7,7.3c3.6,2,4.9,6.5,3,10.2C157.8,270.6,155.3,272,152.6,272z"/>
<path class="st4" d="M208.7,288.6c-7.8-7.8-20.5-7.9-28.4-0.1c-8.5,8.5-16,18.8-21.9,30.1c6.3,11.9,16.8,22.4,30.1,30.5
	c5.1-14,13-25.2,20.1-32.2C216.5,309.2,216.5,296.5,208.7,288.6z"/>
<path class="st4" d="M352.5,318.6c-5.9-11.3-13.4-21.6-21.9-30.1c-7.8-7.8-20.5-7.8-28.4,0.1c-7.8,7.8-7.8,20.5,0.1,28.4
	c7,7,15,18.2,20.1,32.2C335.8,341.1,346.2,330.6,352.5,318.6z"/>
<path class="st3" d="M402.8,271.4c-4.2,9.6-12.9,17.3-23.1,19.9c-7.4,1.9-15.4,1.1-22.3-2.1c-7.5,28.7-38.1,51.6-77.5,58.5
	c-5.9,6.9-14.7,11.2-24.4,11.2c-9.8,0-18.5-4.4-24.4-11.2c-39.4-6.8-70-29.7-77.5-58.5c-6.9,3.2-14.9,4-22.3,2.1
	c-10.2-2.6-18.9-10.3-23.1-19.9c-2.9-6.5-3.7-14.1-1.3-20.8c2.7-7.6,9.5-13.1,17.3-15.5c4.2-1.3,8.8-1.7,13.1-1.1
	c8.6,1.2,16.4,5.8,22.6,11.9c18.3-5.5,38.6-31.2,26.7-64.3c32.6,15,54.2,14.1,65.4-3.1c19.2,10.9,48.1,18,74.6,12.5
	c0.8,18.9,4.7,41.5,24.3,54.9c6.2-6.2,14-10.7,22.6-11.9c5.3-0.7,10.8,0,15.7,2.1c6.7,2.7,12.3,7.8,14.7,14.5
	C406.5,257.2,405.6,264.8,402.8,271.4z"/>
<path class="st0" d="M212,246c-4.1,0-7.5-3.3-7.5-7.5v-2.7c0-4.1,3.3-7.5,7.5-7.5c4.1,0,7.5,3.4,7.5,7.5v2.7
	C219.4,242.7,216.1,246,212,246z"/>
<path class="st0" d="M299,246c-4.1,0-7.5-3.3-7.5-7.5v-2.7c0-4.1,3.4-7.5,7.5-7.5c4.1,0,7.5,3.4,7.5,7.5v2.7
	C306.5,242.7,303.2,246,299,246z"/>
<path class="st0" d="M255.5,264.5c14.1,0,26.6,8.5,31.9,21.5c1.5,3.8-0.3,8.2-4.1,9.7c-3.8,1.5-8.2-0.3-9.7-4.1
	c-3-7.4-10-12.2-18-12.2c-8,0-15,4.8-18,12.2c-1.5,3.8-5.9,5.7-9.7,4.1c-3.8-1.5-5.7-5.9-4.1-9.7C228.9,273,241.4,264.5,255.5,264.5
	z"/>
<path class="st5" d="M389.4,236c-4.9-2-10.5-2.8-15.7-2.1c-8.6,1.2-16.4,5.8-22.6,11.9c-25.6-17.6-24.5-50.9-24.4-71.1
	c0,0,1.1-17,24.4-14.1C373.3,163.4,402.1,187.3,389.4,236z"/>
<path class="st6" d="M371.9,162.7c-12.1,16.1-28.1,24.7-45.2,28.2c-26.6,5.5-55.4-1.6-74.6-12.5c-11.2,17.1-32.8,18.1-65.4,3.1
	c11.8,33.1-8.5,58.8-26.7,64.3c-6.2-6.2-14-10.7-22.6-11.9c-4.4-0.6-8.9-0.2-13.1,1.1c-16.2-21.6-20.1-51.6,6.9-75.9
	C116.7,72.5,234.1,55.4,264,75.3C358.4,5.2,405.5,118,371.9,162.7z"/>
<path class="st7" d="M305.5,54.7c38.5,11.4,52.5,74.6,32.1,105.2c-10.5,15.7-24.4,24.1-39.2,27.5c-6.2,1.4-12.6,2-19,1.8
	c14.9,3.8,31.5,5,47.4,1.8c17-3.5,33.1-12.1,45.1-28.2C400.1,125.1,371.3,39.5,305.5,54.7z"/>
<path class="st7" d="M225.7,129.9c-4,1.2-6.2,5.3-5.1,9.3c1.2,4,5.3,6.2,9.3,5.1c8.6-2.5,18-0.5,23.3,5c4.7,4.9,5.7,12,2.9,20.7
	c-1,2.9-2.2,5.9-3.9,8.6c4.1,2.3,8.7,4.5,13.6,6.4c1.9-3.3,3.4-6.8,4.5-10.3c4.6-14,2.3-26.7-6.4-35.7
	C254.7,129.3,239.7,125.8,225.7,129.9z"/>
<path class="st8" d="M410.2,421.2c-6.2,1.7-11,5.8-13.9,10.9c-2.8,5.1-3.7,11.2-1.9,17.3l0.3,1l-1,0.3c-6,1.7-10.8,5.8-13.6,10.8
	c-2.9,5.2-3.7,11.4-1.9,17.6c3.6,12,16.5,18.6,28.5,15.1l36-10.4c4.5-1.3,7.2-6.1,5.9-10.6l-10.4-35.9
	C434.7,425.2,422.2,417.8,410.2,421.2z"/>
<path class="st9" d="M65.4,497.5l4.5-18.1c1.1-4.4-1.2-9-5.3-10.8l-17.1-7.5c-4.7-2-4.8-8.6-0.3-10.8L94.4,427
	c3.6-1.8,7.8-1.9,11.5-0.3l23,10c4.2,1.8,6.4,6.4,5.3,10.8l-6.1,24.4c-1,3.9-3.6,7.2-7.2,9l-47.2,23.3
	C69.3,506.5,64.2,502.4,65.4,497.5z"/>
<path class="st7" d="M113.8,460c-3.9-1.3-8.2,0.8-9.5,4.7l-7.6,22.4c-0.7,2-0.5,4,0.4,5.7l16.2-8l5.2-15.4
	C119.8,465.5,117.7,461.3,113.8,460z"/>
<path class="st7" d="M81.7,457.9c3.1,0,6-2,7.1-5.1c1.3-3.9-0.8-8.2-4.7-9.5l-13.5-4.6l-16.2,8c0.8,1.7,2.4,3.1,4.3,3.8l20.6,7
	C80.1,457.8,80.9,457.9,81.7,457.9z"/>
</svg>
