<svg height="511pt" viewBox="0 -29 511.9997 511" width="511pt" xmlns="http://www.w3.org/2000/svg"><path d="m413.828125 413.578125c-1.222656 0-2.460937-.296875-3.605469-.925781-47.121094-25.90625-100.449218-39.597656-154.222656-39.597656s-107.101562 13.691406-154.222656 39.597656c-3.625 1.996094-8.1875.667968-10.183594-2.960938s-.671875-8.191406 2.957031-10.1875c49.328125-27.117187 105.15625-41.453125 161.449219-41.453125 56.289062 0 112.117188 14.335938 161.445312 41.453125 3.632813 1.996094 4.957032 6.558594 2.960938 10.1875-1.363281 2.484375-3.929688 3.886719-6.578125 3.886719zm0 0" fill="#395d6e"/><path d="m475.179688 186.601562c-43.609376-51.898437-95.902344-14.832031-128.800782 9.003907l.8125 63.097656c6.570313 7.503906 13.636719 14.464844 21.757813 18.851563 8.121093 4.386718 17.429687 6.054687 26.230469 2.839843 6.890624-2.515625 13.363281-8.332031 17.359374-16.171875 2.039063 2.464844 4.226563 4.710938 6.585938 6.660156 8.296875 6.839844 18.835938 9.8125 28.703125 6.167969 5.949219-2.199219 11.5-7.042969 15.425781-13.414062 20.125 24.382812 42.191406 40.476562 45.742188 35.648437 5.59375-7.597656 7.671875-63.3125-33.816406-112.683594zm0 0" fill="#f5eef3"/><path d="m375.273438 254.507812c5.238281-1.28125 10.265624-3.652343 14.429687-6.839843 3.832031-2.9375 9.042969-3.183594 13.25-.8125.117187.0625.230469.128906.347656.195312 9.710938 5.367188 22.046875 7.695313 33.597657 4.835938 6.960937-1.722657 13.457031-5.523438 18.050781-10.519531 23.558593 19.125 49.382812 31.746093 53.539062 27.960937.878907-.800781 1.683594-2.292969 2.300781-4.359375 2.511719 17.835938.71875 30.910156-1.789062 34.316406-3.550781 4.828125-25.617188-11.261718-45.746094-35.648437-3.925781 6.371093-9.472656 11.21875-15.421875 13.414062-9.867187 3.644531-20.410156.675781-28.703125-6.167969-2.363281-1.949218-4.550781-4.191406-6.585937-6.660156-4 7.839844-10.46875 13.65625-17.363281 16.171875-8.796876 3.214844-18.105469 1.546875-26.226563-2.839843-8.121094-4.386719-15.1875-11.347657-21.757813-18.851563l-.070312-5.566406c8.875 2.78125 18.757812 3.671875 28.148438 1.371093zm0 0" fill="#bed0e9"/><path d="m36.820312 186.601562c43.609376-51.898437 95.902344-14.832031 128.800782 9.003907l-.8125 63.097656c-6.570313 7.503906-13.636719 14.464844-21.757813 18.851563-8.121093 4.386718-17.429687 6.054687-26.230469 2.839843-6.890624-2.515625-13.359374-8.332031-17.359374-16.171875-2.039063 2.464844-4.226563 4.710938-6.585938 6.660156-8.296875 6.839844-18.835938 9.8125-28.703125 6.167969-5.949219-2.199219-11.5-7.042969-15.425781-13.414062-20.128906 24.386719-42.191406 40.476562-45.742188 35.648437-5.59375-7.597656-7.667968-63.3125 33.816406-112.683594zm0 0" fill="#f5eef3"/><path d="m136.730469 254.507812c-5.238281-1.28125-10.265625-3.652343-14.429688-6.839843-3.835937-2.9375-9.042969-3.183594-13.25-.8125-.117187.0625-.234375.128906-.351562.195312-9.707031 5.367188-22.042969 7.695313-33.59375 4.835938-6.960938-1.722657-13.457031-5.523438-18.050781-10.519531-23.558594 19.125-49.382813 31.746093-53.539063 27.960937-.878906-.800781-1.6875-2.292969-2.300781-4.359375-2.515625 17.835938-.71875 30.910156 1.789062 34.316406 3.550782 4.828125 25.617188-11.261718 45.742188-35.648437 3.925781 6.371093 9.476562 11.21875 15.425781 13.414062 9.867187 3.644531 20.40625.675781 28.703125-6.167969 2.359375-1.949218 4.550781-4.191406 6.585938-6.660156 4 7.839844 10.46875 13.65625 17.359374 16.171875 8.800782 3.214844 18.105469 1.546875 26.230469-2.839843 8.121094-4.386719 15.1875-11.347657 21.757813-18.851563l.070312-5.566406c-8.875 2.78125-18.757812 3.671875-28.148437 1.371093zm0 0" fill="#bed0e9"/><path d="m345.257812 270c0-33.496094-39.960937-60.652344-89.257812-60.652344s-89.257812 27.15625-89.257812 60.652344c0 33.492188 39.960937 60.648438 89.257812 60.648438s89.257812-27.15625 89.257812-60.648438zm0 0" fill="#f5eef3"/><path d="m361.316406 368.320312c1.191406 3.480469 1.6875 7.1875 1.335938 10.992188-1.515625 16.4375-18.117188 28.34375-37.074219 26.59375-18.960937-1.746094-33.101563-16.492188-31.585937-32.929688 1.378906-14.949218 15.242187-26.152343 32.007812-26.738281 8.703125-36.484375-8.976562-67.148437-23.070312-81.171875-7.863282-7.828125-7.894532-20.546875-.070313-28.410156s20.546875-7.894531 28.410156-.066406c16.023438 15.945312 28.347657 38.375 33.816407 61.535156 5.535156 23.441406 4.203124 47.363281-3.769532 70.195312zm-210.632812 0c-1.191406 3.480469-1.6875 7.1875-1.335938 10.992188 1.515625 16.4375 18.117188 28.34375 37.074219 26.59375 18.960937-1.746094 33.101563-16.492188 31.585937-32.929688-1.378906-14.949218-15.242187-26.152343-32.007812-26.738281-8.703125-36.484375 8.976562-67.148437 23.070312-81.171875 7.863282-7.828125 7.894532-20.546875.070313-28.410156s-20.546875-7.894531-28.410156-.066406c-16.023438 15.945312-28.347657 38.375-33.816407 61.535156-5.535156 23.441406-4.203124 47.363281 3.769532 70.195312zm0 0" fill="#ffcca9"/><path d="m359.0625 220.035156c-2.648438 0-5.214844-1.40625-6.578125-3.894531-1.996094-3.628906-.667969-8.1875 2.960937-10.183594 8.183594-4.492187 17.4375-7.011719 26.769532-7.285156 4.152344-.148437 7.59375 3.136719 7.714844 7.277344.121093 4.140625-3.136719 7.59375-7.277344 7.714843-6.964844.203126-13.875 2.085938-19.984375 5.441407-1.148438.628906-2.386719.929687-3.605469.929687zm0 0"/><path d="m152.9375 220.035156c-1.21875 0-2.457031-.300781-3.601562-.929687-6.109376-3.355469-13.023438-5.238281-19.988282-5.441407-4.140625-.121093-7.398437-3.574218-7.277344-7.714843.121094-4.140625 3.535157-7.402344 7.71875-7.277344 9.328126.273437 18.585938 2.792969 26.765626 7.285156 3.632812 1.996094 4.957031 6.554688 2.964843 10.1875-1.367187 2.484375-3.933593 3.890625-6.582031 3.890625zm0 0"/><path d="m209.136719 236.65625c-7.824219-7.863281-20.542969-7.894531-28.40625-.066406-8.53125 8.488281-15.996094 18.824218-21.953125 30.117187 6.308594 11.96875 16.792968 22.46875 30.1875 30.582031 5.09375-14.007812 13.050781-25.203124 20.105468-32.222656 7.863282-7.828125 7.894532-20.546875.066407-28.410156zm0 0" fill="#ffa076"/><path d="m353.222656 266.707031c-5.957031-11.296875-13.421875-21.628906-21.953125-30.117187-7.863281-7.828125-20.582031-7.796875-28.40625.066406-7.828125 7.863281-7.796875 20.582031.066407 28.410156 7.058593 7.019532 15.011718 18.214844 20.105468 32.222656 13.394532-8.113281 23.878906-18.613281 30.1875-30.582031zm0 0" fill="#ffa076"/><path d="m403.546875 219.347656c-4.226563 9.636719-12.925781 17.285156-23.117187 19.941406-7.375 1.910157-15.410157 1.117188-22.3125-2.078124-7.527344 28.789062-38.179688 51.734374-77.621094 58.570312-5.945313 6.871094-14.699219 11.230469-24.496094 11.230469s-18.550781-4.359375-24.496094-11.230469c-39.441406-6.835938-70.09375-29.78125-77.621094-58.570312-6.902343 3.195312-14.9375 3.988281-22.3125 2.078124-10.191406-2.65625-18.890624-10.304687-23.117187-19.941406-2.859375-6.542968-3.707031-14.15625-1.289063-20.882812 2.734376-7.625 9.511719-13.082032 17.308594-15.5 4.25-1.324219 8.804688-1.75 13.175782-1.140625 8.644531 1.207031 16.417968 5.761719 22.652343 11.953125 18.304688-5.492188 38.640625-31.308594 26.777344-64.4375 32.644531 15.039062 54.3125 14.078125 65.523437-3.09375 19.261719 10.878906 48.152344 18 74.796876 12.53125.765624 18.921875 4.753906 41.542968 24.300781 55 6.238281-6.191406 14.011719-10.746094 22.65625-11.953125 5.273437-.734375 10.8125.035156 15.757812 2.078125 6.691407 2.734375 12.292969 7.796875 14.722657 14.5625 2.417968 6.722656 1.570312 14.339844-1.289063 20.882812zm0 0" fill="#ffcca9"/><g fill="#395d6e"><path d="m212.378906 193.960938c-4.144531 0-7.5-3.355469-7.5-7.5v-2.695313c0-4.140625 3.355469-7.5 7.5-7.5 4.140625 0 7.5 3.359375 7.5 7.5v2.695313c0 4.144531-3.359375 7.5-7.5 7.5zm0 0"/><path d="m299.621094 193.960938c-4.140625 0-7.5-3.355469-7.5-7.5v-2.695313c0-4.140625 3.359375-7.5 7.5-7.5 4.144531 0 7.5 3.359375 7.5 7.5v2.695313c0 4.144531-3.355469 7.5-7.5 7.5zm0 0"/><path d="m256.003906 244.371094c-14.132812 0-26.675781-8.46875-31.953125-21.578125-1.550781-3.839844.3125-8.210938 4.152344-9.757813s8.210937.3125 9.761719 4.15625c2.976562 7.398438 10.0625 12.179688 18.039062 12.179688 7.972656 0 15.054688-4.78125 18.03125-12.179688 1.550782-3.84375 5.917969-5.703125 9.761719-4.15625s5.703125 5.917969 4.152344 9.757813c-5.277344 13.109375-17.820313 21.578125-31.945313 21.578125zm0 0"/></g><path d="m390.113281 183.902344c-4.949219-2.042969-10.484375-2.8125-15.761719-2.078125-8.640624 1.207031-16.414062 5.761719-22.652343 11.953125-25.625-17.648438-24.507813-51.035156-24.472657-71.203125 0 0 1.128907-17.015625 24.472657-14.125 22.304687 2.769531 51.171875 26.667969 38.414062 75.453125zm0 0" fill="#ffdc61"/><path d="m372.636719 110.507812c-12.078125 16.121094-28.203125 24.765626-45.242188 28.269532-26.640625 5.46875-55.53125-1.652344-74.796875-12.53125-11.207031 17.171875-32.878906 18.132812-65.519531 3.09375 11.863281 33.128906-8.472656 58.945312-26.777344 64.4375-6.238281-6.191406-14.011719-10.746094-22.65625-11.953125-4.371093-.609375-8.925781-.183594-13.171875 1.140625-16.25-21.613282-20.101562-51.738282 6.867188-76.027344-14.414063-86.84375 103.191406-103.949219 133.132812-83.984375 94.582032-70.242187 141.777344 42.71875 108.164063 87.554687zm0 0" fill="#ffdc61"/><path d="m306.050781 2.292969c38.550781 11.441406 52.597657 74.746093 32.132813 105.390625-10.484375 15.707031-24.476563 24.128906-39.265625 27.542968-6.253907 1.441407-12.652344 1.976563-18.988281 1.792969 14.949218 3.804688 31.605468 5.011719 47.46875 1.757813 17.035156-3.503906 33.160156-12.148438 45.238281-28.269532 28.242187-37.667968-.566407-123.425781-66.585938-108.214843zm0 0" fill="#f7ad48"/><path d="m226.167969 77.609375c-3.976563 1.164063-6.257813 5.328125-5.097657 9.304687 1.160157 3.972657 5.324219 6.257813 9.300782 5.09375 8.613281-2.515624 17.988281-.511718 23.320312 5 4.75 4.90625 5.757813 12.066407 2.925782 20.703126-.964844 2.929687-2.183594 5.902343-3.894532 8.605468 4.132813 2.324219 8.707032 4.476563 13.605469 6.371094 1.921875-3.328125 3.402344-6.835938 4.539063-10.296875 4.617187-14.0625 2.34375-26.78125-6.394532-35.8125-9.238281-9.550781-24.273437-13.066406-38.304687-8.96875zm0 0" fill="#f7ad48"/><path d="m410.964844 369.441406c-6.179688 1.699219-11.03125 5.761719-13.894532 10.945313-2.8125 5.089843-3.699218 11.269531-1.949218 17.308593l.285156 1-.996094.289063c-6.042968 1.730469-10.804687 5.769531-13.617187 10.859375-2.863281 5.183594-3.722657 11.453125-1.875 17.585938 3.617187 12.015624 16.53125 18.636718 28.585937 15.164062l36.023438-10.378906c4.550781-1.3125 7.175781-6.066406 5.863281-10.617188l-10.378906-36.019531c-3.472657-12.058594-15.949219-19.464844-28.046875-16.136719zm0 0" fill="#ff87b3"/><path d="m65.511719 445.9375 4.5-18.152344c1.097656-4.425781-1.15625-8.996094-5.335938-10.820312l-17.144531-7.472656c-4.660156-2.03125-4.8125-8.582032-.257812-10.832032l47.296874-23.332031c3.625-1.789063 7.855469-1.886719 11.5625-.273437l23.089844 10.066406c4.179688 1.820312 6.433594 6.394531 5.335938 10.820312l-6.0625 24.449219c-.972656 3.925781-3.625 7.21875-7.25 9.007813l-47.292969 23.332031c-4.558594 2.25-9.664063-1.859375-8.441406-6.792969zm0 0" fill="#00d1b6"/><path d="m114.042969 408.3125c-3.921875-1.332031-8.179688.769531-9.511719 4.691406l-7.628906 22.492188c-.667969 1.960937-.472656 4.007812.375 5.726562l16.238281-8.011718 5.21875-15.386719c1.332031-3.921875-.765625-8.183594-4.691406-9.511719zm0 0" fill="#00b88e"/><path d="m81.898438 406.234375c3.125 0 6.042968-1.96875 7.105468-5.09375 1.328125-3.921875-.773437-8.179687-4.695312-9.511719l-13.496094-4.578125-16.238281 8.011719c.847656 1.71875 2.355469 3.117188 4.316406 3.78125l20.601563 6.992188c.796874.269531 1.609374.398437 2.40625.398437zm0 0" fill="#00b88e"/></svg>