<?xml version="1.0" encoding="utf-8"?>
<!-- Generator: Adobe Illustrator 23.0.1, SVG Export Plug-In . SVG Version: 6.00 Build 0)  -->
<svg version="1.1" id="Layer_1" xmlns="http://www.w3.org/2000/svg" xmlns:xlink="http://www.w3.org/1999/xlink" x="0px" y="0px"
	 viewBox="0 0 469.9 570.6" style="enable-background:new 0 0 469.9 570.6;" xml:space="preserve">
<style type="text/css">
	.st0{fill:#B3782A;}
	.st1{fill:#FFB655;}
	.st2{fill:#EFBE9A;}
	.st3{fill:#DB9B7C;}
	.st4{fill:#363B51;}
	.st5{fill:#FF6243;}
	.st6{fill:#FFDE55;}
	.st7{fill:#8BD2F5;}
</style>
<g>
	<path class="st0" d="M160.2,314.3l-93.5,28.9c-27,8.3-45.2,33.2-45.2,61.1v166.3h427.2V404.3c0-28.2-18.3-53-45.2-61.3l-93.5-28.7"
		/>
	<path class="st1" d="M371.3,343.2l-93.5-28.9H160.2l-93.5,28.9c-27,8.3-45.2,33.2-45.2,61.1v166.3h395.2V404.3
		C416.5,376.2,398.2,351.5,371.3,343.2z"/>
	<path class="st0" d="M150.6,317.2l31,82.5l53.4-53.4l-80.6-30.1L150.6,317.2z"/>
	<path class="st0" d="M315.5,316.2l-80.6,30.1l53.4,53.4l31-82.5L315.5,316.2z"/>
	<path class="st0" d="M395.2,485.2h74.7v42.7h-74.7L395.2,485.2L395.2,485.2z"/>
	<path class="st0" d="M0,485.2h74.7v42.7H0V485.2z"/>
	<path class="st2" d="M395.2,527.9h53.4v42.7h-53.4V527.9z"/>
	<path class="st2" d="M21.3,527.9h53.4v42.7H21.3V527.9z"/>
	<path class="st2" d="M343.5,205h19.8c22,0,39.7-17.7,39.7-39.7c0-22-17.7-39.7-39.7-39.7h-19.8"/>
	<path class="st3" d="M105.4,105.8V205c0,71.2,57.8,129,129,129s129-57.8,129-129v-99.2C352.5-3.4,234.3,0,234.3,0
		C104.3,2,105.4,105.8,105.4,105.8"/>
	<path class="st3" d="M125.2,205h-19.8c-21.9,0-39.7-17.7-39.7-39.7c0-22,17.7-39.7,39.7-39.7h19.8"/>
	<path class="st2" d="M234.3,0c-126,0-128.9,105.8-128.9,105.8V205c0,66.3,49.8,120.7,114.1,128.1c64.2-7.4,114.1-61.9,114.1-128.1
		v-99.2C328.9,5.6,234.3,0,234.3,0z"/>
	<path class="st4" d="M177.3,196.2c-4.8,0-8.7-4-8.7-8.7v-2.3c0-4.8,4-8.7,8.7-8.7c4.8,0,8.7,4,8.7,8.7v2.3
		C186.1,192.3,182.1,196.2,177.3,196.2z"/>
	<path class="st4" d="M291.3,196.2c-4.8,0-8.7-4-8.7-8.7v-2.3c0-4.8,4-8.7,8.7-8.7c4.8,0,8.7,4,8.7,8.7v2.3
		C300.1,192.3,296.1,196.2,291.3,196.2z"/>
	<path class="st4" d="M234.9,252.5c14.2,0,27.4,2.9,37.4,8.3c4.3,2.2,5.8,7.6,3.6,11.7c-2.2,4.3-7.6,5.8-11.7,3.6
		c-7.4-4-18-6.2-29.2-6.2c-11.2,0-21.9,2.2-29.2,6.2c-4.3,2.3-9.5,0.7-11.7-3.6c-2.2-4.3-0.7-9.5,3.6-11.7
		C207.3,255.4,220.7,252.5,234.9,252.5z"/>
	<g>
		<path class="st5" d="M312.3,82.8c0,43.2-35,78.3-78.2,78.3c-43.2,0-78.3-35-78.3-78.3s35-78.3,78.3-78.3
			C277.3,4.5,312.3,39.6,312.3,82.8z"/>
		<path class="st6" d="M300.3,82.8c0,36.6-29.6,66.2-66.2,66.2s-66.2-29.6-66.2-66.2s29.6-66.2,66.2-66.2
			C270.6,16.6,300.3,46.2,300.3,82.8z"/>
		<path class="st1" d="M276.2,82.8c0,23.3-18.9,42.1-42.1,42.1s-42.1-18.9-42.1-42.1s18.9-42.1,42.1-42.1
			C257.3,40.6,276.2,59.5,276.2,82.8z"/>
		<path class="st5" d="M246.3,82.8c0,6.8-5.5,12.3-12.3,12.3s-12.3-5.5-12.3-12.3s5.5-12.3,12.3-12.3S246.3,76,246.3,82.8z"/>
	</g>
	<path class="st7" d="M291.3,205c0,0-24,31.8-5.3,39.9h5.3"/>
	<path class="st7" d="M291.3,205c0,0,24,31.8,5.3,39.9h-5.3"/>
	<circle class="st6" cx="234.9" cy="376.8" r="10.5"/>
	<circle class="st6" cx="234.9" cy="419.8" r="10.5"/>
	<circle class="st6" cx="234.9" cy="462.8" r="10.5"/>
	<circle class="st6" cx="234.9" cy="505.8" r="10.5"/>
	<circle class="st6" cx="234.9" cy="548.8" r="10.5"/>
</g>
</svg>
