<?xml version="1.0" encoding="utf-8"?>
<!-- Generator: Adobe Illustrator 23.0.1, SVG Export Plug-In . SVG Version: 6.00 Build 0)  -->
<svg version="1.1" id="Capa_1" xmlns="http://www.w3.org/2000/svg" xmlns:xlink="http://www.w3.org/1999/xlink" x="0px" y="0px"
	 viewBox="0 0 436.5 622.4" style="enable-background:new 0 0 436.5 622.4;" xml:space="preserve">
<style type="text/css">
	.st0{fill:#3D722C;}
	.st1{fill:#74AD61;}
	.st2{fill:#66ACD7;}
	.st3{fill:#EFBE9A;}
	.st4{fill:#5880A2;}
	.st5{fill:#DB9B7C;}
	.st6{fill:#363B51;}
	.st7{fill:#484655;}
	.st8{fill:#996E3A;}
	.st9{fill:#35343F;}
	.st10{fill-rule:evenodd;clip-rule:evenodd;fill:#996E3A;}
	.st11{fill-rule:evenodd;clip-rule:evenodd;fill:#E5AF6E;}
	.st12{fill-rule:evenodd;clip-rule:evenodd;fill:#51993A;}
</style>
<path class="st0" d="M148.8,384.3l-86.9,26.8c-25.1,7.7-42,30.8-42,56.8v154.5h396.9V467.9c0-26.2-17-49.2-42-56.9l-86.9-26.7"/>
<path class="st1" d="M344.9,411.1L258,384.3H148.8l-86.9,26.8c-25.1,7.7-42,30.8-42,56.8v154.5H387V467.9
	C386.9,441.8,369.9,418.8,344.9,411.1z"/>
<path class="st2" d="M139.9,387l28.8,76.6l49.6-49.6l-74.9-28L139.9,387z"/>
<path class="st2" d="M293.1,386l-74.9,28l49.6,49.6l28.8-76.6L293.1,386z"/>
<path class="st0" d="M367.1,543h69.4v39.7h-69.4V543L367.1,543z"/>
<path class="st0" d="M0,543h69.4v39.7H0V543z"/>
<path class="st3" d="M367.1,582.7h49.6v39.7h-49.6V582.7z"/>
<path class="st3" d="M19.8,582.7h49.6v39.7H19.8V582.7z"/>
<path class="st4" d="M69.4,523.2H367v99.2H69.4V523.2L69.4,523.2z"/>
<path class="st4" d="M327.4,394.2l-39.7-9.9v178.6h39.7V394.2z"/>
<path class="st4" d="M109.1,394.2l39.7-9.9v178.6h-39.7V394.2z"/>
<path class="st5" d="M109.1,275.1H89.3c-21.9,0-39.7-17.7-39.7-39.7c0-22,17.7-39.7,39.7-39.7h19.8"/>
<path class="st3" d="M327.4,275.1h19.8c22,0,39.7-17.7,39.7-39.7c0-22-17.7-39.7-39.7-39.7h-19.8"/>
<path class="st5" d="M89.3,175.9v99.2c0,71.2,57.8,129,129,129s129-57.8,129-129v-99.2"/>
<path class="st3" d="M203.4,403.2c64.2-7.4,114.1-61.9,114.1-128.1v-99.2H89.3v99.2C89.3,341.4,139.1,395.8,203.4,403.2z"/>
<path class="st6" d="M161.2,266.3c-4.8,0-8.7-4-8.7-8.7v-2.3c0-4.8,4-8.7,8.7-8.7c4.8,0,8.7,4,8.7,8.7v2.3
	C170,262.4,166,266.3,161.2,266.3z"/>
<path class="st6" d="M275.2,266.3c-4.8,0-8.7-4-8.7-8.7v-2.3c0-4.8,4-8.7,8.7-8.7c4.8,0,8.7,4,8.7,8.7v2.3
	C284,262.4,280,266.3,275.2,266.3z"/>
<path class="st1" d="M247.1,0h-139C97.4,0,88.7,9.8,88.7,21.8c0,12,8.7,21.8,19.5,21.8h7.4c1.6,0,3,1.5,3,3.3c0,1.8-1.3,3.3-3,3.3
	h-5.9c-15.4,0-28,14.1-28,31.4v64.8c0,4.6,3.3,8.4,7.5,8.4h253c4.1,0,7.5-3.7,7.5-8.4v-31.8C349.5,51.5,303.6,0,247.1,0z"/>
<g>
	<path class="st0" d="M247.1,0h-25.8c56.4,0,102.4,51.5,102.4,114.8v31.8c0,4.6-3.3,8.4-7.5,8.4H342c4.1,0,7.5-3.7,7.5-8.4v-31.8
		C349.5,51.5,303.6,0,247.1,0z"/>
	<path class="st0" d="M83.9,131.3h263.2c14.2,0,25.8,12.9,25.8,28.9V173c0,16-11.5,28.9-25.8,28.9H83.9c-14.2,0-25.8-12.9-25.8-28.9
		v-12.8C58.2,144.2,69.7,131.3,83.9,131.3z"/>
</g>
<path class="st0" d="M151,67c4.1,0,7.5-3.7,7.5-8.4s-3.3-8.4-7.5-8.4h-35.5h-5.9c-10.7,0-20,6.8-24.7,16.7L151,67L151,67z"/>
<path class="st7" d="M347,263.4c-6.1,39-29.5,72.4-62.1,91.8v-12.6c0-33.3-27-60.3-60.3-60.3h-12.7c-33.3,0-60.3,27-60.3,60.3v12.6
	c-32.6-19.5-56-52.8-62.1-91.8h-1.6v77.5c0,72,58.4,130.3,130.3,130.3s130.3-58.4,130.3-130.3v-77.5L347,263.4L347,263.4z
	 M249.2,362.2c0,10.3-8.3,18.6-18.6,18.6h-24.9c-10.3,0-18.6-8.3-18.6-18.6v-4.4c0-17.1,13.9-31,31-31l0,0c17.1,0,31,13.9,31,31
	L249.2,362.2L249.2,362.2z"/>
<g>
	<path class="st8" d="M281.4,503.6v18.4c0,2.7,2.2,4.9,4.9,4.9h51.2c2.7,0,4.9-2.2,4.9-4.9v-18.4c0-2.7-2.2-4.9-4.9-4.9h-51.2
		C283.6,498.7,281.4,500.9,281.4,503.6z"/>
	<path class="st8" d="M92.6,503.6v18.4c0,2.7,2.2,4.9,4.9,4.9h51.2c2.7,0,4.9-2.2,4.9-4.9v-18.4c0-2.7-2.2-4.9-4.9-4.9H97.6
		C94.8,498.7,92.6,500.9,92.6,503.6z"/>
</g>
<g>
	<path class="st9" d="M219.6,558.6c-0.6,0-1.1-0.1-1.7-0.2c-0.6-0.1-1.1-0.3-1.6-0.5c-0.5-0.2-1-0.5-1.5-0.8
		c-0.5-0.3-0.9-0.7-1.3-1.1c-0.4-0.4-0.8-0.8-1.1-1.3c-0.3-0.5-0.6-1-0.8-1.5c-0.2-0.5-0.4-1.1-0.5-1.6c-0.1-0.6-0.2-1.1-0.2-1.7
		s0.1-1.1,0.2-1.7c0.1-0.6,0.3-1.1,0.5-1.6c0.2-0.5,0.5-1,0.8-1.5c0.3-0.5,0.7-0.9,1.1-1.3c0.4-0.4,0.8-0.8,1.3-1.1
		c0.5-0.3,1-0.6,1.5-0.8c0.5-0.2,1.1-0.4,1.6-0.5c1.1-0.2,2.3-0.2,3.4,0c0.5,0.1,1.1,0.3,1.6,0.5c0.5,0.2,1,0.5,1.5,0.8
		c0.5,0.3,0.9,0.7,1.3,1.1c0.4,0.4,0.8,0.8,1.1,1.3c0.3,0.5,0.6,1,0.8,1.5c0.2,0.5,0.4,1.1,0.5,1.6c0.1,0.6,0.2,1.1,0.2,1.7
		s-0.1,1.1-0.2,1.7c-0.1,0.6-0.3,1.1-0.5,1.6c-0.2,0.5-0.5,1-0.8,1.5c-0.3,0.5-0.7,0.9-1.1,1.3c-0.4,0.4-0.9,0.8-1.3,1.1
		c-0.5,0.3-1,0.6-1.5,0.8c-0.5,0.2-1.1,0.4-1.6,0.5C220.7,558.5,220.1,558.6,219.6,558.6z"/>
	<path class="st9" d="M219.6,602.4c-0.6,0-1.1-0.1-1.7-0.2c-0.5-0.1-1.1-0.3-1.6-0.5c-0.5-0.2-1-0.5-1.5-0.8
		c-0.5-0.3-0.9-0.7-1.3-1.1c-0.4-0.4-0.8-0.8-1.1-1.3c-0.3-0.5-0.6-1-0.8-1.5c-0.2-0.5-0.4-1.1-0.5-1.6c-0.1-0.6-0.2-1.1-0.2-1.7
		c0-0.6,0.1-1.2,0.2-1.7c0.1-0.6,0.3-1.1,0.5-1.6c0.2-0.5,0.5-1,0.8-1.5c0.3-0.5,0.7-0.9,1.1-1.3c0.4-0.4,0.8-0.8,1.3-1.1
		c0.5-0.3,1-0.6,1.5-0.8c0.5-0.2,1.1-0.4,1.6-0.5c1.1-0.2,2.3-0.2,3.4,0c0.5,0.1,1.1,0.3,1.6,0.5c0.5,0.2,1,0.5,1.5,0.8
		c0.5,0.3,0.9,0.7,1.3,1.1c0.4,0.4,0.8,0.8,1.1,1.3c0.3,0.5,0.6,1,0.8,1.5c0.2,0.5,0.4,1.1,0.5,1.6c0.1,0.6,0.2,1.1,0.2,1.7
		c0,0.6-0.1,1.1-0.2,1.7c-0.1,0.6-0.3,1.1-0.5,1.6c-0.2,0.5-0.5,1-0.8,1.5c-0.3,0.5-0.7,0.9-1.1,1.3c-0.4,0.4-0.9,0.8-1.3,1.1
		c-0.5,0.3-1,0.6-1.5,0.8c-0.5,0.2-1.1,0.4-1.6,0.5C220.7,602.4,220.1,602.4,219.6,602.4z"/>
</g>
<g>
	<circle class="st10" cx="311.9" cy="512.9" r="48.7"/>
	<circle class="st11" cx="311.9" cy="512.9" r="43"/>
	<path class="st12" d="M304.4,511c-1.9,4.1-4.7,6.4-9.1,5.9c-3.4-0.4-5.8-2.3-6.8-5.6c-1.4-4.3,0.4-7.6,3.8-10.1
		c-3.2-7.7-1.1-11.4,7.5-13.8c0.4-7.2,6.7-8.6,11-4.4c1.3-2.6,3.3-4.4,6.4-4c3.3,0.4,4.9,2.7,5.2,5.8c8.9-0.9,13.4,8.2,7.1,15.1
		c3.4,2.3,5,5.5,3.9,9.6c-1.2,4.5-5.4,6.9-10.3,5.6c-1.3-0.3-2.1-0.1-2.8,0.9c-0.9,1.2-1.7,2.4-2.7,3.3c-4.5,4.1-4.1,9.4-3.8,14.7
		c0,0.6,1.3,1.4,2.2,1.5c5.4,1,10.2,3.4,15.1,6.8c-13.1,0-25.8,0-38.8,0c3.7-3,7.7-4.9,12-6.2c1.6-0.5,4-0.4,4.8-1.5
		c0.9-1.3,0.4-3.5,0.4-5.3c0-2.4,0-4.8,0-7.2C309.6,517.9,307.9,514.3,304.4,511z M314,518.5c0.3,0,0.6,0.1,0.8,0.1
		c1.3-1.6,2.7-3.3,4-4.9c0.2-0.3,0.2-0.9,0.1-1.3c-0.7-2-1.4-3.9-2.2-6c-2.3,0-3.2,1.4-3,3.9c0.2,1.6,0,3.2,0,4.7
		C313.8,516.3,313.9,517.4,314,518.5z M308.6,511.8c2.9-5.5-2.7-6.2-3.7-9.5c-0.8,0.5-1.3,0.9-2.3,1.5
		C304.6,506.5,306.5,509,308.6,511.8z"/>
</g>
</svg>
