<?xml version="1.0" encoding="utf-8"?>
<!-- Generator: Adobe Illustrator 16.0.0, SVG Export Plug-In . SVG Version: 6.00 Build 0)  -->
<!DOCTYPE svg PUBLIC "-//W3C//DTD SVG 1.1//EN" "http://www.w3.org/Graphics/SVG/1.1/DTD/svg11.dtd">
<svg version="1.1" id="Calque_1" xmlns="http://www.w3.org/2000/svg" xmlns:xlink="http://www.w3.org/1999/xlink" x="0px" y="0px"
	 width="647.335px" height="566.156px" viewBox="0 0 647.335 566.156" enable-background="new 0 0 647.335 566.156"
	 xml:space="preserve">
<g>
	<g>
		<polygon fill="#A97C50" points="55.688,120.632 55.491,180.42 342.302,179.169 342.105,120.632 		"/>
		<path fill="#75B177" d="M128.995,328.064l-86.897,26.799c-25.099,7.699-41.999,30.799-41.999,56.797v154.496h396.888V411.66
			c0-26.199-17-49.197-42-56.896l-86.896-26.697"/>
		<path fill="#9BD199" d="M325.089,354.863l-86.896-26.799H128.995l-86.897,26.799c-25.099,7.699-41.999,30.799-41.999,56.797
			v154.496h367.09V411.66C367.087,385.563,350.089,362.563,325.089,354.863z"/>
		<path fill="#EEBE9A" d="M347.289,526.457h49.598v39.699h-49.598V526.457z"/>
		<path fill="#EEBE9A" d="M0,526.457h49.598v39.699H0V526.457z"/>
		<path fill="#EEBE9A" d="M281.463,332.083l-52.114-16.208h-64l-50.415,16.216c0,0,8.415,47.097,74.415,44.722
			C189.349,376.813,274.578,382.729,281.463,332.083"/>
		<path fill="#DC9C7D" d="M279.242,341.068l-28.893-9.693l10.5-7.5l20.614,8.208C282.078,336.729,279.242,341.068,279.242,341.068z"
			/>
		<path fill="#EEBE9A" d="M307.589,218.868h19.801c21.998,0,39.697-17.699,39.697-39.699c0-21.999-17.699-39.699-39.697-39.699
			h-19.801"/>
		<path fill="#DC9C7D" d="M69.497,119.671v99.197c0,71.198,57.798,128.997,128.996,128.997c71.198,0,128.997-57.799,128.997-128.997
			v-99.197C316.63,10.466,198.393,13.876,198.393,13.876C68.437,15.876,69.497,119.671,69.497,119.671"/>
		<path fill="#DC9C7D" d="M89.297,218.868H69.498c-21.899,0-39.699-17.699-39.699-39.699c0-21.999,17.699-39.699,39.699-39.699
			h19.799"/>
		<path fill="#EEBE9A" d="M198.393,13.876c-125.956,0-128.896,105.795-128.896,105.795v99.197
			c0,66.298,49.798,120.696,114.095,128.095c64.199-7.398,114.098-61.896,114.098-128.095v-99.197
			C293.034,19.466,198.393,13.876,198.393,13.876z"/>
		<path fill="#373C51" d="M141.395,210.068c-4.8,0-8.7-4-8.7-8.7v-2.3c0-4.8,4-8.7,8.7-8.7c4.801,0,8.7,4,8.7,8.7v2.3
			C150.196,206.168,146.196,210.068,141.395,210.068z"/>
		<path fill="#373C51" d="M255.392,210.068c-4.801,0-8.699-4-8.699-8.7v-2.3c0-4.8,4-8.7,8.699-8.7c4.799,0,8.699,4,8.699,8.7v2.3
			C264.191,206.168,260.191,210.068,255.392,210.068z"/>
		<path fill="#373C51" d="M199.192,290.965c-14.199,0-27.398-2.898-37.398-8.299c-4.299-2.201-5.799-7.601-3.6-11.701
			c2.2-4.299,7.6-5.799,11.7-3.599c7.399,4,18,6.201,29.199,6.201c11.2,0,21.901-2.201,29.2-6.201c4.301-2.3,9.5-0.7,11.699,3.599
			c2.2,4.302,0.7,9.5-3.601,11.701C226.792,288.064,213.394,290.965,199.192,290.965z"/>
		<path fill="#A97C50" d="M198.714,0c162.487,3.544,142.843,138.691,142.843,138.691s-92.232,42.997-105.845-65.223h-0.363
			c-13.612,108.22-179.113,65.223-179.113,65.223S36.592,3.544,199.078,0"/>
	</g>
	<g>
		<path fill="#A97C50" d="M305.84,216.323c0,0-33.142,21.188-37.142,84.766h54.212c0,0-17.25-44.686-3.064-82.221L305.84,216.323z"
			/>
		<path fill="#A97C50" d="M591.769,216.323c0,0,33.141,21.188,37.141,84.766h-54.211c0,0,17.25-44.686,3.064-82.221L591.769,216.323
			z"/>
		<polygon fill="#A97C50" points="306.037,120.632 305.84,180.42 592.651,179.169 592.454,120.632 		"/>
		<path fill="#F9B834" d="M379.344,328.064l-86.897,26.799c-25.099,7.699-41.999,30.799-41.999,56.797v154.496h396.887V411.66
			c0-26.199-17-49.197-42-56.896l-86.896-26.697"/>
		<path fill="#FBD346" d="M575.438,354.863l-86.896-26.799H379.344l-86.897,26.799c-25.099,7.699-41.999,30.799-41.999,56.797
			v154.496h367.09V411.66C617.437,385.563,600.438,362.563,575.438,354.863z"/>
		<path fill="#EEBE9A" d="M597.638,526.457h49.598v39.699h-49.598V526.457z"/>
		<path fill="#EEBE9A" d="M250.349,526.457h49.598v39.699h-49.598V526.457z"/>
		<polyline fill="#E7E619" points="448.963,452.209 322.91,345.469 351.167,336.631 448.963,336.631 		"/>
		<polyline fill="#E7E619" points="448.415,452.209 574.469,345.469 546.211,336.631 448.415,336.631 		"/>
		<polygon fill="#EEBE9A" points="341.78,339.65 449.442,428.875 556.145,339.65 479.698,315.875 415.698,315.875 		"/>
		<polyline fill="#DC9C7D" points="548.04,346.963 500.698,331.375 511.198,323.875 556.145,339.65 		"/>
		<path fill="#EEBE9A" d="M557.938,218.868h19.801c21.998,0,39.698-17.699,39.698-39.699c0-21.999-17.7-39.699-39.698-39.699
			h-19.801"/>
		<path fill="#DC9C7D" d="M319.846,119.671v99.197c0,71.198,57.798,128.997,128.996,128.997
			c71.198,0,128.997-57.799,128.997-128.997v-99.197C566.979,10.466,448.742,13.876,448.742,13.876
			C318.786,15.876,319.846,119.671,319.846,119.671"/>
		<path fill="#DC9C7D" d="M339.646,218.868h-19.799c-21.899,0-39.699-17.699-39.699-39.699c0-21.999,17.699-39.699,39.699-39.699
			h19.799"/>
		<path fill="#EEBE9A" d="M448.742,13.876c-125.956,0-128.896,105.795-128.896,105.795v99.197
			c0,66.298,49.798,120.696,114.095,128.095c64.199-7.398,114.098-61.896,114.098-128.095v-99.197
			C543.383,19.466,448.742,13.876,448.742,13.876z"/>
		<path fill="#373C51" d="M391.744,210.068c-4.8,0-8.7-4-8.7-8.7v-2.3c0-4.8,4-8.7,8.7-8.7c4.801,0,8.7,4,8.7,8.7v2.3
			C400.545,206.168,396.545,210.068,391.744,210.068z"/>
		<path fill="#373C51" d="M505.741,210.068c-4.801,0-8.699-4-8.699-8.7v-2.3c0-4.8,4-8.7,8.699-8.7c4.799,0,8.699,4,8.699,8.7v2.3
			C514.54,206.168,510.54,210.068,505.741,210.068z"/>
		<path fill="#373C51" d="M449.541,290.965c-14.199,0-27.398-2.898-37.398-8.299c-4.299-2.201-5.799-7.601-3.6-11.701
			c2.2-4.299,7.6-5.799,11.7-3.599c7.399,4,18,6.201,29.199,6.201c11.2,0,21.901-2.201,29.2-6.201c4.301-2.3,9.5-0.7,11.699,3.599
			c2.2,4.302,0.7,9.5-3.601,11.701C477.141,288.064,463.743,290.965,449.541,290.965z"/>
		<path fill="#A97C50" d="M449.063,0C611.55,3.544,591.906,138.691,591.906,138.691S463.039,181.239,449.427,73.02h-0.363
			c-13.612,108.22-142.479,65.671-142.479,65.671S286.941,3.544,449.427,0"/>
	</g>
</g>
</svg>
