<svg xmlns="http://www.w3.org/2000/svg" height="512pt" version="1.1" viewBox="-31 0 512 512" width="512pt">
<g id="surface1">
<path d="M 450 405.699219 L 450 497 C 450 505.402344 443.402344 512 435 512 L 15 512 C 6.597656 512 0 505.402344 0 497 L 0 405.699219 L 108 305.5 L 133.199219 302.199219 L 225 331 L 229.199219 332.199219 L 316.800781 302.199219 L 342 305.5 Z M 450 405.699219 " style=" stroke:none;fill-rule:nonzero;fill:rgb(59.215686%,62.352941%,93.72549%);fill-opacity:1;" />
<path d="M 450 405.699219 L 450 497 C 450 505.402344 443.402344 512 435 512 L 225 512 L 225 331 L 229.199219 332.199219 L 316.800781 302.199219 L 342 305.5 Z M 450 405.699219 " style=" stroke:none;fill-rule:nonzero;fill:rgb(41.960784%,46.666667%,90.980392%);fill-opacity:1;" />
<path d="M 279.097656 309.402344 L 225 339.402344 L 170.902344 309.402344 C 163.101562 307.597656 158 299.199219 160.101562 291.398438 L 166.101562 267.699219 L 283.898438 267.699219 L 289.898438 291.398438 C 292 299.199219 286.898438 307.597656 279.097656 309.402344 Z M 279.097656 309.402344 " style=" stroke:none;fill-rule:nonzero;fill:rgb(100%,65.490196%,56.078431%);fill-opacity:1;" />
<path d="M 279.097656 309.402344 L 225 339.402344 L 225 267.699219 L 283.898438 267.699219 L 289.898438 291.398438 C 292 299.199219 286.898438 307.597656 279.097656 309.402344 Z M 279.097656 309.402344 " style=" stroke:none;fill-rule:nonzero;fill:rgb(97.254902%,58.431373%,50.196078%);fill-opacity:1;" />
<path d="M 323.101562 304.601562 L 288.300781 282.398438 C 282.601562 278.800781 275.101562 279.402344 270 283.898438 L 225 325.601562 L 180 283.898438 C 174.902344 279.402344 167.402344 278.800781 161.699219 282.398438 L 126.898438 304.601562 C 120.300781 308.800781 118.199219 317.199219 121.5 324.101562 L 151.5 382.898438 C 155.398438 390.101562 164.398438 393.101562 171.597656 389.5 L 225 362.800781 L 278.402344 389.5 C 285.601562 393.101562 294.601562 390.097656 298.5 382.898438 L 328.5 324.101562 C 331.800781 317.199219 329.699219 308.800781 323.101562 304.601562 Z M 323.101562 304.601562 " style=" stroke:none;fill-rule:nonzero;fill:rgb(70.980392%,72.941176%,95.294118%);fill-opacity:1;" />
<path d="M 328.5 324.101562 L 298.5 382.898438 C 294.601562 390.101562 285.601562 393.101562 278.402344 389.5 L 225 362.800781 L 225 325.601562 L 270 283.898438 C 275.097656 279.402344 282.597656 278.800781 288.300781 282.398438 L 323.101562 304.601562 C 329.699219 308.800781 331.800781 317.199219 328.5 324.101562 Z M 328.5 324.101562 " style=" stroke:none;fill-rule:nonzero;fill:rgb(59.215686%,62.352941%,93.72549%);fill-opacity:1;" />
<path d="M 150 241 L 105 241 C 80.148438 241 60 220.851562 60 196 C 60 171.148438 80.148438 151 105 151 L 150 151 Z M 150 241 " style=" stroke:none;fill-rule:nonzero;fill:rgb(100%,65.490196%,56.078431%);fill-opacity:1;" />
<path d="M 345 241 L 300 241 L 300 151 L 345 151 C 369.851562 151 390 171.148438 390 196 C 390 220.851562 369.851562 241 345 241 Z M 345 241 " style=" stroke:none;fill-rule:nonzero;fill:rgb(97.254902%,58.431373%,50.196078%);fill-opacity:1;" />
<path d="M 330 145.300781 L 330 196 C 330 241.300781 300.902344 280.300781 260.699219 294.699219 C 260.398438 295 260.097656 295 260.097656 295 C 249 298.898438 237.597656 301 225.601562 301 C 225.300781 301 225.300781 301 225.300781 301 C 225 301 225 301 225 301 C 167.101562 301 120 253.898438 120 196 L 120 145.300781 L 161.398438 136 L 288.601562 136 Z M 330 145.300781 " style=" stroke:none;fill-rule:nonzero;fill:rgb(100%,74.901961%,67.058824%);fill-opacity:1;" />
<path d="M 330 145.300781 L 330 196 C 330 241.300781 300.902344 280.300781 260.699219 294.699219 C 260.398438 295 260.097656 295 260.097656 295 C 249 298.898438 237.597656 301 225.601562 301 C 225.300781 301 225.300781 301 225.300781 301 C 225 301 225 301 225 301 L 225 136 L 288.601562 136 Z M 330 145.300781 " style=" stroke:none;fill-rule:nonzero;fill:rgb(100%,65.490196%,56.078431%);fill-opacity:1;" />
<path d="M 358.5 82.597656 L 330 121 L 225 151 L 120 121 L 91.5 82.597656 C 87.898438 75.398438 90.902344 66.398438 98.402344 62.5 L 218.402344 1.5 C 220.5 0.601562 222.597656 0 225 0 C 227.402344 0 229.5 0.601562 231.597656 1.5 L 351.597656 62.5 C 359.097656 66.398438 362.101562 75.398438 358.5 82.597656 Z M 358.5 82.597656 " style=" stroke:none;fill-rule:nonzero;fill:rgb(59.215686%,62.352941%,93.72549%);fill-opacity:1;" />
<path d="M 315 451 L 285 451 C 276.710938 451 270 444.289062 270 436 C 270 427.710938 276.710938 421 285 421 L 315 421 C 323.289062 421 330 427.710938 330 436 C 330 444.289062 323.289062 451 315 451 Z M 315 451 " style=" stroke:none;fill-rule:nonzero;fill:rgb(32.54902%,26.27451%,24.705882%);fill-opacity:1;" />
<path d="M 225 61 C 200.097656 61 180 81.097656 180 106 L 180 136 C 180 144.402344 186.597656 151 195 151 L 255 151 C 263.402344 151 270 144.402344 270 136 L 270 106 C 270 81.097656 249.902344 61 225 61 Z M 225 61 " style=" stroke:none;fill-rule:nonzero;fill:rgb(77.647059%,88.627451%,90.588235%);fill-opacity:1;" />
<path d="M 358.5 82.597656 L 330 121 L 225 151 L 225 0 C 227.402344 0 229.5 0.601562 231.597656 1.5 L 351.597656 62.5 C 359.097656 66.398438 362.101562 75.398438 358.5 82.597656 Z M 358.5 82.597656 " style=" stroke:none;fill-rule:nonzero;fill:rgb(41.960784%,46.666667%,90.980392%);fill-opacity:1;" />
<path d="M 255 151 L 225 151 L 225 61 C 249.902344 61 270 81.097656 270 106 L 270 136 C 270 144.402344 263.402344 151 255 151 Z M 255 151 " style=" stroke:none;fill-rule:nonzero;fill:rgb(65.882353%,82.745098%,84.705882%);fill-opacity:1;" />
<path d="M 360.292969 307.972656 L 342.007812 305.601562 C 334.488281 317.285156 330 331.101562 330 346 C 330 387.351562 363.648438 421 405 421 C 421.894531 421 437.328125 415.175781 449.878906 405.714844 C 447.824219 355.527344 410.203125 314.4375 360.292969 307.972656 Z M 360.292969 307.972656 " style=" stroke:none;fill-rule:nonzero;fill:rgb(32.54902%,26.27451%,24.705882%);fill-opacity:1;" />
<path d="M 120 346 C 120 331.101562 115.511719 317.285156 107.992188 305.601562 L 89.707031 307.972656 C 39.804688 314.4375 2.179688 355.523438 0.121094 405.71875 C 12.675781 415.175781 28.109375 421 45 421 C 86.351562 421 120 387.351562 120 346 Z M 120 346 " style=" stroke:none;fill-rule:nonzero;fill:rgb(40.784314%,32.941176%,30.980392%);fill-opacity:1;" />
<path d="M 120 121 L 120 145.300781 L 161.398438 166 C 181.199219 175.902344 203.101562 181 225 181 C 246.898438 181 268.800781 175.902344 288.601562 166 L 330 145.300781 L 330 121 Z M 120 121 " style=" stroke:none;fill-rule:nonzero;fill:rgb(40.784314%,32.941176%,30.980392%);fill-opacity:1;" />
<path d="M 330 121 L 330 145.300781 L 288.601562 166 C 268.800781 175.902344 246.898438 181 225 181 L 225 121 Z M 330 121 " style=" stroke:none;fill-rule:nonzero;fill:rgb(32.54902%,26.27451%,24.705882%);fill-opacity:1;" />
</g>
</svg>