<?xml version="1.0" encoding="utf-8"?>
<!-- Generator: Adobe Illustrator 23.0.1, SVG Export Plug-In . SVG Version: 6.00 Build 0)  -->
<svg version="1.1" id="Capa_1" xmlns="http://www.w3.org/2000/svg" xmlns:xlink="http://www.w3.org/1999/xlink" x="0px" y="0px"
	 viewBox="0 0 422.2 586.1" style="enable-background:new 0 0 422.2 586.1;" xml:space="preserve">
<style type="text/css">
	.st0{fill:#DAA44A;}
	.st1{opacity:0.12;fill:#FFFFFF;enable-background:new    ;}
	.st2{fill:#383637;}
	.st3{stroke:#000000;stroke-miterlimit:10;}
	.st4{fill:#FFFFFF;}
	.st5{fill:#3A3537;}
	.st6{fill:#FDE0AF;}
	.st7{opacity:0.8;fill:#1C1B1C;enable-background:new    ;}
</style>
<g>
	<path class="st0" d="M210.9,469.5c85.9,4.8,121-12.7,121-12.7c130.5-56.1,80.4-227.2,80.4-227.2L360.9,55.3
		c-31.8,23.1-114.6,56.9-149.6,56.9l0,0c-35.4,0-117.8-33.8-149.6-56.9L10,229.5c0,0-50.1,171.1,80.4,227.2
		C90,456.8,125,474.3,210.9,469.5L210.9,469.5z"/>
	<path class="st1" d="M211.7,112.6L211.7,112.6c-35.4,0-117.8-33.8-149.6-56.9L10.8,229.5c0,0-50.1,171.1,80.4,227.2
		c0,0,35,17.5,121,12.7l0,0L211.7,112.6z"/>
	<path class="st2" d="M258.7,355.7c0,0,54.5,0,70-41.4c0,0-17.5-44.2-45.4-23.5C264.6,304.8,258.7,355.7,258.7,355.7z"/>
	<ellipse class="st3" cx="292.1" cy="322.7" rx="13.5" ry="13.9"/>
	<ellipse class="st4" cx="288.5" cy="320.7" rx="5.2" ry="5.2"/>
	<path class="st2" d="M163.2,355.7c0,0-50.1,0-70-41.4c0,0,16.7-42.6,44.2-21.9C156,306.3,163.2,355.7,163.2,355.7z"/>
	<ellipse class="st3" cx="129.7" cy="322.7" rx="13.5" ry="13.9"/>
	<ellipse class="st4" cx="126.2" cy="320.7" rx="5.2" ry="5.2"/>
	<path class="st5" d="M103.1,193.3c0,0-107.8,63.7-94.3,171.9c0,0-25.5-82.2,10.3-161.8L103.1,193.3z"/>
	<path class="st5" d="M319.6,193.3c0,0,107.8,63.7,94.3,171.9c0,0,24.8-80.7-11-160.3L319.6,193.3z"/>
	<g>
		<g>
			<g>
				<path class="st5" d="M39,0.3c7.2-3.6,37,21.1,57.7,52.9c17.5,26.7,29.4,77.6,27.9,99.9c-2.8,34.6-65.7,85.6-108.2,93.5
					C-9.5,176.6,10.4,15.1,39,0.3z"/>
			</g>
		</g>
	</g>
	<g>
		<g>
			<g>
				<path class="st6" d="M46.2,34.2c5.2-2.8,26.7,15.5,42.2,38.6c12.7,19.5,21.5,56.5,20.3,72.8c-2,25.1-47.8,62.5-78.8,68
					C10.8,162.3,25.1,44.9,46.2,34.2z"/>
			</g>
		</g>
	</g>
	<g>
		<g>
			<g>
				<path class="st5" d="M382.8,0.3c-7.2-3.6-37,21.1-57.7,52.9c-17.5,26.7-29.4,77.6-27.9,99.9c2.8,34.6,65.7,85.6,108.2,93.5
					C431.4,176.6,411.5,15.1,382.8,0.3z"/>
			</g>
		</g>
	</g>
	<g>
		<g>
			<g>
				<path class="st6" d="M376.1,34.2c-5.2-2.8-26.7,15.5-42.2,38.6c-12.7,19.5-21.5,56.5-20.3,72.8c2,25.1,47.8,62.5,78.8,68
					C411.1,162.3,396.7,44.9,376.1,34.2z"/>
			</g>
		</g>
	</g>
	<path d="M210.9,532.4L169.5,565c0,0,6.8,21.1,41.4,21.1s41.4-21.1,41.4-21.1L210.9,532.4z"/>
	<path class="st5" d="M218.1,336.6c12.3,2,25.9,12.7,31.4,22.7c6.8,11.9,22.3,19.1,41,15.9c18.7-3.2,35.8,11.5,35.8,11.5
		c36.2,41.8-12.7,100.7-12.7,100.7s-21.9,39-26.3,50.5c-4.4,11.5-21.1,30.6-43.4,39.4c0,0,7.2-8.4,8.4-14.3c0,0-15.1,13.1-41.4,10.7
		c-25.9,2.4-41.4-10.7-41.4-10.7c1.6,6,8.4,14.3,8.4,14.3c-22.3-8.8-39-27.9-43.4-39.4c-4.4-11.5-26.3-50.5-26.3-50.5
		s-48.9-58.9-12.7-100.7c0,0,17.5-14.3,35.8-11.5c18.3,2.8,34.2-4,41-15.9c5.6-9.9,19.1-21.1,31.4-22.7L218.1,336.6L218.1,336.6z"/>
	<path d="M210.9,524c-17.9,0-31.8,4-38.6,12.7c0,0,20.7,31,38.6,31s38.6-31,38.6-31C242.8,527.6,228.8,524,210.9,524z"/>
	<path class="st7" d="M210.9,530.4c15.9,0,29.4,2,38.6,6l0,0c-6.8-8.8-20.7-12.7-38.6-12.7s-31.8,4-38.6,12.7l0,0
		C181.5,532.4,195,530.4,210.9,530.4z"/>
</g>
</svg>
