<?xml version="1.0" encoding="utf-8"?>
<!-- Generator: Adobe Illustrator 23.0.1, SVG Export Plug-In . SVG Version: 6.00 Build 0)  -->
<svg version="1.1" id="Layer_1" xmlns="http://www.w3.org/2000/svg" xmlns:xlink="http://www.w3.org/1999/xlink" x="0px" y="0px"
	 viewBox="0 0 436.5 580.3" style="enable-background:new 0 0 436.5 580.3;" xml:space="preserve">
<style type="text/css">
	.st0{fill:#55726A;}
	.st1{fill:#939986;}
	.st2{fill:#66ACD7;}
	.st3{fill:#EFBE9A;}
	.st4{fill:#F5EA78;}
	.st5{fill:#DB9B7C;}
	.st6{fill:#363B51;}
	.st7{fill:#DBDBDB;}
	.st8{fill:#E5AF6E;}
	.st9{fill:#35343F;}
	.st10{opacity:0.34;fill:#DD8E92;enable-background:new    ;}
	.st11{fill-rule:evenodd;clip-rule:evenodd;fill:#996E3A;}
	.st12{fill-rule:evenodd;clip-rule:evenodd;fill:#E5AF6E;}
</style>
<g>
	<path class="st0" d="M148.8,342.2L61.9,369c-25.1,7.7-42,30.8-42,56.8v154.5h396.9V425.8c0-26.2-17-49.2-42-56.9l-86.9-26.7"/>
	<path class="st1" d="M344.9,369L258,342.2H148.8L61.9,369c-25.1,7.7-42,30.8-42,56.8v154.5H387V425.8
		C386.9,399.7,369.9,376.7,344.9,369z"/>
	<path class="st2" d="M139.9,344.9l28.8,76.6l49.6-49.6l-74.9-28L139.9,344.9z"/>
	<path class="st2" d="M293.1,343.9l-74.9,28l49.6,49.6l28.8-76.6L293.1,343.9z"/>
	<path class="st1" d="M367.1,500.9h69.4v39.7h-69.4V500.9L367.1,500.9z"/>
	<path class="st1" d="M0,500.9h69.4v39.7H0V500.9z"/>
	<path class="st3" d="M367.1,540.6h49.6v39.7h-49.6V540.6z"/>
	<path class="st3" d="M19.8,540.6h49.6v39.7H19.8V540.6L19.8,540.6z"/>
	<path class="st4" d="M69.4,481.1H367v99.2H69.4V481.1L69.4,481.1z"/>
	<path class="st4" d="M327.4,352.1l-39.7-9.9v178.6h39.7V352.1z"/>
	<path class="st4" d="M109.1,352.1l39.7-9.9v178.6h-39.7V352.1z"/>
	<path class="st5" d="M109.1,233H89.3c-21.9,0-39.7-17.7-39.7-39.7c0-22,17.7-39.7,39.7-39.7h19.8"/>
	<path class="st3" d="M327.4,233h19.8c22,0,39.7-17.7,39.7-39.7c0-22-17.7-39.7-39.7-39.7h-19.8"/>
	<path class="st5" d="M89.3,133.8V233c0,71.2,57.8,129,129,129s129-57.8,129-129v-99.2"/>
	<path class="st3" d="M203.4,361.1c64.2-7.4,114.1-61.9,114.1-128.1v-99.2H89.3V233C89.3,299.3,139.1,353.7,203.4,361.1z"/>
	<path class="st6" d="M161.2,224.2c-4.8,0-8.7-4-8.7-8.7v-2.3c0-4.8,4-8.7,8.7-8.7c4.8,0,8.7,4,8.7,8.7v2.3
		C170,220.3,166,224.2,161.2,224.2z"/>
	<path class="st6" d="M275.2,224.2c-4.8,0-8.7-4-8.7-8.7v-2.3c0-4.8,4-8.7,8.7-8.7c4.8,0,8.7,4,8.7,8.7v2.3
		C284,220.3,280,224.2,275.2,224.2z"/>
	<path class="st7" d="M347,221.3c-6.1,39-29.5,72.4-62.1,91.8v-12.6c0-33.3-27-60.3-60.3-60.3h-12.7c-33.3,0-60.3,27-60.3,60.3v12.6
		c-32.6-19.5-56-52.8-62.1-91.8h-1.6v77.5c0,72,58.4,130.3,130.3,130.3s130.3-58.4,130.3-130.3v-77.5L347,221.3L347,221.3z
		 M249.2,320.1c0,10.3-8.3,18.6-18.6,18.6h-24.9c-10.3,0-18.6-8.3-18.6-18.6v-4.4c0-17.1,13.9-31,31-31l0,0c17.1,0,31,13.9,31,31
		L249.2,320.1L249.2,320.1z"/>
	<g>
		<path class="st8" d="M281.4,461.5V480c0,2.7,2.2,4.9,4.9,4.9h51.2c2.7,0,4.9-2.2,4.9-4.9v-18.4c0-2.7-2.2-4.9-4.9-4.9h-51.2
			C283.6,456.6,281.4,458.8,281.4,461.5z"/>
		<path class="st8" d="M92.6,461.5V480c0,2.7,2.2,4.9,4.9,4.9h51.2c2.7,0,4.9-2.2,4.9-4.9v-18.4c0-2.7-2.2-4.9-4.9-4.9H97.6
			C94.8,456.6,92.6,458.8,92.6,461.5z"/>
	</g>
	<g>
		<path class="st9" d="M219.6,516.5c-0.6,0-1.1-0.1-1.7-0.2c-0.6-0.1-1.1-0.3-1.6-0.5c-0.5-0.2-1-0.5-1.5-0.8
			c-0.5-0.3-0.9-0.7-1.3-1.1c-0.4-0.4-0.8-0.8-1.1-1.3c-0.3-0.5-0.6-1-0.8-1.5c-0.2-0.5-0.4-1.1-0.5-1.6c-0.1-0.6-0.2-1.1-0.2-1.7
			c0-0.6,0.1-1.1,0.2-1.7c0.1-0.6,0.3-1.1,0.5-1.6c0.2-0.5,0.5-1,0.8-1.5c0.3-0.5,0.7-0.9,1.1-1.3c0.4-0.4,0.8-0.8,1.3-1.1
			c0.5-0.3,1-0.6,1.5-0.8c0.5-0.2,1.1-0.4,1.6-0.5c1.1-0.2,2.3-0.2,3.4,0c0.5,0.1,1.1,0.3,1.6,0.5c0.5,0.2,1,0.5,1.5,0.8
			c0.5,0.3,0.9,0.7,1.3,1.1c0.4,0.4,0.8,0.9,1.1,1.3c0.3,0.5,0.6,1,0.8,1.5c0.2,0.5,0.4,1.1,0.5,1.6c0.1,0.6,0.2,1.1,0.2,1.7
			c0,0.6-0.1,1.1-0.2,1.7c-0.1,0.6-0.3,1.1-0.5,1.6c-0.2,0.5-0.5,1-0.8,1.5c-0.3,0.5-0.7,0.9-1.1,1.3c-0.4,0.4-0.9,0.8-1.3,1.1
			c-0.5,0.3-1,0.6-1.5,0.8c-0.5,0.2-1.1,0.4-1.6,0.5C220.7,516.4,220.1,516.5,219.6,516.5z"/>
		<path class="st9" d="M219.6,560.3c-0.6,0-1.1-0.1-1.7-0.2c-0.5-0.1-1.1-0.3-1.6-0.5c-0.5-0.2-1-0.5-1.5-0.8
			c-0.5-0.3-0.9-0.7-1.3-1.1c-0.4-0.4-0.8-0.9-1.1-1.3c-0.3-0.5-0.6-1-0.8-1.5c-0.2-0.5-0.4-1.1-0.5-1.6c-0.1-0.6-0.2-1.1-0.2-1.7
			c0-0.6,0.1-1.2,0.2-1.7c0.1-0.6,0.3-1.1,0.5-1.6c0.2-0.5,0.5-1,0.8-1.5c0.3-0.5,0.7-0.9,1.1-1.3c0.4-0.4,0.8-0.8,1.3-1.1
			c0.5-0.3,1-0.6,1.5-0.8c0.5-0.2,1.1-0.4,1.6-0.5c1.1-0.2,2.3-0.2,3.4,0c0.5,0.1,1.1,0.3,1.6,0.5c0.5,0.2,1,0.5,1.5,0.8
			c0.5,0.3,0.9,0.7,1.3,1.1c0.4,0.4,0.8,0.8,1.1,1.3c0.3,0.5,0.6,1,0.8,1.5c0.2,0.5,0.4,1.1,0.5,1.6c0.1,0.6,0.2,1.1,0.2,1.7
			c0,0.6-0.1,1.1-0.2,1.7c-0.1,0.6-0.3,1.1-0.5,1.6c-0.2,0.5-0.5,1-0.8,1.5c-0.3,0.5-0.7,0.9-1.1,1.3c-0.4,0.4-0.9,0.8-1.3,1.1
			c-0.5,0.3-1,0.6-1.5,0.8c-0.5,0.2-1.1,0.4-1.6,0.5C220.7,560.3,220.1,560.3,219.6,560.3z"/>
	</g>
	<path class="st8" d="M202.9,96.7h191.7c13,0,23.5,11.8,23.5,26.3v30.8h-398V123c0-14.5,10.5-26.3,23.5-26.3h85.7H202.9z"/>
	<path class="st4" d="M82.8,96.7V26.3C82.8,11.8,93.4,0,106.4,0h223.6c13,0,23.5,11.8,23.5,26.3v70.4L82.8,96.7L82.8,96.7L82.8,96.7
		z"/>
	<rect x="82.8" y="50" class="st10" width="270.4" height="27.7"/>
</g>
<g>
	<path class="st11" d="M332.2,440.3c-3.6-4.8-7.2-9.5-10.7-14.3c-10.9-14.9-21.8-29.9-32.6-44.8c-0.3-0.4-0.6-0.9-1-1.5
		c4.9-4.3,9.7-8.6,14.5-12.9c1.9,1.7,3.7,3.4,5.6,5c2.8,2.4,5.7,4.7,9.1,6.3c4.1,2,6.9,1.1,8.9-3.1c1-2.2,1.7-4.6,2.4-7
		c0.6-2.1,1.4-3,3.5-3.4c5-0.8,10.1-0.9,15.2-0.6c5.5,0.4,11,0.8,16.6,1.2c1,0.1,1.9,0.3,2.9,0.5c1.1,0.2,1.5,0.9,1.6,2
		c0.3,7-0.5,13.9-2.1,20.7c-1,4.1-2.4,8.1-3.6,12.1c-0.1,0.4-0.2,0.7-0.3,1.1c-1.6,3.5-3.2,7-4.7,10.5c-0.2,0.2-0.4,0.4-0.5,0.6
		c-2.9,4.8-5.7,9.7-8.7,14.5c-2.6,4.1-5.5,8-9.2,11.3c-1.5,1.3-3.2,2.3-5.4,2.2C333.1,440.7,332.7,440.5,332.2,440.3z"/>
	<path class="st12" d="M225.3,332c2.1-1.7,4.4-2.6,7.2-1.5c0.3,0.1,0.8,0,1.2,0c6.7-0.7,13.3-0.9,20-0.5c7.5,0.5,13.9,3.1,19.6,8.2
		c8.9,8,17.2,16.6,25.2,25.4c0.6,0.7,1.2,1.3,1.9,2.1c-4.5,4.1-8.9,8.1-13.4,12.3c-0.3-0.5-0.6-0.9-0.9-1.3
		c-7.1-10.2-14.2-20.4-22.4-29.7c-0.7-0.9-1.6-1.7-2.3-2.5c-3.7-4.4-8.5-6.9-14.1-7.5c-4.2-0.5-8.4-0.6-12.6-0.8
		c-0.5,0-1.1,0.3-1.5,0.6c-1.6,1.3-5.6,1.4-7.2,0.1c-1-0.8-1.3-1.9-1.3-3.1C224.7,333.2,225,332.6,225.3,332z"/>
</g>
</svg>
