<?xml version="1.0" encoding="utf-8"?>
<!-- Generator: Adobe Illustrator 23.0.1, SVG Export Plug-In . SVG Version: 6.00 Build 0)  -->
<svg version="1.1" id="Capa_1" xmlns="http://www.w3.org/2000/svg" xmlns:xlink="http://www.w3.org/1999/xlink" x="0px" y="0px"
	 viewBox="0 0 439.5 539.1" style="enable-background:new 0 0 439.5 539.1;" xml:space="preserve">
<style type="text/css">
	.st0{fill:#FFD7A3;}
	.st1{fill:#FDC88E;}
	.st2{fill:#E29E21;}
	.st3{fill:#FFE1B2;}
	.st4{fill:#623F33;}
	.st5{fill:#E4B07B;}
	.st6{fill:#212023;}
	.st7{fill:#9D6E48;}
</style>
<g>
	<path class="st0" d="M349,496.4l-1.3-4.4c-0.7-2.1-2.7-3.5-4.9-3.2l-4.6-34.2c-1.5-11.3-8.5-21-18.5-26l-14.7-7.4
		c-2.3-1.1-4.8-0.1-5.8,2l-29.5-10.8c-5.6-1.9-9.4-7-9.4-13v-22l29.5-12.3c15.3-6.4,25.2-21.3,25.2-37.9v-6.8
		c11.3,0,20.5-9.1,20.5-20.5c0-11.3-9.1-20.5-20.5-20.5v-13.6c0-18.9-15.3-47.8-34.2-47.8h-123c-18.9,0-34.2,28.9-34.2,47.8v13.7
		c-11.3,0-20.5,9.1-20.5,20.5c0,11.3,9.1,20.5,20.5,20.5v6.8c0,16.5,9.9,31.5,25.2,37.9l29.5,12.3v22c0,5.9-3.8,11.1-9.4,13
		L140.1,423c-1.1-2-3.6-2.9-5.7-1.9l-13.4,6.7c-11.5,5.7-18.4,15.5-19.8,26.7l-4.6,34c-2.1-0.3-4.3,1-4.9,3.2l-1.3,4.4
		c-0.7,2.3,0.7,4.9,3,5.6l9.7,2.8v20.6c0,7.6,6.2,13.7,13.7,13.7h27.7h150.4h27c7.6,0,13.7-6.2,13.7-13.7v-20.5l10.4-3
		C348.3,501.2,349.6,498.8,349,496.4z"/>
	<path class="st1" d="M260.3,376.8h-82v22.6c0,4.9-2.6,9.2-6.6,11.7C228.8,421,260.3,376.8,260.3,376.8z"/>
	<g>
		<g>
			<path class="st2" d="M343.7,495.5l-5.5-41c-1.5-11.3-8.5-21-18.5-26l-14.7-7.4c-2.4-1.2-5.4,0.3-6.2,2.9
				c-9.5,34.8-41.3,60.4-79.2,60.4s-69.7-25.6-79.2-60.4c-0.8-2.7-3.6-4.1-6.2-2.9l-13.4,6.7c-11.5,5.7-18.4,15.5-19.8,26.7
				l-5.6,41.8c18.1,6.3,48.9,15.5,48.9,15.5v27.3h150.4v-27.3L343.7,495.5z"/>
		</g>
	</g>
	<path class="st3" d="M315,279.4v-13.7c0-18.9-15.3-47.8-34.2-47.8H157.8c-18.9,0-34.2,28.9-34.2,47.8v13.7
		c-11.3,0-20.5,9.1-20.5,20.5c0,11.3,9.1,20.5,20.5,20.5v6.8c0,16.5,9.9,31.5,25.2,37.9l44.1,18.4c8.4,3.5,17.3,5.2,26.2,5.2l0,0
		c9.1,0,18-1.8,26.2-5.2l44.2-18.4c15.3-6.4,25.2-21.3,25.2-37.9v-6.8c11.3,0,20.5-9.1,20.5-20.5C335.5,288.5,326.2,279.4,315,279.4
		z"/>
	<g>
		<path class="st4" d="M171.4,306.8L171.4,306.8c-3.8,0-6.8-3.1-6.8-6.8v-6.8c0-3.8,3.1-6.8,6.8-6.8l0,0c3.8,0,6.8,3.1,6.8,6.8v6.8
			C178.3,303.7,175.3,306.8,171.4,306.8z"/>
	</g>
	<g>
		<path class="st4" d="M267.1,306.8L267.1,306.8c-3.8,0-6.8-3.1-6.8-6.8v-6.8c0-3.8,3.1-6.8,6.8-6.8l0,0c3.8,0,6.8,3.1,6.8,6.8v6.8
			C274,303.7,270.9,306.8,267.1,306.8z"/>
	</g>
	<g>
		<g>
			<path class="st5" d="M219.3,354.8c-12.2,0-23.6-3-31.2-8.2c-3.1-2.1-3.9-6.4-1.8-9.5c2.1-3.1,6.4-3.9,9.5-1.8
				c5.4,3.7,14.2,5.8,23.4,5.8c9.2,0,18.1-2.3,23.4-5.8c3.1-2.1,7.4-1.3,9.5,1.8c2.1,3.1,1.3,7.4-1.8,9.5
				C242.9,351.8,231.5,354.8,219.3,354.8z"/>
		</g>
	</g>
	<g>
		<g>
			<g>
				<path class="st6" d="M202.4,498.4c3,5.9,4.4,12.2,3.7,17.2c-0.3,2.1-2.1,3.5-4.2,3.2c-2.1-0.3-3.5-2.1-3.2-4.2
					c0.4-3.6-0.7-8.4-3-12.9c-2.3-4.5-5.6-8.3-8.6-10c-1.8-1-2.5-3.2-1.5-5c1-1.8,3.2-2.5,5-1.5
					C195.1,487.7,199.4,492.5,202.4,498.4z"/>
			</g>
		</g>
	</g>
	<g>
		<g>
			<g>
				<path class="st6" d="M119,467c-6-2.9-11-7-13.5-11.3c-1-1.7-0.4-4.1,1.3-5.1c1.7-1,4.1-0.4,5.1,1.3c1.8,3,5.7,6.2,10.3,8.4
					c4.6,2.2,9.5,3.1,13,2.6c2-0.3,3.9,1,4.3,3.1c0.3,2-1,3.9-3.1,4.3C131.4,471,125,469.8,119,467z"/>
			</g>
		</g>
	</g>
	<g>
		<g>
			<g>
				<path class="st6" d="M317.5,440.6c6.4,2.1,11.7,5.6,14.8,9.5c1.3,1.7,1,4-0.7,5.2c-1.7,1.3-4,1-5.2-0.7c-2.2-2.8-6.4-5.4-11.2-7
					c-4.8-1.6-9.7-1.9-13.1-1c-2,0.6-4.1-0.5-4.6-2.5c-0.6-2,0.5-4.1,2.5-4.6C304.7,438.1,311.2,438.5,317.5,440.6z"/>
			</g>
		</g>
	</g>
	<path class="st0" d="M213.4,217.1c-1.2,37-89.7,62.4-89.7,62.4c-11.3,0-20.5,9.1-20.5,20.5c0,11.3,9.1,20.5,20.5,20.5v6.8
		c0,16.5,9.9,31.5,25.2,37.9l44.1,18.4c2.1,0.9,4.4,1.7,6.6,2.3c-19.6-14.3-32.5-26.8-40.1-35c-5.6-5.9-8.5-13.8-8.5-21.8V291
		c19.6-6.8,74.5-29.2,75.1-66.1c0-2.8,0-5.4-0.1-7.7L213.4,217.1L213.4,217.1z"/>
	<path class="st7" d="M239.7,130c0.5,35.8,0-43.5,0-43.5c37.2,0,41,49.6,41,49.6c9.5-21.8,30.5-22.6,30.5-22.6
		c-13.1,17.4-3.5,47-3.5,47c33.9-11.3,57.4,9.6,57.4,9.6c-23.5-3.5-29.9,15.7-29.9,15.7c5.8-0.9,22.9,5.2,22.9,5.2
		c0,20-22.9,26.2-22.9,26.2c25,18.4,75.1,13,75.1,13c-8.7,33.1-56.6,30.5-56.6,30.5c10.4,21.8,33.9,25.8,33.9,25.8
		c-30.5,4.1-59.4-1.8-59.4-1.8h0.2c0,0-109.3-19.4-109.3-66.7c0,47.3-109.3,66.7-109.3,66.7s-28.9,5.9-59.4,1.8
		c0,0,23.5-4.1,33.9-25.8c0,0-47.9,2.6-56.6-30.5c0,0,50.1,5.5,75.1-13c0,0-22.9-6.2-22.9-26.2c0,0,17.1-6.1,22.9-5.2
		c0,0-6.4-19.1-29.9-15.7c0,0,23.5-20.9,57.4-9.6c0,0,9.6-29.6-3.5-47c0,0,21.1,0.9,30.5,22.6c0,0,3.7-49.6,41-49.6
		c0,0-22.5,15.7,0,43.5c0,0,21.1-30.9,5.5-60C204.2,69.9,239,85.6,239.7,130z"/>
	<path class="st6" d="M172.7,522.7c-4.1,1-6.9,2.2-9.6-1.1c-3-3.7-1.4-10.5,0.2-14.2c3.6-8.5,9.2-13.2,18.2-7.7
		c5,3,10.4,15.9,3.4,20c-6.3,3.7-3.1-3.3-4.5-5.7c-2.3-3.8-6-3-9.9-2.8c-0.3,1-0.3,3,0,3.9c1.7-0.1,3.4,1,5.1,0.8
		C176.2,518.1,174.9,522.2,172.7,522.7z"/>
	<path class="st6" d="M131,430.1c4.1-1,6.9-2.2,9.6,1.1c3,3.7,1.4,10.5-0.2,14.2c-3.6,8.5-9.2,13.2-18.2,7.7c-5-3-10.4-15.9-3.4-20
		c6.3-3.7,3.1,3.3,4.5,5.7c2.3,3.8,6,3,9.9,2.8c0.3-1,0.3-3,0-3.9c-1.7,0.1-3.4-1-5.1-0.8C127.6,434.8,128.9,430.7,131,430.1z"/>
	<path class="st6" d="M242.7,509.5c2.6-1.9,4.3-3.6,7.1-2c3.2,1.7,4.1,7,4,10.2c-0.1,7.1-2.7,12.1-10.7,10.9
		c-4.4-0.7-12.1-8.4-8.3-13.2c3.4-4.4,3.2,1.5,5,2.8c2.7,2.1,5.1,0.3,7.9-0.9c-0.1-0.8-0.7-2.2-1.1-2.8c-1.2,0.5-2.7,0.3-3.8,1
		C241.7,513.9,241.3,510.6,242.7,509.5z"/>
	<path class="st6" d="M326.9,460.8c2.5,1,4.4,1.5,4.6,4.2c0.2,3-3.2,6-5.4,7.4c-5,3-9.8,3.5-12.4-2.8c-1.5-3.4,0.5-12.3,5.7-11.7
		c4.6,0.4,0.3,2.9,0.2,4.7c-0.3,2.9,2,3.8,4.2,5.2c0.5-0.4,1.2-1.5,1.5-2.1c-1-0.6-1.4-1.7-2.3-2.3
		C323.4,461.9,325.6,460.3,326.9,460.8z"/>
	<path class="st6" d="M287.7,489.8c1.7,4.5,3.5,7.7,0.1,11.2c-3.7,3.9-11.9,3.1-16.4,1.8c-10.3-3-16.5-8.8-11.6-19.8
		c2.8-6.1,16.9-14.3,22.5-6.8c5.1,6.7-3.4,4.1-6,6.1c-4.1,3.1-2.6,7.3-1.8,11.9c1.1,0.2,3.5-0.1,4.5-0.6c-0.3-2,0.6-4,0.2-6
		C281.9,486.6,286.7,487.5,287.7,489.8z"/>
	<ellipse transform="matrix(0.7739 -0.6333 0.6333 0.7739 -279.1862 206.0214)" class="st6" cx="148.9" cy="494" rx="5" ry="8.7"/>
	
		<ellipse transform="matrix(0.4871 -0.8733 0.8733 0.4871 -367.1711 339.6868)" class="st6" cx="105.6" cy="482.5" rx="8.7" ry="5"/>
	
		<ellipse transform="matrix(0.7739 -0.6334 0.6334 0.7739 -237.1331 301.4955)" class="st6" cx="303.6" cy="482.8" rx="7" ry="12.4"/>
	
		<ellipse transform="matrix(5.030342e-02 -0.9987 0.9987 5.030342e-02 -292.2553 695.5754)" class="st6" cx="219.6" cy="501.5" rx="8.7" ry="5"/>
	
		<ellipse transform="matrix(5.030342e-02 -0.9987 0.9987 5.030342e-02 -344.5399 695.1498)" class="st6" cx="193.3" cy="528.7" rx="5" ry="8.7"/>
	<ellipse transform="matrix(0.7739 -0.6333 0.6333 0.7739 -266.6602 285.894)" class="st6" cx="267.1" cy="516.4" rx="5" ry="8.7"/>
	<ellipse transform="matrix(0.9899 -0.1419 0.1419 0.9899 -62.4729 46.1814)" class="st6" cx="292.6" cy="461.1" rx="8.7" ry="5"/>
	<circle class="st6" cx="164.6" cy="479.9" r="6.7"/>
	<circle class="st6" cx="219" cy="525.5" r="6.7"/>
	<circle class="st6" cx="122.3" cy="482.8" r="6.7"/>
	<circle class="st6" cx="249.4" cy="493.2" r="4.7"/>
	<circle class="st6" cx="149" cy="456.1" r="4.7"/>
	<circle class="st6" cx="153.7" cy="532.2" r="4.7"/>
	<circle class="st6" cx="330.3" cy="486.7" r="6.5"/>
	<ellipse class="st6" cx="277.9" cy="532.2" rx="7.4" ry="4.7"/>
	<circle class="st6" cx="305.9" cy="429.1" r="4.7"/>
</g>
</svg>
