<?xml version="1.0" encoding="utf-8"?>
<!-- Generator: Adobe Illustrator 23.0.1, SVG Export Plug-In . SVG Version: 6.00 Build 0)  -->
<svg version="1.1" id="Layer_1" xmlns="http://www.w3.org/2000/svg" xmlns:xlink="http://www.w3.org/1999/xlink" x="0px" y="0px"
	 viewBox="0 0 469.9 605.9" style="enable-background:new 0 0 469.9 605.9;" xml:space="preserve">
<style type="text/css">
	.st0{fill:#8C7190;}
	.st1{fill:#A994AC;}
	.st2{fill:#EFBE9A;}
	.st3{fill:#DB9B7C;}
	.st4{fill:#363B51;}
	.st5{fill:#C18E59;}
	.st6{fill:#FF9811;}
	.st7{fill:#BF720D;}
	.st8{fill:#50412E;}
	.st9{fill:#786145;}
</style>
<g>
	<path class="st0" d="M160.2,349.6l-93.5,28.9c-27,8.3-45.2,33.2-45.2,61.1v166.3h427.2V439.6c0-28.2-18.3-53-45.2-61.3l-93.5-28.7"
		/>
	<path class="st1" d="M371.3,378.5l-93.5-28.9H160.2l-93.5,28.9c-27,8.3-45.2,33.2-45.2,61.1v166.3h395.2V439.6
		C416.5,411.5,398.2,386.7,371.3,378.5z"/>
	<path class="st0" d="M150.6,352.5l31,82.5l53.4-53.4l-80.6-30.1L150.6,352.5z"/>
	<path class="st0" d="M315.5,351.4l-80.6,30.1l53.4,53.4l31-82.5L315.5,351.4z"/>
	<path class="st0" d="M395.2,520.4h74.7v42.7h-74.7L395.2,520.4L395.2,520.4z"/>
	<path class="st0" d="M0,520.4h74.7v42.7H0V520.4z"/>
	<path class="st2" d="M395.2,563.2h53.4v42.7h-53.4V563.2z"/>
	<path class="st2" d="M21.3,563.2h53.4v42.7H21.3V563.2z"/>
	<path class="st3" d="M117.4,232.1H96.1c-23.6,0-42.7-19.1-42.7-42.7s19.1-42.7,42.7-42.7h21.3"/>
	<path class="st2" d="M352.4,232.1h21.3c23.7,0,42.7-19.1,42.7-42.7s-19.1-42.7-42.7-42.7h-21.3"/>
	<path class="st3" d="M96.1,125.3v106.8c0,76.6,62.2,138.9,138.9,138.9s138.9-62.2,138.9-138.9V125.3"/>
	<path class="st2" d="M218.9,369.9c69.1-8,122.8-66.6,122.8-137.9V125.3H96.1v106.8C96.1,303.4,149.7,362,218.9,369.9z"/>
	<path class="st4" d="M173.5,222.6c-5.2,0-9.4-4.3-9.4-9.4v-2.5c0-5.2,4.3-9.4,9.4-9.4c5.2,0,9.4,4.3,9.4,9.4v2.5
		C183,218.4,178.7,222.6,173.5,222.6z"/>
	<path class="st4" d="M296.2,222.6c-5.2,0-9.4-4.3-9.4-9.4v-2.5c0-5.2,4.3-9.4,9.4-9.4c5.2,0,9.4,4.3,9.4,9.4v2.5
		C305.7,218.4,301.4,222.6,296.2,222.6z"/>
	<path class="st4" d="M234.9,309.7c-5.8,0-10.5-4.8-10.5-10.5v-2.8c0-5.8,4.8-10.5,10.5-10.5c5.8,0,10.5,4.8,10.5,10.5v2.8
		C245.5,304.9,240.7,309.7,234.9,309.7z"/>
	<path class="st5" d="M96.1,178c0,0-28-177,138.8-178C234.9,0,307.6,197,96.1,178z"/>
	<path class="st5" d="M374.2,178c0,0,28-177-138.8-178C235.4,0,162.7,197,374.2,178z"/>
	<path class="st6" d="M256.3,308.4l-2.9-4.1H217l-2.9,4.1c-15.3,21.4-21.1,40.9-17.2,57.9c1.9,8.3,5.8,14,8.8,17.5v222.1h59V383.8
		c3-3.4,6.9-9.2,8.8-17.5C277.4,349.3,271.6,329.8,256.3,308.4z"/>
	<path class="st7" d="M256.3,308.4l-2.9-4.1h-18.2v301.6h29.5V383.8c3-3.4,6.9-9.2,8.8-17.5C277.4,349.3,271.6,329.8,256.3,308.4z"
		/>
	<g>
		<circle class="st8" cx="235.2" cy="422.3" r="9.8"/>
		<circle class="st8" cx="235.2" cy="455.1" r="9.8"/>
		<circle class="st8" cx="235.2" cy="487.9" r="9.8"/>
		<circle class="st8" cx="235.2" cy="520.7" r="9.8"/>
		<path class="st8" d="M248.8,333.8h-27.3c-3.6,7.1-5.6,13.7-6,19.7h39.3C254.4,348.2,252.8,341.7,248.8,333.8z"/>
	</g>
	<rect x="205.7" y="566.6" class="st9" width="59" height="19.7"/>
	<rect x="235.2" y="566.6" class="st8" width="29.5" height="19.7"/>
</g>
</svg>
