<?xml version="1.0" encoding="utf-8"?>
<!-- Generator: Adobe Illustrator 23.0.1, SVG Export Plug-In . SVG Version: 6.00 Build 0)  -->
<svg version="1.1" id="Layer_1" xmlns="http://www.w3.org/2000/svg" xmlns:xlink="http://www.w3.org/1999/xlink" x="0px" y="0px"
	 viewBox="0 0 469.9 506.1" style="enable-background:new 0 0 469.9 506.1;" xml:space="preserve">
<style type="text/css">
	.st0{fill:#262222;}
	.st1{fill:#4D4545;}
	.st2{fill:#333333;}
	.st3{fill:#EFBE9A;}
	.st4{fill:#FFC000;}
</style>
<g>
	<path class="st0" d="M160.2,249.7l-93.5,28.9c-27,8.3-45.2,33.2-45.2,61.1v166.3h427.2V339.7c0-28.2-18.3-53-45.2-61.3l-93.5-28.7"
		/>
	<path class="st1" d="M371.3,278.6l-93.5-28.9H160.2l-93.5,28.9c-27,8.3-45.2,33.2-45.2,61.1v166.3h395.2V339.7
		C416.5,311.6,398.2,286.9,371.3,278.6z"/>
	<path class="st0" d="M395.2,420.6h74.7v42.7h-74.7L395.2,420.6L395.2,420.6z"/>
	<path class="st2" d="M0,420.6h74.7v42.7H0V420.6z"/>
	<path class="st3" d="M395.2,463.3h53.4v42.7h-53.4V463.3z"/>
	<path class="st3" d="M21.3,463.3h53.4v42.7H21.3V463.3z"/>
	<path d="M330.9,55c14,21.2,21.6,45,28.7,69c5.9,20.1,11.9,40.1,21.7,58.7c8.5,16,18.9,30.5,34.1,40.8c0.4,0.2,0.5,0.8,1.2,2
		c-13.8,1.4-26-3.4-38.7-7.3c20.1,36.5,26.4,75.4,26.5,116c-12.2-23.4-25.9-45.6-42.6-66.2c5.6,40.9-4.7,78.7-21,115.6
		c-4-26.5-6.7-53-16.2-78.3c-3.3,30-9,59.2-24,87c-4.9-22-9.6-42.9-14.2-63.8c-0.6,0-1.1,0-1.7,0c-4.7,29.5-14.5,56.7-35.3,80.2
		c0-16.2,0-31.5,0-46.8c-6.5,20.5-15.1,39.8-27.6,58.6c-12.6-18.7-21-38.2-27.8-58.7c0,14.9,0,29.8,0,45.5
		c-10.7-10.5-18.4-22.6-23.3-36.1c-4.9-13.4-8.5-27.3-12.8-41.1L144,270.3l-36.7-64.6l14.7-107.2l13.9-25.7l113.7-27.2L330.9,55z"/>
	<path class="st2" d="M337.9,188.6c6.8,3.9,8.8,11.5,5,18.4c-5.6,10.2-14.8,16.6-24.5,22.4c-4.7,2.8-9.7,5.1-14.6,7.5
		c-9.9,5-19.8,10-29.1,14.7c4.3-14.1,13.3-25.2,28.6-30.4c5.7-2,11.6-3.3,17.2-5.5c3.2-1.2,6-3.6,8.9-5.5c-0.3-0.9-0.6-1.8-0.9-2.7
		c-4.9,0.5-10,0.4-14.7,1.7c-23.3,6.6-37,22.6-45.3,44.9c-9.4,25.1-20.2,49.8-30.4,74.7c-0.5-0.1-1-0.1-1.5-0.2
		c-3.5-7.3-7.2-14.5-10.4-21.9c-6.6-15.9-13.1-31.8-19.2-47.9c-4.4-11.5-8.5-23-17.5-31.9c-9.9-10-21.4-17-35.5-18.9
		c-2.8-0.4-5.8-0.1-9.2-0.1c1.9,5.7,5.8,6.9,9.6,8.3c7.4,2.6,15,4.5,22,7.8c12.1,5.7,19,14.9,22.7,27.8c-15.1-7.8-31-15.1-45.9-24
		c-7.9-4.7-14.9-11.5-20.8-18.6c-6.9-8.3-3.9-18.3,6.4-21.7c6.9-2.3,14.7-4.1,21.8-3.2c20.6,2.4,34-5.8,42.2-24.4
		c4.5-10.2,10.3-19.8,15.6-29.6c1.4-2.6,3-5.2,4.9-7.6c7.3-9.2,19.7-9.3,26.9,0.1c3.1,4.1,5.4,8.7,7.9,13.2
		c6.1,11,12,22.2,18.1,33.2c5.9,10.7,14.9,15.5,27.2,15.1c8.1-0.2,16.3,0.3,24.4,1.1C331.4,185.4,334.9,186.9,337.9,188.6z
		 M258,164.7c0.7-0.7,0.9-2,1.3-3.1c-1.2-0.2-2.7-0.9-3.6-0.5c-4.5,2.4-5.8,6.6-6.2,10.8C252.3,169.6,255.3,167.2,258,164.7z
		 M224.8,172.6c0.4-0.1,0.8-0.2,1.1-0.3c-2.5-3.7-4.8-7.6-7.6-11.1c-0.4-0.6-2.4,0-3.7,0c0.5,1.2,0.6,2.7,1.4,3.5
		C218.9,167.5,221.9,170,224.8,172.6z"/>
	<path class="st2" d="M336.1,75.9c0.2,0.6,0.3,1.2,0.5,1.7c-11.4,3.4-22.4,7.4-29.2,18c6.7-1.5,13.3-2.9,19.9-4.4
		c0.3,0.6,0.5,1.2,0.8,1.7c-11.7,10.2-21.5,23-36.8,28.4c-4.8,1.7-10.5,1.9-15.7,1.8c-5.3-0.2-7.5-4.1-4.6-8.6
		c4-6.2,9-11.8,13.7-17.5c3.1-3.8,6.5-7.5,10.8-12.5c-7.3,4.6-13.6,8.1-19.5,12.3c-4.3,3.1-8,7-11.9,10.6c-4.6,4.2-9.6,5.8-15.5,2.4
		c-7.9-4.6-16.1-3.9-23.9,0.2c-7.8,4.2-14.7,2.7-21.4-2.1c-5.7-4.1-11.2-8.5-16.8-12.8c-0.3,0.3-0.6,0.6-0.9,0.9
		c3.9,4.3,8,8.5,11.7,13c2.1,2.6,3.4,5.8,5.1,8.7c-3.6,1.5-7.1,4.1-10.9,4.5c-12,1.1-21.5-4.7-30-12.6c-4.4-4.1-8.5-8.6-13.1-12.5
		c-5.7-4.9-12.2-8.5-20.4-7.5c7.1,2.8,13,6.9,16.8,14.2c-6.2-1.1-12.1-2-17.9,3c8.7-2.2,15.5,0.2,21.9,5
		c-7.2,11.4-8.4,22.8-0.4,35.1c-4.9-2.5-9.7-4.9-15.3-7.8c5.3,7.4,12.2,11.2,19.5,15c-4.9-1.4-9.8-2.8-14.2-4.1
		c7.3,10.3,19.8,12.1,44.6,6.1c-1,6.8-4.6,11.8-10.3,14.5c-6.4,2.9-13.3,4.7-20.1,6.8c-6.2,2-12.8,3.1-18.8,5.7
		c-11.9,5.2-16,17-10.5,28.8c5.3,11.4,14.5,19.1,24.6,26c21.3,14.6,34.1,30.2,42.5,51.8c-0.3,0.4-0.7,0.8-1,1.2
		c-8.9-8-17.8-16-26.7-24c5.8,17.8,1.8,35.8-0.6,53.8c-1.9,13.9-4,27.7-6.1,41.9c-5.3-13.2-8.9-26.8-11.5-40.7
		c-2.6-13.8-4.3-27.9-6.5-42.4c-12.6,23.3-19.1,48.1-22.8,75.3c-14.8-36.3-15.2-72.4-9.1-110.4c-17.8,18.4-31.3,38.1-43.3,59.6
		C60.1,286,74.9,240.1,96,199.5c-5.5,2.9-10.5,5.9-15.8,8.3c-5.4,2.4-11.2,4.2-17.4,6.5c5.4-7.3,10.7-13.6,14.9-20.6
		c11.1-18.3,16.4-38.8,22.5-59c6.5-21.4,13.1-42.7,23.3-62.8c12-23.7,28.3-43.9,52.1-56.1c46.9-24,98.1-22.9,141,18
		c5.8,5.5,9.7,13,14.2,19.7c2,3,1.5,5.4-1.6,8.1c-5.3,4.6-9.8,10-14.9,15.3C322.2,76.5,329.2,76.2,336.1,75.9z"/>
	<path class="st2" d="M336.9,153.9c-4,9.3-9.5,15.2-18.4,15.8c-9.1,0.6-16.8-2.8-22.4-10.9C318.5,162.6,322.2,162.1,336.9,153.9z"/>
	<path class="st4" d="M320.5,115.3c6.4,5.1,7.9,17.4,3.3,24.8c-4.3,7-13.5,9.9-21,6.2c-2.6-1.2-4.9-3.5-6.7-5.8
		c-2.5-3.3-3.1-6.7,1.9-8.9c2-0.9,3.8-2.4,4.6-2.9c2.8,3,5,5.9,7.8,7.9c0.6,0.5,4-1.4,5-2.9c2.9-4.5,1.1-8.7-2.5-12.7
		C315.5,119.1,318.1,117.2,320.5,115.3z"/>
	<path d="M259.4,161.6c-0.4,1-0.6,2.4-1.3,3.1c-2.8,2.6-5.7,4.9-8.5,7.3c0.4-4.2,1.7-8.5,6.2-10.8
		C256.6,160.7,258.1,161.4,259.4,161.6z"/>
	<path d="M225.9,172.4c-0.4,0.1-0.8,0.2-1.1,0.3c-2.9-2.6-5.9-5.1-8.7-7.9c-0.8-0.8-1-2.3-1.4-3.5c1.3,0,3.2-0.6,3.7,0
		C221.1,164.8,223.4,168.6,225.9,172.4z"/>
	<path class="st4" d="M175,131.1c5.7,3.7,6.2,6.5,1.6,11.5c-4.5,4.9-10.3,6.3-16.5,4.7c-6.6-1.7-10.4-6.3-12-12.9
		c-1.6-7.3,0.1-13.6,4.7-19.6c2.9,2.2,5.5,4,8.4,6.2c-3.5,4.3-5.6,8.9-1.8,13.7c1,1.3,4.2,2.5,4.9,2c2.6-2.2,4.5-5.1,7-8.1
		C171.8,129,173.3,130.1,175,131.1z"/>
</g>
</svg>
