<?xml version="1.0" encoding="utf-8"?>
<!-- Generator: Adobe Illustrator 23.0.1, SVG Export Plug-In . SVG Version: 6.00 Build 0)  -->
<svg version="1.1" id="Capa_1" xmlns="http://www.w3.org/2000/svg" xmlns:xlink="http://www.w3.org/1999/xlink" x="0px" y="0px"
	 viewBox="0 0 473.7 646.3" style="enable-background:new 0 0 473.7 646.3;" xml:space="preserve">
<style type="text/css">
	.st0{fill:#E5DED4;}
	.st1{fill:#806749;}
	.st2{fill:#A38563;}
	.st3{fill:#66ACD7;}
	.st4{fill:#EFBE9A;}
	.st5{fill:#EE8700;}
	.st6{fill:#DB9B7C;}
	.st7{fill:#363B51;}
	.st8{fill:#D4C8B8;}
	.st9{fill:#9F968A;}
	.st10{fill:#68533B;}
	.st11{fill:#CA7300;}
	.st12{fill:#6A645C;}
	.st13{fill:#FFB398;}
	.st14{fill:#FE946F;}
	.st15{fill:#FFD422;}
</style>
<g>
	<path class="st0" d="M106.9,251.1L106.9,251.1c-17,0-30.8,13.8-30.8,30.8v41.1H44.5v20.5c0,17,13.8,30.8,30.8,30.8l0,0l0,0
		c0,11.3,9.2,20.5,20.5,20.5H148h173.7h52.1c11.3,0,20.5-9.2,20.5-20.5l0,0l0,0c17,0,30.8-13.8,30.8-30.8v-20.5h-31.6v-41.1
		c0-17-13.8-30.8-30.8-30.8l0,0L106.9,251.1L106.9,251.1z"/>
	<path class="st1" d="M160.2,389.4l-93.5,28.8c-27,8.3-45.2,33.2-45.2,61.1v166.3h427.2V479.4c0-28.2-18.3-53-45.2-61.3l-93.5-28.7"
		/>
	<path class="st2" d="M371.3,418.2l-93.5-28.8H160.2l-93.5,28.8c-27,8.3-45.2,33.2-45.2,61.1v166.3h395.2V479.4
		C416.5,451.3,398.2,426.5,371.3,418.2z"/>
	<path class="st1" d="M150.6,392.3l31,82.5l53.4-53.4l-80.6-30.1L150.6,392.3z"/>
	<path class="st1" d="M315.5,391.2l-80.6,30.1l53.4,53.4l31-82.5L315.5,391.2z"/>
	<path class="st3" d="M395.2,560.2h74.7V603h-74.7L395.2,560.2L395.2,560.2z"/>
	<path class="st1" d="M0,560.2h74.7V603H0V560.2z"/>
	<path class="st4" d="M395.2,603h53.4v42.7h-53.4V603z"/>
	<path class="st4" d="M21.3,603h53.4v42.7H21.3V603z"/>
	<path class="st1" d="M74.7,538.9h320.4v106.8H74.7V538.9z"/>
	<path class="st5" d="M352.4,400l-42.7-10.7v192.3h42.7L352.4,400L352.4,400z"/>
	<path class="st5" d="M117.4,400l42.7-10.7v192.3h-42.7V400z"/>
	<path class="st6" d="M117.4,271.8H96.1c-23.6,0-42.7-19.1-42.7-42.7s19.1-42.7,42.7-42.7h21.3"/>
	<path class="st4" d="M352.4,271.8h21.3c23.7,0,42.7-19.1,42.7-42.7s-19.1-42.7-42.7-42.7h-21.3"/>
	<path class="st6" d="M96.1,165.1v106.8c0,76.6,62.2,138.9,138.9,138.9s138.9-62.2,138.9-138.9V165.1"/>
	<path class="st4" d="M219,410.2c69.1-8,122.8-66.6,122.8-137.9V165.5H96.2v106.8C96.2,343.7,149.8,402.3,219,410.2z"/>
	<path class="st7" d="M173.5,262.4c-5.2,0-9.4-4.3-9.4-9.4v-2.5c0-5.2,4.3-9.4,9.4-9.4c5.2,0,9.4,4.3,9.4,9.4v2.5
		C183,258.2,178.7,262.4,173.5,262.4z"/>
	<path class="st7" d="M296.2,262.4c-5.2,0-9.4-4.3-9.4-9.4v-2.5c0-5.2,4.3-9.4,9.4-9.4c5.2,0,9.4,4.3,9.4,9.4v2.5
		C305.7,258.2,301.4,262.4,296.2,262.4z"/>
	<path class="st8" d="M326.7,165.1v108c-7.6,49.9-93.2,44.9-93.2,44.9c-83.2-1-89.3-46.9-89.3-46.9v-106H96.1v106.8
		c0,76.6,62.4,138.9,139.3,138.9s139.3-62.2,139.3-138.9V165.1H326.7z"/>
	<path class="st9" d="M235.7,349.5c-15.3,0-29.5-3.1-40.3-8.9c-4.6-2.4-6.2-8.2-3.9-12.6c2.4-4.6,8.2-6.2,12.6-3.9
		c8,4.3,19.4,6.7,31.4,6.7s23.6-2.4,31.4-6.7c4.6-2.5,10.2-0.8,12.6,3.9c2.4,4.6,0.8,10.2-3.9,12.6
		C265.5,346.3,251,349.5,235.7,349.5z"/>
	<path class="st1" d="M372.4,185.3H95.5v-57.7c0-12.7,10.3-23.1,23.1-23.1h230.8c12.7,0,23.1,10.3,23.1,23.1L372.4,185.3
		L372.4,185.3z"/>
	<path class="st5" d="M118.5,104.5l40.1-90.1c3.7-8.3,12-13.7,21.1-13.7h18.8c7.7,0,14.9,3.9,19.2,10.3l0.6,0.9
		c8.1,12.1,25.2,13.8,35.5,3.5l8-8c4.3-4.3,10.2-6.8,16.3-6.8h20c9.9,0,18.8,6.4,21.9,15.8l29.4,88.1L118.5,104.5L118.5,104.5z"/>
	<path class="st10" d="M350.4,104.6h-34.9h-11.6c12.8,0,23.2,10.4,23.2,23.2v58.1h46.5v-58.1C373.6,115,363.2,104.6,350.4,104.6z"/>
	<path class="st11" d="M286,15.9l29.6,88.7h34.9l-29.6-88.7c-3.2-9.5-12-15.9-22-15.9h-20.1c-2.5,0-4.9,0.5-7.3,1.3
		C278.2,3.6,283.7,8.9,286,15.9z"/>
	<rect x="406.9" y="210.9" class="st9" width="46.5" height="314.1"/>
	<rect x="372" y="234.2" class="st12" width="34.9" height="23.3"/>
	<rect x="430.1" y="210.9" class="st12" width="23.3" height="314.1"/>
	<rect x="385.3" y="517.5" class="st13" width="88.5" height="128.7"/>
	<g>
		<rect x="385.3" y="606" class="st14" width="32.2" height="16.1"/>
		<rect x="385.3" y="573.9" class="st14" width="32.2" height="16.1"/>
		<rect x="385.3" y="541.7" class="st14" width="32.2" height="16.1"/>
	</g>
	<rect x="129.6" y="540.4" class="st15" width="20.5" height="20.5"/>
	<rect x="321.9" y="540.4" class="st15" width="20.5" height="20.5"/>
</g>
</svg>
