<?xml version="1.0" encoding="utf-8"?>
<!-- Generator: Adobe Illustrator 23.0.1, SVG Export Plug-In . SVG Version: 6.00 Build 0)  -->
<svg version="1.1" id="Capa_1" xmlns="http://www.w3.org/2000/svg" xmlns:xlink="http://www.w3.org/1999/xlink" x="0px" y="0px"
	 viewBox="0 0 555.7 658.4" style="enable-background:new 0 0 555.7 658.4;" xml:space="preserve">
<style type="text/css">
	.st0{fill:#C6C5CA;}
	.st1{fill:#636365;}
	.st2{fill:#323133;}
	.st3{fill:#959498;}
	.st4{fill:#57565C;}
	.st5{fill:#FFFFFF;}
	.st6{fill:#B38D71;}
	.st7{fill:#866A55;}
	.st8{fill:#FFE477;}
	.st9{fill:#FFB655;}
	.st10{fill:#FF7956;}
	.st11{fill:#8D8B97;}
	.st12{opacity:0.3;fill:#716E7E;enable-background:new    ;}
	.st13{fill:#363B51;}
	.st14{fill:#948F8F;}
	.st15{fill:#898890;}
</style>
<g>
	<path class="st0" d="M151.3,381.5l-99.5,31.2c-28.8,9-48.1,35.8-48.1,66v179.6h454.6V478.6c0-30.5-19.5-57.2-48.1-66.2l-99.5-31"/>
	<path class="st1" d="M387.2,468.4h72v189.9h-72V468.4z"/>
	<path class="st1" d="M0,472.6h72.6v185.8H0V472.6z"/>
	<path class="st2" d="M0,472.6c0,0-0.1-42.4,46.3-59c0,0,7.4,30.9,26.4,59H0z"/>
	<path class="st2" d="M459.2,472.6c0,0,0.1-42.4-46.3-59c0,0-7.4,30.9-26.4,59H459.2z"/>
	<path class="st3" d="M296.6,373.1H170.7L46,411.1C65.9,494.2,140.6,556,229.8,556c89.2,0,164-61.8,183.9-144.9L296.6,373.1z"/>
	<path class="st4" d="M115.6,389.9l-69.9,21.5c19.9,83.1,94.7,144.9,183.9,144.9c12.6,0,24.9-1.2,36.8-3.6
		c-72.4-14.3-130-69.9-147.1-141.3L115.6,389.9z"/>
	<g>
		<path class="st5" d="M359.6,444L338,433.3c-5.2,10.6-12,20.5-20.2,29.2l17.6,16.5C345.2,468.6,353.3,456.8,359.6,444z"/>
		<path class="st5" d="M285.3,513.8l-9.3-22.3c-6.7,2.8-13.8,5-20.9,6.5l5,23.6C268.7,519.8,277.2,517.1,285.3,513.8z"/>
		<path class="st5" d="M322.7,491.1l-15.5-18.5c-5.6,4.7-11.7,8.9-18,12.5l11.9,21C308.7,501.7,315.9,496.7,322.7,491.1z"/>
	</g>
	<polygon class="st6" points="473.8,56.6 441.7,95.4 441.7,492 505.9,492 505.9,95.4 	"/>
	<polygon class="st7" points="487.1,72.6 473.8,56.6 441.7,95.4 441.7,492 468.2,492 468.2,95.4 	"/>
	<rect x="392" y="492" class="st8" width="163.7" height="38.8"/>
	<g>
		<rect x="392" y="492" class="st9" width="49.8" height="38.8"/>
		<rect x="447.3" y="530.7" class="st9" width="53.1" height="127.6"/>
	</g>
	<rect x="447.3" y="530.7" class="st10" width="20.8" height="127.6"/>
	<rect x="351.9" y="545.9" class="st5" width="17.4" height="17.4"/>
	<rect x="351.9" y="516.9" class="st5" width="17.4" height="17.4"/>
	<rect x="351.9" y="575" class="st5" width="17.4" height="76"/>
	<path class="st11" d="M231.1,47.8C78.2,44.4,80.8,139.2,80.8,139.2v115.3c0,82.8,67.2,150,150,150c82.8,0,150-67.2,150-150V139.2
		C371.5,41.1,231.1,47.8,231.1,47.8z"/>
	<path class="st12" d="M230.2,47.8C77.3,44.4,79.9,139.2,79.9,139.2v115.3c0,82.8,67.2,150,150,150"/>
	<path class="st13" d="M160.6,245.7c-5.6,0-10.1-4.7-10.1-10.1v-2.7c0-5.6,4.6-10.1,10.1-10.1c5.6,0,10.1,4.6,10.1,10.1v2.7
		C170.7,241.1,166.1,245.7,160.6,245.7z"/>
	<path class="st13" d="M293.1,245.7c-5.6,0-10.1-4.7-10.1-10.1v-2.7c0-5.6,4.6-10.1,10.1-10.1c5.6,0,10.1,4.6,10.1,10.1v2.7
		C303.2,241.1,298.7,245.7,293.1,245.7z"/>
	<path class="st14" d="M139.6,62.6c0,0-42.1,197.2-58.8,193V133.9C80.8,133.9,83.5,84.4,139.6,62.6z"/>
	<path class="st14" d="M321.5,62.6c0,0,42.1,197.2,58.8,193V133.9C380.3,133.9,377.5,84.4,321.5,62.6z"/>
	<g>
		<path class="st0" d="M387.2,268.4H67.7V159.8C67.7,71.5,139.2,0,227.4,0l0,0c88.2,0,159.8,71.5,159.8,159.8L387.2,268.4
			L387.2,268.4z"/>
		<path class="st15" d="M255.6,2.5C246.5,0.9,237.1,0,227.4,0l0,0C139.2,0,67.7,71.5,67.7,159.8v108.6H124V159.8
			C124,81.1,180.8,15.8,255.6,2.5z"/>
		<rect x="119.9" y="161.9" class="st15" width="215" height="38.4"/>
		<rect x="334.9" y="161.9" class="st15" width="33.2" height="38.4"/>
		<path class="st5" d="M316.8,92.7c8.9,11.8,15.3,25,18.9,39.3l18.6-4.8c-4.3-16.7-11.8-32.2-22.2-46.1L316.8,92.7z"/>
		<path class="st5" d="M309.2,83.6l14-13.1c-4.7-5-9.8-9.7-15.2-14l-11.8,15.1C300.8,75.3,305.2,79.3,309.2,83.6z"/>
		<path class="st5" d="M296.7,48.7c-5.8-3.7-12-6.9-18.4-9.6l-7.5,17.7c5.4,2.3,10.7,5,15.7,8.2L296.7,48.7z"/>
	</g>
	<path class="st5" d="M298.2,367.9l-11.7-21.1c-6.4,3.5-13.1,6.5-20,8.8l7.7,22.9C282.4,375.8,290.6,372.2,298.2,367.9z"/>
	<path class="st5" d="M332.8,341.2l-17.5-16.6c-5,5.3-10.6,10.2-16.5,14.4l14.2,19.5C320.1,353.3,326.8,347.5,332.8,341.2z"/>
</g>
</svg>
