<?xml version="1.0" encoding="utf-8"?>
<!-- Generator: Adobe Illustrator 23.0.1, SVG Export Plug-In . SVG Version: 6.00 Build 0)  -->
<svg version="1.1" id="Layer_1" xmlns="http://www.w3.org/2000/svg" xmlns:xlink="http://www.w3.org/1999/xlink" x="0px" y="0px"
	 viewBox="0 0 570.6 524" style="enable-background:new 0 0 570.6 524;" xml:space="preserve">
<style type="text/css">
	.st0{fill:#324349;}
	.st1{fill:#26383D;}
	.st2{fill:#F9F6F2;}
	.st3{fill:#F2EDE7;}
	.st4{fill:#E5DFD8;}
	.st5{fill:#EFBE9A;}
	.st6{fill:#DB9B7C;}
	.st7{fill:#363B51;}
	.st8{fill-rule:evenodd;clip-rule:evenodd;fill:#5B696D;}
</style>
<g>
	<path class="st0" d="M570.6,461.3v10.9c0,27.6-22.5,50.1-50.2,50.1H408.7l-124.4-22.3l-0.1,0l-124.3,22.3H50.2
		C22.5,522.4,0,499.9,0,472.3v-10.9C0,402,45.4,353.1,103.3,347.2l181,31.1l0,0l181.1-31.3C524.2,352,570.6,401.4,570.6,461.3z"/>
	<path class="st1" d="M570.6,461.3v10.9c0,27.6-22.5,50.1-50.2,50.1H408.7l-124.4-22.3V378.3l0,0l181.1-31.3
		C524.2,352,570.6,401.4,570.6,461.3z"/>
	<path class="st2" d="M463.6,347.5c-13.2,21.4-32.8,40.2-57.1,54.9V524H298.1l-16.8-22.3l-0.1-0.1L264.5,524H156V402.4
		c-24.2-14.6-43.8-33.4-57-54.7c3.9-0.4,7.8-0.6,11.7-0.6h343C457.1,347.1,460.4,347.2,463.6,347.5z"/>
	<path class="st3" d="M463.6,347.5c-13.2,21.4-32.8,40.2-57.1,54.9V524H298.1l-16.8-22.3V347.1h172.5
		C457.1,347.1,460.4,347.2,463.6,347.5z"/>
	<path class="st3" d="M264.5,347.1h33.7V524h-33.7V347.1z"/>
	<path class="st4" d="M281.3,347.1h16.8V524h-16.8V347.1z"/>
	<path class="st5" d="M331.2,329.6v44.1c0,26.9-21.9,48.8-48.9,48.8h0c-27,0-48.9-21.9-48.9-48.8v-44.1H331.2z"/>
	<path class="st6" d="M331.2,329.6v44.1c0,26.9-21.9,48.8-48.9,48.8v-92.9H331.2z"/>
	<path class="st6" d="M173.3,228.4h-19.8c-21.9,0-39.7-17.7-39.7-39.7c0-22,17.7-39.7,39.7-39.7h19.8"/>
	<path class="st5" d="M391.6,228.4h19.8c22,0,39.7-17.7,39.7-39.7c0-22-17.7-39.7-39.7-39.7h-19.8"/>
	<path class="st6" d="M153.5,129.2v99.2c0,71.2,57.8,129,129,129c71.2,0,129-57.8,129-129v-99.2"/>
	<path class="st5" d="M267.6,356.4c64.2-7.4,114.1-61.9,114.1-128.1v-99.2H153.5v99.2C153.5,294.6,203.3,349,267.6,356.4z"/>
	<path class="st7" d="M225.4,219.5c-4.8,0-8.7-4-8.7-8.7v-2.3c0-4.8,4-8.7,8.7-8.7c4.8,0,8.7,4,8.7,8.7v2.3
		C234.2,215.6,230.2,219.5,225.4,219.5z"/>
	<path class="st7" d="M339.4,219.5c-4.8,0-8.7-4-8.7-8.7v-2.3c0-4.8,4-8.7,8.7-8.7c4.8,0,8.7,4,8.7,8.7v2.3
		C348.2,215.6,344.2,219.5,339.4,219.5z"/>
	<path class="st2" d="M227.2,174.7h-67.6c-7.5,0-13.5-6.4-13.5-14.3V94.2c0-51.8,40-94.2,89-94.2h47.5v116.1
		C282.5,148.5,257.7,174.7,227.2,174.7z"/>
	<path class="st3" d="M337.8,174.7h67.6c7.5,0,13.5-6.4,13.5-14.3V94.2c0-51.8-40-94.2-89-94.2h-47.5v116.1
		C282.5,148.5,307.2,174.7,337.8,174.7z"/>
	<path class="st2" d="M153.9,222.5c-28.6,0-51.8,23.2-51.8,51.8c0,28.5,23.2,51.8,51.8,51.8c28.6,0,51.8-23.2,51.8-51.8
		C205.6,245.7,182.4,222.5,153.9,222.5z"/>
	<path class="st3" d="M410.7,222.5c-28.5,0-51.8,23.2-51.8,51.8c0,28.5,23.2,51.8,51.8,51.8c28.6,0,51.8-23.2,51.8-51.8
		C462.5,245.7,439.3,222.5,410.7,222.5z"/>
	<path class="st3" d="M153.9,149.9c-28.6,0-51.8,23.2-51.8,51.8c0,28.5,23.2,51.8,51.8,51.8c28.6,0,51.8-23.2,51.8-51.8
		C205.6,173.2,182.4,149.9,153.9,149.9z"/>
	<path class="st4" d="M410.7,149.9c-28.5,0-51.8,23.2-51.8,51.8c0,28.5,23.2,51.8,51.8,51.8c28.6,0,51.8-23.2,51.8-51.8
		C462.5,173.2,439.3,149.9,410.7,149.9z"/>
	<path class="st7" d="M282.6,294.6c-15.3,0-29.5-3.1-40.3-8.9c-4.6-2.4-6.2-8.2-3.9-12.6c2.4-4.6,8.2-6.2,12.6-3.9
		c8,4.3,19.4,6.7,31.4,6.7c12.1,0,23.6-2.4,31.4-6.7c4.6-2.5,10.2-0.8,12.6,3.9c2.4,4.6,0.8,10.2-3.9,12.6
		C312.4,291.5,297.9,294.6,282.6,294.6z"/>
	<path class="st8" d="M472.5,516.2c-1.1,1.1-2.2,2.2-3.2,3.2c-3.6,2.3-7.6,3-11.8,2.9c-3.4-0.1-6.7-0.1-10.1,0
		c-5,0.2-9.8-0.1-14.1-2.9c-1.1-1.1-2.2-2.2-3.2-3.2c-2.1-3.4-2.9-7.2-2.8-11.2c0.1-19.1,0.1-38.2,0.1-57.4
		c0-9.4,5.5-15.4,14.9-16.1c0.3,0,0.6-0.1,0.6-0.1c0-14.3,0-28.4,0.1-42.8c-5.8,0-11.7,0.1-17.6,0.1c-2.3,0-4.7,0.4-6.7-1.4
		c-0.6-0.6-1.2-1.3-2-2.2c-0.1,1.4-0.1,2.4-0.2,3.5c-0.2,4.7-3.4,9.1-8,10.2c-5,1.2-10,1.4-15,0.2c-5.3-1.2-8.8-5.4-8.8-10.4
		c-0.1-10.9-0.1-21.8-0.1-32.7c0-9-0.1-18,0-27c0.1-5.2-1-10.6,1.9-15.5c0.9-0.9,1.8-1.8,2.8-2.8c1.9-0.6,3.7-1.6,5.7-1.8
		c3.5-0.3,7.1-0.2,10.7-0.1c6.1,0.2,10.7,4.8,10.9,11c0,1,0.1,2,0.2,3.1c1.6-2.3,3.4-3.5,6.1-3.5c19,0,38,0,57,0
		c2.3,0,4.1,0.9,5.3,2.8c0.2,0.2,0.3,0.4,0.8,1c0-0.9,0.1-1.4,0.1-2c0-6.4,2.9-10.7,8.7-12.1c3-0.7,6.1-0.5,9.2-0.6
		c3.3-0.2,6.4,0.9,9.4,2.2c0.9,0.9,1.8,1.8,2.8,2.8c0.6,1.9,1.7,3.9,1.8,5.8c0.2,9,0.2,18,0.2,27c0,13.4,0,26.8,0,40.2
		c0,7.5-3.6,12-11,12.8c-3.4,0.4-6.8,0.2-10.2,0c-6.3-0.4-10.5-4.9-10.7-11.1c0-0.9-0.1-1.8-0.2-2.9c-2.7,2.9-3.5,3.5-5.5,3.5
		c-4.5,0-8.9,0-13.3,0c-2.5,0-5.1,0-7.5,0.1c0,14.3,0,28.4,0.1,42.7c0.4,0,0.9,0.1,1.5,0.1c3,0.2,5.9,1.1,8.3,3
		c4.4,3.4,6.1,8,6.1,13.4c0,18-0.1,36,0,54C475.4,506.9,475.3,511.8,472.5,516.2z"/>
</g>
</svg>
