<?xml version="1.0" encoding="utf-8"?>
<!-- Generator: Adobe Illustrator 23.0.1, SVG Export Plug-In . SVG Version: 6.00 Build 0)  -->
<svg version="1.1" id="Capa_1" xmlns="http://www.w3.org/2000/svg" xmlns:xlink="http://www.w3.org/1999/xlink" x="0px" y="0px"
	 viewBox="0 0 804.3 735.3" style="enable-background:new 0 0 804.3 735.3;" xml:space="preserve">
<style type="text/css">
	.st0{fill-rule:evenodd;clip-rule:evenodd;fill:#EC5569;}
	.st1{opacity:0.2;enable-background:new    ;}
	.st2{opacity:0.3;enable-background:new    ;}
</style>
<path class="st0" d="M404,109.1c1.4-2,2.9-3.5,3.7-5.4c29.3-60.8,78.7-92.1,142-101.1C691.5-17.6,811,102,797.9,249.2
	c-6,67.2-31.1,126.4-66.6,181.6c-44.3,68.8-101,125.7-162.8,177.5c-49.3,41.3-101.6,78-155.6,112.4c-6.9,4.4-12.2,4.4-19.1,0
	C305.6,664.7,222,602.5,149.7,525.2c-46.7-49.9-87-104.5-113.9-168.6c-26.1-62-37.3-126-19-192.4C59.7,8.1,234.1-43.8,347.7,39.4
	c21.8,16,37.9,37.2,50,61.7c1.1,2.2,2.4,4.4,3.7,6.5C401.6,108,402.3,108.2,404,109.1z"/>
<g>
	<path d="M459.3,670.8l-2-6.5c-1-3.1-3.9-5.1-7.2-4.7l-6.7-49.9c-2.1-16.5-12.4-30.7-27.1-38l-21.5-10.8c-3.3-1.6-7-0.2-8.5,2.9
		l-43.1-15.8c-8.2-2.8-13.7-10.3-13.7-18.9v-32.1l43.1-18c22.4-9.3,36.9-31.2,36.9-55.3v-10c16.5,0,30-13.4,30-30
		c0-16.5-13.4-30-30-30v-19.9c0-27.6-22.4-69.9-49.9-69.9H179.8c-27.6,0-49.9,42.3-49.9,69.9v19.9c-16.5,0-30,13.4-30,30
		c0,16.5,13.4,30,30,30v10c0,24.2,14.5,46,36.9,55.3l43.1,18V529c0,8.6-5.5,16.2-13.7,18.9l-42.1,15.5c-1.6-2.9-5.2-4.2-8.3-2.8
		l-19.6,9.8c-16.8,8.3-26.9,22.7-29,39l-6.7,49.9c-3.1-0.3-6.2,1.5-7.2,4.7l-2,6.5c-1,3.4,1,7.2,4.4,8.2l14.2,4.1v30.2
		c0,11.1,9,19.9,19.9,19.9h40.5h219.8h39.5c11.1,0,19.9-9,19.9-19.9v-29.9l15.2-4.4C458.3,678,460.2,674.4,459.3,670.8z"/>
	<path d="M329.7,496H209.9v33.1c0,7.2-3.8,13.5-9.6,17.1C283.6,560.6,329.7,496,329.7,496z"/>
	<g>
		<path d="M451.6,669.5l-8-59.9c-2.1-16.5-12.4-30.7-27.1-38L395,560.8c-3.6-1.8-7.8,0.3-9,4.2c-13.9,50.9-60.4,88.3-115.7,88.3
			S168.4,616,154.6,565c-1.1-3.9-5.2-6-9-4.2l-19.6,9.8c-16.8,8.3-26.9,22.7-29,39l-8.2,61c26.4,9.1,71.5,22.7,71.5,22.7v40h219.8
			v-40L451.6,669.5z"/>
	</g>
	<g>
		<path d="M160.1,690.2c-0.7-11.9-4.6-23.3-11.8-33l-46.8-62.5c-2.3,4.7-3.9,9.6-4.6,14.9l-8,59.4L160.1,690.2z"/>
	</g>
	<g>
		<path d="M81.3,670.8c-1,3.4,1,7.2,4.4,8.2l74.7,21.7v-7.5c0-4.7-0.8-9.3-1.8-13.9l-67.2-19.6c-3.4-1-7.2,1-8.2,4.4L81.3,670.8z"/>
	</g>
	<g>
		<path d="M380.4,690.2c0.7-11.9,4.6-23.3,11.8-33l46.8-62.5c2.3,4.7,3.9,9.6,4.6,14.9l8,59.4L380.4,690.2z"/>
	</g>
	<g>
		<path d="M459.3,670.8c1,3.4-1,7.2-4.4,8.2l-74.7,21.7v-7.5c0-4.7,0.8-9.3,1.8-13.9l67.2-19.6c3.4-1,7.2,1,8.2,4.4L459.3,670.8z"/>
	</g>
	<g>
		<path d="M110,333.8c-30,0-89.9,11.3-89.9,99.9C20.1,522.3,0,633.4,0,633.4s99.9-10.6,99.9-129.9c0-111.1,19.9-129.9,19.9-129.9
			L110,333.8z"/>
	</g>
	<g>
		<path d="M99.9,503.5c0-111.1,19.9-129.9,19.9-129.9l-19.9-30c-11.6,1.6-55.8,1.8-49.9,80C55.8,501.7,84.9,580.9,0,633.2
			C0,633.4,99.9,622.8,99.9,503.5z"/>
	</g>
	<g>
		<path d="M121.8,364.6l-12.4-34.3c-2-5.2-7.7-7.8-12.7-6c-5.2,2-7.8,7.7-6,12.7l12.4,34.3c2,5.2,7.7,7.8,12.7,6
			C120.9,375.5,123.7,369.8,121.8,364.6z"/>
	</g>
	<g>
		<path d="M429.6,333.8c30,0,89.9,11.3,89.9,99.9c0,88.6,19.9,199.8,19.9,199.8s-99.9-10.6-99.9-129.9
			c0-111.1-19.9-129.9-19.9-129.9L429.6,333.8z"/>
	</g>
	<g>
		<path d="M439.5,503.5c0-111.1-19.9-129.9-19.9-129.9l19.9-30c11.6,1.6,55.8,1.8,49.9,80c-5.9,78.2-34.9,157.3,49.9,209.7
			C539.4,633.4,439.5,622.8,439.5,503.5z"/>
	</g>
	<g>
		<path d="M417.8,364.6l12.4-34.3c2-5.2,7.7-7.8,12.7-6c5.2,2,7.8,7.7,6,12.7l-12.4,34.3c-2,5.2-7.7,7.8-12.7,6
			C418.6,375.5,415.8,369.8,417.8,364.6z"/>
	</g>
	<path d="M409.6,353.7v-19.9c0-27.6-22.4-69.9-49.9-69.9H179.8c-27.6,0-49.9,42.3-49.9,69.9v19.9c-16.5,0-30,13.4-30,30
		c0,16.5,13.4,30,30,30v10c0,24.2,14.5,46,36.9,55.3l64.5,26.9c12.2,5.1,25.3,7.7,38.4,7.7l0,0c13.2,0,26.3-2.6,38.4-7.7l64.6-26.9
		c22.4-9.3,36.9-31.2,36.9-55.3v-10c16.5,0,30-13.4,30-30S426.1,353.7,409.6,353.7z"/>
	<g>
		<path d="M199.8,393.7L199.8,393.7c-5.5,0-10-4.6-10-10v-10c0-5.5,4.6-10,10-10l0,0c5.5,0,10,4.6,10,10v10
			C209.9,389.1,205.3,393.7,199.8,393.7z"/>
	</g>
	<g>
		<path d="M339.6,393.7L339.6,393.7c-5.5,0-10-4.6-10-10v-10c0-5.5,4.6-10,10-10l0,0c5.5,0,10,4.6,10,10v10
			C349.7,389.1,345.2,393.7,339.6,393.7z"/>
	</g>
	<g>
		<g>
			<path d="M269.8,463.8c-17.8,0-34.4-4.4-45.5-11.9c-4.6-3.1-5.7-9.3-2.6-13.9c3.1-4.6,9.3-5.7,13.9-2.6c7.8,5.4,20.7,8.5,34.3,8.5
				s26.4-3.3,34.3-8.5c4.6-3.1,10.8-2,13.9,2.6c3.1,4.6,2,10.8-2.6,13.9C304.2,459.4,287.6,463.8,269.8,463.8z"/>
		</g>
	</g>
	<path d="M261.1,262.6c-1.8,54-131.2,91.2-131.2,91.2c-16.5,0-30,13.4-30,30c0,16.5,13.4,30,30,30v10c0,24.2,14.5,46,36.9,55.3
		l64.5,26.9c3.1,1.3,6.4,2.4,9.6,3.4c-28.6-20.9-47.5-39.2-58.6-51.1c-8.2-8.6-12.4-20.1-12.4-32v-55.8
		c28.6-10,108.9-42.8,109.8-96.6c0-4.1,0-7.8-0.2-11.3L261.1,262.6L261.1,262.6z"/>
	<path d="M319.7,153.9c-32.5,0-49.9,10-49.9,10s-17.5-10-49.9-10S64.1,216.4,110,361.2c0,0,159.8-28.4,159.8-97.4
		c0,69,159.8,97.4,159.8,97.4C475.4,216.4,352.2,153.9,319.7,153.9z"/>
	<g>
		<path d="M269.8,163.9L269.8,163.9c0,0-17.5-10-49.9-10S64.1,216.4,110,361.2c0,0,19.4-3.4,44.6-10.8
			C126.3,220.5,238.8,164,269.8,163.9z"/>
	</g>
	<g>
		<circle cx="269.8" cy="713.4" r="10"/>
	</g>
	<g>
		<circle cx="189.8" cy="713.4" r="10"/>
	</g>
	<g>
		<circle cx="349.7" cy="713.4" r="10"/>
	</g>
	<g>
		<circle cx="309.8" cy="713.4" r="10"/>
	</g>
	<g>
		<circle cx="229.8" cy="713.4" r="10"/>
	</g>
	<g>
		<circle cx="289.7" cy="683.4" r="10"/>
	</g>
	<g>
		<circle cx="209.9" cy="683.4" r="10"/>
	</g>
	<g>
		<circle cx="369.7" cy="683.4" r="10"/>
	</g>
	<g>
		<path d="M169.9,673.4c5.5,0,10,4.5,10,10s-4.5,10-10,10c-5.5,0-10-4.5-10-10S164.4,673.4,169.9,673.4z"/>
	</g>
	<g>
		<circle cx="329.7" cy="683.4" r="10"/>
	</g>
	<g>
		<circle cx="249.7" cy="683.4" r="10"/>
	</g>
</g>
<path d="M469.8,457.5l-101,31.2c-29.2,9-48.8,35.8-48.8,66v179.6h461.5V554.5c0-30.5-19.8-57.2-48.8-66.2l-101-31"/>
<path d="M614.1,734.3h167.2V554.5c0-30.5-22-57.2-54.2-66.2l-109.2-36.2"/>
<path d="M474.5,457.5l-104.2,31.2c-30,9-50.3,35.8-50.3,66v179.6h155"/>
<path d="M637.6,459.4L550.5,492l57.7,57.7l33.5-89.1L637.6,459.4z"/>
<path d="M723.6,642h80.7v46.2h-80.7V642z"/>
<path d="M296.8,642h80.7v46.2h-80.7V642z"/>
<path d="M723.6,688.1h57.7v46.2h-57.7V688.1z"/>
<path d="M319.8,688.1h57.7v46.2h-57.7V688.1z"/>
<path d="M459.5,460.6l33.5,89.1l57.7-57.7l-87.1-32.6L459.5,460.6z"/>
<path class="st1" d="M697.8,489.7l-101-31.2h-127l-101,31.2c-29.2,9-48.8,35.8-48.8,66v179.6h426.8V555.7
	C746.6,525.5,726.9,498.6,697.8,489.7z"/>
<g id="XMLID_1_">
	<g>
		<polygon points="723.6,714.1 723.6,734.3 714,734.3 387.8,483 413.1,475.1 		"/>
		<polygon points="723.6,688.1 723.6,714.1 413.1,475.1 436.3,467.7 		"/>
		<polygon points="714,734.3 677.5,734.3 360.5,491.6 387.8,483 		"/>
	</g>
</g>
<path d="M423.6,330.5h-23c-25.5,0-46.2-20.6-46.2-46.2c0-25.6,20.6-46.2,46.2-46.2h23"/>
<path d="M677.5,330.5h23c25.6,0,46.2-20.6,46.2-46.2c0-25.6-20.6-46.2-46.2-46.2h-23"/>
<path d="M556.2,100.3c-152.9-3.5-155.6,114.9-155.6,114.9v115.3c0,82.8,67.2,150,150,150c82.8,0,150-67.2,150-150V215.2
	C697.7,100.2,556.2,100.3,556.2,100.3z"/>
<path class="st2" d="M555.3,100.3c-152.9-3.5-155.6,114.9-155.6,114.9v115.3c0,82.8,67.2,150,150,150"/>
<path d="M480.4,321.7c-5.6,0-10.1-4.7-10.1-10.1v-2.7c0-5.6,4.7-10.1,10.1-10.1c5.6,0,10.1,4.6,10.1,10.1v2.7
	C490.5,317,486,321.7,480.4,321.7z"/>
<path d="M612.9,321.7c-5.6,0-10.1-4.7-10.1-10.1v-2.7c0-5.6,4.7-10.1,10.1-10.1c5.6,0,10.1,4.6,10.1,10.1v2.7
	C623,317,618.5,321.7,612.9,321.7z"/>
<path d="M547.6,415.7c-16.5,0-31.9-3.4-43.5-9.6c-5-2.6-6.7-8.8-4.2-13.6c2.6-5,8.8-6.7,13.6-4.2c8.6,4.6,20.9,7.2,33.9,7.2
	s25.5-2.6,33.9-7.2c5-2.7,11-0.8,13.6,4.2c2.6,5,0.8,11-4.2,13.6C579.7,412.4,564.1,415.7,547.6,415.7z"/>
<path d="M459.5,138.5c0,0-42.1,197.2-58.8,193V209.8C400.6,209.8,403.3,160.3,459.5,138.5z"/>
<path d="M641.3,138.5c0,0,42.1,197.2,58.8,193V209.8C700.1,209.8,697.3,160.3,641.3,138.5z"/>
</svg>
