<?xml version="1.0" encoding="utf-8"?>
<!-- Generator: Adobe Illustrator 23.0.1, SVG Export Plug-In . SVG Version: 6.00 Build 0)  -->
<svg version="1.1" id="Layer_1" xmlns="http://www.w3.org/2000/svg" xmlns:xlink="http://www.w3.org/1999/xlink" x="0px" y="0px"
	 viewBox="0 0 464 464" style="enable-background:new 0 0 464 464;" xml:space="preserve">
<style type="text/css">
	.st0{fill:#FFD7A3;}
	.st1{fill:#FDC88E;}
	.st2{fill:#8DB9E2;}
	.st3{fill:#6AA2DE;}
	.st4{fill:#4E87BB;}
	.st5{fill:#9D6E48;}
	.st6{fill:#8D5F3D;}
	.st7{fill:#FFE1B2;}
	.st8{fill:#623F33;}
	.st9{fill:#E4B07B;}
	.st10{fill:#FF8C51;}
	.st11{fill:#FFC84A;}
</style>
<g>
	<path class="st0" d="M346.8,425.7l-1.2-4c-0.6-1.9-2.4-3.1-4.4-2.9l-4.1-30.6c-1.3-10.1-7.6-18.8-16.6-23.3l-13.2-6.6
		c-2-1-4.3-0.1-5.2,1.8l-26.4-9.7c-5-1.7-8.4-6.3-8.4-11.6v-19.7l26.4-11c13.7-5.7,22.6-19.1,22.6-33.9v-6.1
		c10.1,0,18.4-8.2,18.4-18.4c0-10.1-8.2-18.4-18.4-18.4v-12.2c0-16.9-13.7-42.8-30.6-42.8H175.6c-16.9,0-30.6,25.9-30.6,42.8v12.2
		c-10.1,0-18.4,8.2-18.4,18.4c0,10.1,8.2,18.4,18.4,18.4v6.1c0,14.8,8.9,28.2,22.6,33.9l26.4,11v19.7c0,5.3-3.4,9.9-8.4,11.6
		l-25.8,9.5c-1-1.8-3.2-2.6-5.1-1.7l-12,6c-10.3,5.1-16.5,13.9-17.8,23.9l-4.1,30.6c-1.9-0.2-3.8,0.9-4.4,2.9l-1.2,4
		c-0.6,2.1,0.6,4.4,2.7,5l8.7,2.5v18.5c0,6.8,5.5,12.2,12.2,12.2h24.8h134.7h24.2c6.8,0,12.2-5.5,12.2-12.2v-18.3l9.3-2.7
		C346.2,430.1,347.4,427.9,346.8,425.7z"/>
	<path class="st1" d="M267.4,318.6H194v20.3c0,4.4-2.3,8.3-5.9,10.5C239.2,358.2,267.4,318.6,267.4,318.6z"/>
	<g>
		<path class="st2" d="M342.1,424.9l-4.9-36.7c-1.3-10.1-7.6-18.8-16.6-23.3l-13.2-6.6c-2.2-1.1-4.8,0.2-5.5,2.6
			c-8.5,31.2-37,54.1-70.9,54.1c-33.9,0-62.4-22.9-70.9-54.1c-0.7-2.4-3.2-3.7-5.5-2.6l-12,6c-10.3,5.1-16.5,13.9-17.8,23.9l-5,37.4
			c16.2,5.6,43.8,13.9,43.8,13.9V464h134.7v-24.5L342.1,424.9z"/>
	</g>
	<g>
		<path class="st3" d="M163.5,437.6c-0.4-7.3-2.8-14.3-7.2-20.2l-28.7-38.3c-1.4,2.9-2.4,5.9-2.8,9.1l-4.9,36.4L163.5,437.6z"/>
	</g>
	<g>
		<path class="st4" d="M115.2,425.7c-0.6,2.1,0.6,4.4,2.7,5l45.8,13.3v-4.6c0-2.9-0.5-5.7-1.1-8.5l-41.2-12c-2.1-0.6-4.4,0.6-5,2.7
			L115.2,425.7z"/>
	</g>
	<g>
		<path class="st3" d="M298.5,437.6c0.4-7.3,2.8-14.3,7.2-20.2l28.7-38.3c1.4,2.9,2.4,5.9,2.8,9.1l4.9,36.4L298.5,437.6z"/>
	</g>
	<g>
		<path class="st4" d="M346.8,425.7c0.6,2.1-0.6,4.4-2.7,5l-45.8,13.3v-4.6c0-2.9,0.5-5.7,1.1-8.5l41.2-12c2.1-0.6,4.4,0.6,5,2.7
			L346.8,425.7z"/>
	</g>
	<g>
		<path class="st5" d="M132.8,219.2c-18.4,0-55.1,6.9-55.1,61.2S65.4,402.8,65.4,402.8s61.2-6.5,61.2-79.6
			c0-68.1,12.2-79.6,12.2-79.6L132.8,219.2z"/>
	</g>
	<g>
		<path class="st6" d="M126.6,323.2c0-68.1,12.2-79.6,12.2-79.6l-12.2-18.4c-7.1,1-34.2,1.1-30.6,49c3.6,47.9,21.4,96.4-30.6,128.5
			C65.4,402.8,126.6,396.3,126.6,323.2z"/>
	</g>
	<g>
		<path class="st3" d="M140,238.1l-7.6-21c-1.2-3.2-4.7-4.8-7.8-3.7c-3.2,1.2-4.8,4.7-3.7,7.8l7.6,21c1.2,3.2,4.7,4.8,7.8,3.7
			C139.5,244.8,141.2,241.3,140,238.1z"/>
	</g>
	<g>
		<path class="st5" d="M328.6,219.2c18.4,0,55.1,6.9,55.1,61.2s12.2,122.4,12.2,122.4s-61.2-6.5-61.2-79.6
			c0-68.1-12.2-79.6-12.2-79.6L328.6,219.2z"/>
	</g>
	<g>
		<path class="st6" d="M334.7,323.2c0-68.1-12.2-79.6-12.2-79.6l12.2-18.4c7.1,1,34.2,1.1,30.6,49c-3.6,47.9-21.4,96.4,30.6,128.5
			C395.9,402.8,334.7,396.3,334.7,323.2z"/>
	</g>
	<g>
		<path class="st3" d="M321.4,238.1l7.6-21c1.2-3.2,4.7-4.8,7.8-3.7c3.2,1.2,4.8,4.7,3.7,7.8l-7.6,21c-1.2,3.2-4.7,4.8-7.8,3.7
			C321.9,244.8,320.2,241.3,321.4,238.1z"/>
	</g>
	<path class="st7" d="M316.4,231.4v-12.2c0-16.9-13.7-42.8-30.6-42.8H175.6c-16.9,0-30.6,25.9-30.6,42.8v12.2
		c-10.1,0-18.4,8.2-18.4,18.4c0,10.1,8.2,18.4,18.4,18.4v6.1c0,14.8,8.9,28.2,22.6,33.9l39.5,16.5c7.5,3.1,15.5,4.7,23.5,4.7l0,0
		c8.1,0,16.1-1.6,23.5-4.7l39.6-16.5c13.7-5.7,22.6-19.1,22.6-33.9v-6.1c10.1,0,18.4-8.2,18.4-18.4
		C334.7,239.6,326.5,231.4,316.4,231.4z"/>
	<g>
		<path class="st8" d="M187.8,255.9L187.8,255.9c-3.4,0-6.1-2.8-6.1-6.1v-6.1c0-3.4,2.8-6.1,6.1-6.1l0,0c3.4,0,6.1,2.8,6.1,6.1v6.1
			C194,253.1,191.2,255.9,187.8,255.9z"/>
	</g>
	<g>
		<path class="st8" d="M273.5,255.9L273.5,255.9c-3.4,0-6.1-2.8-6.1-6.1v-6.1c0-3.4,2.8-6.1,6.1-6.1l0,0c3.4,0,6.1,2.8,6.1,6.1v6.1
			C279.7,253.1,276.9,255.9,273.5,255.9z"/>
	</g>
	<g>
		<g>
			<path class="st9" d="M230.7,298.9c-10.9,0-21.1-2.7-27.9-7.3c-2.8-1.9-3.5-5.7-1.6-8.5c1.9-2.8,5.7-3.5,8.5-1.6
				c4.8,3.3,12.7,5.2,21,5.2s16.2-2,21-5.2c2.8-1.9,6.6-1.2,8.5,1.6c1.9,2.8,1.2,6.6-1.6,8.5C251.8,296.2,241.6,298.9,230.7,298.9z"
				/>
		</g>
	</g>
	<path class="st0" d="M225.4,175.6c-1.1,33.1-80.4,55.9-80.4,55.9c-10.1,0-18.4,8.2-18.4,18.4c0,10.1,8.2,18.4,18.4,18.4v6.1
		c0,14.8,8.9,28.2,22.6,33.9l39.5,16.5c1.9,0.8,3.9,1.5,5.9,2.1c-17.5-12.8-29.1-24-35.9-31.3c-5-5.3-7.6-12.3-7.6-19.6v-34.2
		c17.5-6.1,66.7-26.2,67.3-59.2c0-2.5,0-4.8-0.1-6.9L225.4,175.6L225.4,175.6z"/>
	<path class="st5" d="M261.3,109c-19.9,0-30.6,6.1-30.6,6.1S220,109,200.1,109s-95.4,38.3-67.3,127c0,0,97.9-17.4,97.9-59.7
		c0,42.3,97.9,59.7,97.9,59.7C356.7,147.3,281.2,109,261.3,109z"/>
	<g>
		<path class="st6" d="M230.7,115.1L230.7,115.1c0,0-10.7-6.1-30.6-6.1s-95.4,38.3-67.3,127c0,0,11.9-2.1,27.3-6.6
			C142.8,149.8,211.7,115.2,230.7,115.1z"/>
	</g>
	<g>
		<circle class="st10" cx="230.7" cy="451.8" r="6.1"/>
	</g>
	<g>
		<circle class="st10" cx="181.7" cy="451.8" r="6.1"/>
	</g>
	<g>
		<circle class="st10" cx="279.7" cy="451.8" r="6.1"/>
	</g>
	<g>
		<circle class="st11" cx="255.2" cy="451.8" r="6.1"/>
	</g>
	<g>
		<circle class="st11" cx="206.2" cy="451.8" r="6.1"/>
	</g>
	<g>
		<circle class="st11" cx="242.9" cy="433.4" r="6.1"/>
	</g>
	<g>
		<circle class="st11" cx="194" cy="433.4" r="6.1"/>
	</g>
	<g>
		<circle class="st11" cx="291.9" cy="433.4" r="6.1"/>
	</g>
	<g>
		<circle class="st10" cx="169.5" cy="433.4" r="6.1"/>
	</g>
	<g>
		<circle class="st10" cx="267.4" cy="433.4" r="6.1"/>
	</g>
	<g>
		<circle class="st10" cx="218.4" cy="433.4" r="6.1"/>
	</g>
</g>
</svg>
