<?xml version="1.0" encoding="iso-8859-1"?>
<!-- Uploaded to: SVG Repo, www.svgrepo.com, Generator: SVG Repo Mixer Tools -->
<svg version="1.1" id="Layer_1" xmlns="http://www.w3.org/2000/svg" xmlns:xlink="http://www.w3.org/1999/xlink" 
	 viewBox="0 0 511.992 511.992" xml:space="preserve">
<polygon style="fill:#A85D5D;" points="345.745,0 166.248,0 127.999,38.249 127.999,511.992 181.334,511.992 181.334,501.336 
	330.651,501.336 330.651,511.992 383.995,511.992 383.995,38.249 "/>
<rect x="181.337" y="245.336" style="fill:#5D9CEC;" width="148.77" height="256"/>
<rect x="330.647" y="245.336" style="fill:#965353;" width="53.34" height="266.65"/>
<path style="fill:#FFCE54;" d="M298.652,405.338c0,23.561-19.093,42.654-42.655,42.654s-42.664-19.094-42.664-42.654
	c0-23.562,19.101-42.672,42.664-42.672S298.652,381.775,298.652,405.338z"/>
<g>
	<path style="fill:#F6BB42;" d="M255.997,458.664c-29.406,0-53.335-23.922-53.335-53.326c0-29.406,23.93-53.344,53.335-53.344
		c29.406,0,53.343,23.938,53.343,53.344C309.34,434.742,285.403,458.664,255.997,458.664z M255.997,373.338
		c-17.648,0-32,14.359-32,32s14.351,31.998,32,31.998c17.641,0,31.999-14.357,31.999-31.998S273.638,373.338,255.997,373.338z"/>
	<rect x="245.337" y="245.336" style="fill:#F6BB42;" width="21.328" height="117.33"/>
	<path style="fill:#F6BB42;" d="M266.661,405.338c0,5.875-4.766,10.672-10.664,10.672s-10.664-4.797-10.664-10.672
		s4.766-10.672,10.664-10.672C261.895,394.666,266.661,399.463,266.661,405.338z"/>
</g>
<g>
	<path style="fill:#434A54;" d="M213.333,330.666c5.891,0,10.664-4.766,10.664-10.672v-74.655h-21.336v74.655
		C202.662,325.9,207.443,330.666,213.333,330.666z"/>
	<path style="fill:#434A54;" d="M298.652,330.666c5.906,0,10.688-4.766,10.688-10.672v-74.655h-21.344v74.655
		C287.996,325.9,292.777,330.666,298.652,330.666z"/>
</g>
<path style="fill:#FFCE54;" d="M203.201,181.2c-29.156-29.156-29.156-76.42,0-105.592c29.156-29.155,76.437-29.155,105.592,0
	c29.155,29.172,29.155,76.437,0,105.608C279.638,210.371,232.356,210.371,203.201,181.2z"/>
<path style="fill:#F6BB42;" d="M255.997,213.746c-22.797,0-44.226-8.875-60.343-25c-16.117-16.108-24.992-37.546-24.992-60.342
	c0-22.781,8.875-44.218,24.992-60.327c16.117-16.125,37.546-25,60.343-25c22.781,0,44.218,8.875,60.342,25
	c33.266,33.265,33.266,87.405,0,120.669C300.215,204.871,278.794,213.746,255.997,213.746z M255.997,64.405
	c-17.094,0-33.164,6.656-45.257,18.75c-12.085,12.094-18.742,28.156-18.742,45.25s6.656,33.171,18.742,45.265
	c12.094,12.078,28.164,18.734,45.257,18.734s33.155-6.656,45.249-18.734c24.968-24.953,24.968-65.561,0-90.514
	C289.152,71.061,273.091,64.405,255.997,64.405z"/>
<path style="fill:#434A54;" d="M293.715,151.044l-27.054-27.046v-38.25c0-5.891-4.773-10.672-10.664-10.672
	s-10.664,4.781-10.664,10.672v42.656c0,2.953,1.195,5.625,3.125,7.546l30.164,30.172c2.094,2.078,4.812,3.125,7.547,3.125
	c2.733,0,5.452-1.047,7.546-3.125C297.871,161.951,297.871,155.201,293.715,151.044z"/>
<g>
	<path style="fill:#7F4545;" d="M383.995,277.34L383.995,277.34c-5.891,0-10.656,4.766-10.656,10.656
		c0,5.906,4.766,10.672,10.656,10.672l0,0V277.34z"/>
	<path style="fill:#7F4545;" d="M383.995,319.994L383.995,319.994c-5.891,0-10.656,4.781-10.656,10.672s4.766,10.672,10.656,10.672
		l0,0V319.994z"/>
	<path style="fill:#7F4545;" d="M383.995,362.666L383.995,362.666c-5.891,0-10.656,4.781-10.656,10.672s4.766,10.656,10.656,10.656
		l0,0V362.666z"/>
	<path style="fill:#7F4545;" d="M383.995,405.338L383.995,405.338c-5.891,0-10.656,4.766-10.656,10.656
		c0,5.906,4.766,10.67,10.656,10.67l0,0V405.338z"/>
	<path style="fill:#7F4545;" d="M383.995,447.992L383.995,447.992c-5.891,0-10.656,4.781-10.656,10.672s4.766,10.672,10.656,10.672
		l0,0V447.992z"/>
</g>
<rect x="127.997" y="245.336" style="fill:#965353;" width="53.34" height="266.65"/>
<g>
	<path style="fill:#7F4545;" d="M127.999,277.34L127.999,277.34c5.891,0,10.664,4.766,10.664,10.656
		c0,5.906-4.773,10.672-10.664,10.672l0,0V277.34z"/>
	<path style="fill:#7F4545;" d="M127.999,319.994L127.999,319.994c5.891,0,10.664,4.781,10.664,10.672s-4.773,10.672-10.664,10.672
		l0,0V319.994z"/>
	<path style="fill:#7F4545;" d="M127.999,362.666L127.999,362.666c5.891,0,10.664,4.781,10.664,10.672s-4.773,10.656-10.664,10.656
		l0,0V362.666z"/>
	<path style="fill:#7F4545;" d="M127.999,405.338L127.999,405.338c5.891,0,10.664,4.766,10.664,10.656
		c0,5.906-4.773,10.67-10.664,10.67l0,0V405.338z"/>
	<path style="fill:#7F4545;" d="M127.999,447.992L127.999,447.992c5.891,0,10.664,4.781,10.664,10.672s-4.773,10.672-10.664,10.672
		l0,0V447.992z"/>
</g>
</svg>