<?xml version="1.0" encoding="iso-8859-1"?>
<!-- Uploaded to: SVG Repo, www.svgrepo.com, Generator: SVG Repo Mixer Tools -->
<svg version="1.1" id="Layer_1" xmlns="http://www.w3.org/2000/svg" xmlns:xlink="http://www.w3.org/1999/xlink" 
	 viewBox="0 0 512 512" xml:space="preserve">
<g>
	
		<rect x="462.124" y="57.713" transform="matrix(-0.7071 -0.7071 0.7071 -0.7071 769.3668 445.897)" style="fill:#CC582F;" width="29.816" height="11.79"/>
	
		<rect x="433.483" y="29.061" transform="matrix(-0.7071 -0.7071 0.7071 -0.7071 740.7341 376.734)" style="fill:#CC582F;" width="29.816" height="11.79"/>
	
		<rect x="444.992" y="75.934" transform="matrix(-0.7071 -0.7071 0.7071 -0.7071 726.4719 464.5721)" style="fill:#CC582F;" width="28.92" height="11.79"/>
	
		<rect x="415.717" y="46.652" transform="matrix(-0.7071 -0.7071 0.7071 -0.7071 697.2015 393.8831)" style="fill:#CC582F;" width="28.92" height="11.79"/>
	<path style="fill:#CC582F;" d="M346.69,190.237c25.654,34.603,30.052,79.757,4.374,105.423
		c-10.929,10.941-20.691,17.897-30.476,22.624c-4.586,2.676-12.886,8.925-17.708,20.679c-1.662,4.044-7.333,4.232-8.925,0.295
		c-0.295-0.707-0.495-1.179-0.589-1.285c-0.908-2.299-2.299-4.138-4.185-5.4c-9.962-6.661-29.981,5.176-44.718,26.421
		c-14.725,21.245-18.616,43.869-8.665,50.519c1.179,0.79,5.022,2.44,8.83,4.008c2.676,1.108,3.006,4.504,1.12,6.402
		c-0.377,0.365-0.837,0.684-1.379,0.908c-10.988,4.61-19.736,13.688-23.626,24.923c-6.461,18.651-15.704,34.909-26.668,45.874
		c-34.697,34.685-92.348,22.212-136.96-15.869l0.825-16.069l-21.693-4.798c-38.081-44.612-50.566-102.275-15.881-136.96
		c10.964-10.964,27.222-20.219,45.897-26.668c5.942-2.063,11.283-5.482,15.68-9.88c3.914-3.914,7.05-8.571,9.22-13.747
		c1.391-3.301,6.001-3.466,7.321-0.259c1.556,3.796,3.23,7.663,4.008,8.83c6.661,9.95,29.285,6.06,50.507-8.677
		c21.257-14.737,33.082-34.756,26.432-44.695c-1.273-1.898-3.101-3.289-5.4-4.197c-0.094-0.094-0.578-0.295-1.285-0.589
		c-3.938-1.592-3.761-7.262,0.295-8.925c11.754-4.81,17.991-13.134,20.691-17.696c4.704-9.797,11.672-19.559,22.601-30.5
		c25.678-25.666,70.82-21.28,105.447,4.374L346.69,190.237z"/>
</g>
<polygon style="fill:#808080;" points="159.471,400.788 101.63,431.253 80.751,410.373 111.215,352.521 "/>
<g>
	<path style="fill:#4D4D4D;" d="M101.63,431.253l-44.518,44.506c-3.714-3.16-7.333-6.508-10.846-10.021s-6.862-7.133-10.021-10.846
		l44.506-44.518L101.63,431.253z"/>
	<polygon style="fill:#4D4D4D;" points="321.779,165.302 474.537,22.717 489.286,37.466 346.69,190.237 255.427,288.138 
		223.866,256.577 	"/>
</g>
<g>
	<path style="fill:#333333;" d="M235.142,306.112c-4.136-2.596-9.601-1.384-12.198,2.753c-2.596,4.136-1.356,9.558,2.78,12.154
		l-25.394,40.454c-5.169,8.235-2.674,19.139,5.561,24.308c1.471,0.923,3.109,1.364,4.726,1.364c2.933,0,5.798-1.451,7.471-4.117
		c2.596-4.136,1.356-9.558-2.78-12.154l25.394-40.454C245.871,322.185,243.376,311.281,235.142,306.112z"/>
	<path style="fill:#333333;" d="M203.098,289.047c4.136-2.596,5.384-8.053,2.789-12.189c-2.504-3.99-6.411-6.765-11.003-7.815
		c-4.591-1.049-9.316-0.249-13.306,2.254l-40.38,25.414l-0.002-0.005c-2.596-4.136-8.055-5.385-12.189-2.789
		c-4.136,2.596-5.384,8.054-2.789,12.189c2.504,3.99,6.411,6.765,11.003,7.815c1.318,0.302,2.647,0.45,3.965,0.45
		c3.278,0,6.496-0.92,9.341-2.705l40.382-25.409C193.503,290.393,198.96,291.643,203.098,289.047z"/>
</g>
<path style="fill:#CC582F;" d="M510.508,9.077c1.721,1.71,1.981,4.398,0.637,6.414L494.886,39.86
	c-1.78,2.664-5.565,3.042-7.828,0.766l-0.472-0.46l-14.749-14.749l-0.46-0.472c-2.275-2.264-1.898-6.048,0.766-7.828l24.369-16.258
	c2.016-1.344,4.704-1.085,6.414,0.637L510.508,9.077z"/>
<path style="fill:#F7B239;" d="M187.227,98.777c-5.639-5.639-13.136-8.744-21.111-8.744s-15.472,3.105-21.111,8.743l12.505,12.505
	c2.299-2.299,5.355-3.564,8.605-3.564s6.307,1.266,8.605,3.564l238.665,238.666l-11.357,11.357l12.504,12.505l11.357-11.357
	l11.737,11.738l-8.605,8.605l12.504,12.505l21.112-21.111L187.227,98.777z"/>
<rect x="68.883" y="251.109" transform="matrix(-0.7071 -0.7071 0.7071 -0.7071 329.4649 656.3709)" style="fill:#808080;" width="463.577" height="17.684"/>
</svg>